<svg xmlns="http://www.w3.org/2000/svg" width="28" height="19" viewBox="0 0 28 19">
    <g fill="none" fill-rule="evenodd">
        <g fill="#323643" fill-rule="nonzero">
            <g>
                <g>
                    <path d="M27.437 1.112H.563c-.751 0-.75-1.112 0-1.112h26.874c.75 0 .751 1.112 0 1.112zm-5.599 7.782H.563c-.751 0-.75 1.112 0 1.112h21.275c.75 0 .751-1.112 0-1.112zm-5.599 8.894H.563c-.751 0-.75 1.112 0 1.112H16.24c.751 0 .752-1.112 0-1.112z" transform="translate(-1382 -28) translate(1382 28) matrix(-1 0 0 1 28 0)"/>
                </g>
            </g>
        </g>
    </g>
</svg>
