<?xml version="1.0" encoding="UTF-8"?>
<svg width="75px" height="73px" viewBox="0 0 75 73" version="1.1" xmlns="http://www.w3.org/2000/svg" xmlns:xlink="http://www.w3.org/1999/xlink">
    <title>Group 14</title>
    <defs>
        <filter id="filter-1">
            <feColorMatrix in="SourceGraphic" type="matrix" values="0 0 0 0 0.890196 0 0 0 0 0.894118 0 0 0 0 0.996078 0 0 0 1.000000 0"></feColorMatrix>
        </filter>
    </defs>
    <g id="Symbols" stroke="none" stroke-width="1" fill="none" fill-rule="evenodd">
        <g id="Group-14">
            <g id="Group-13" transform="translate(16.000000, 0.000000)">
                <g filter="url(#filter-1)" id="brightness">
                    <g transform="translate(25.000000, 0.000000)">
                        <circle id="Oval" fill="#000000" fill-rule="nonzero" cx="16.5" cy="16.5" r="7.5"></circle>
                        <path d="M16,0 C14.8954122,0 14,1.04464757 14,2.33333333 L14,4.66666667 C14,5.95535243 14.8954122,7 16,7 C17.1045878,7 18,5.95535243 18,4.66666667 L18,2.33333333 C18,1.04464757 17.1045878,0 16,0 Z" id="Path" fill="#000000" fill-rule="nonzero"></path>
                        <path d="M16,27 C14.8954122,27 14,28.0446476 14,29.3333333 L14,31.6666667 C14,32.9553524 14.8954122,34 16,34 C17.1045878,34 18,32.9553524 18,31.6666667 L18,29.3333333 C18,28.0446476 17.1045878,27 16,27 Z" id="Path" fill="#000000" fill-rule="nonzero"></path>
                        <path d="M31.6666667,14 L29.3333333,14 C28.0446476,14 27,14.8954122 27,16 C27,17.1045878 28.0446476,18 29.3333333,18 L31.6666667,18 C32.9553524,18 34,17.1045878 34,16 C34,14.8954122 32.9553524,14 31.6666667,14 Z" id="Path" fill="#000000" fill-rule="nonzero"></path>
                        <path d="M4.66652995,14 L2.33333333,14 C1.04464757,14 0,14.8954122 0,16 C0,17.1045878 1.04464757,18 2.33333333,18 L4.66666667,18 C5.95535243,18 7,17.1045878 7,16 C7,14.8954122 5.95521572,14 4.66652995,14 Z" id="Path" fill="#000000" fill-rule="nonzero"></path>
                        <path d="M29.2069837,4.72922374 C28.2002093,3.75692542 26.604044,3.75692542 25.5972696,4.72922374 L23.7605988,6.56575342 C22.7462134,7.5803653 22.7465179,9.22511416 23.7612077,10.2394216 C24.2483075,10.7263318 24.9086322,10.9998478 25.5974218,11 C26.2863636,10.9998478 26.9469928,10.7260274 27.4340926,10.2388128 L29.2707634,8.40228311 C30.2674914,7.37031963 30.2388743,5.72587519 29.2069837,4.72922374 Z" id="Path" fill="#000000" fill-rule="nonzero"></path>
                        <path d="M10.2806763,23.7823702 C9.29747341,22.7643289 7.67506854,22.7361 6.65718029,23.7194559 C6.63585854,23.7400269 6.6148371,23.7610484 6.59426611,23.7823702 L4.78236796,25.5941234 C3.76432956,26.5773291 3.73610076,28.1995885 4.71945379,29.2176298 C5.70265667,30.2356711 7.32506153,30.2639 8.34294978,29.2805441 C8.36427153,29.2599731 8.38529297,29.2389516 8.40586396,29.2176298 L10.217612,27.4058766 C11.2356504,26.4226709 11.2638792,24.8004115 10.2806763,23.7823702 Z" id="Path" fill="#000000" fill-rule="nonzero"></path>
                        <path d="M29.2674192,25.5775068 L27.4224348,23.7325204 C26.3857206,22.7312797 24.7337058,22.7600264 23.7324661,23.7967418 C22.7558446,24.8080744 22.7558446,26.4113134 23.7324661,27.4224932 L25.5774505,29.2674796 C26.6141647,30.2687203 28.2661795,30.2399736 29.2674192,29.2032582 C30.2441936,28.1920785 30.2441936,26.5888395 29.2674192,25.5775068 Z" id="Path" fill="#000000" fill-rule="nonzero"></path>
                        <path d="M10.2741452,6.61772306 C10.253236,6.59620759 10.2320237,6.57499516 10.2105083,6.55408576 L8.38231067,4.7258769 C7.35502905,3.73374101 5.71804518,3.76222628 4.72591538,4.78936269 C3.75802821,5.79149872 3.75802821,7.38015858 4.72591538,8.38229461 L6.55411302,10.2105035 C7.54624282,11.2377914 9.18322669,11.2662767 10.2105083,10.2741408 C11.2377899,9.28200489 11.266275,7.64501098 10.2741452,6.61772306 Z" id="Path" fill="#000000" fill-rule="nonzero"></path>
                    </g>
                </g>
                <path d="M22.5,10.5 C28.7428017,10.5 35.0974109,13.0163914 39.6950124,17.6041057 C43.7858273,21.6861231 46.5,27.4022259 46.5,34.4516129 C46.5,48.0045517 26.6678648,68.6876884 24.9517711,70.420378 C24.1517112,71.2196877 23.4773854,71.5 22.5,71.5 C21.4878882,71.5 20.8057015,71.1767729 20.1196573,70.4921384 C18.3278856,68.6758501 -1.5,47.8144869 -1.5,34.4516129 C-1.5,27.4022259 1.21417272,21.6861231 5.30498757,17.6041057 C9.90258915,13.0163914 16.2571983,10.5 22.5,10.5 Z" id="Shape" stroke="#FFFFFF" stroke-width="3" fill="#323643" fill-rule="nonzero" stroke-linejoin="bevel"></path>
            </g>
            <circle id="Oval" fill="#FFFFFF" cx="38" cy="32" r="5"></circle>
            <g id="Group-4-Copy-2" transform="translate(28.000000, 25.000000)" fill="#FFFFFF">
                <path d="M10,19 C29.0069284,6.02104725 16.1979114,-4.86452602 10,2.2529642 C3.80208856,-4.86452602 -9.00692841,6.02104725 10,19 Z" id="For-You-Icon-Copy-6"></path>
            </g>
            <g id="building" transform="translate(21.500000, 52.000000) scale(-1, 1) translate(-21.500000, -52.000000) translate(0.000000, 33.000000)" fill="#E3E4FE" fill-rule="nonzero">
                <path d="M39.5986328,32.8130382 C41.5584922,32.2617717 43,30.4591927 43,28.3250305 C43,27.6674087 42.8042324,26.4757424 41.1116953,23.7314235 C40.242709,22.3223422 39.3858164,21.1669677 39.3497871,21.1184106 L38.3388672,19.7584744 L37.3279473,21.1184106 C37.291918,21.1669677 36.4350254,22.3223422 35.5660391,23.7314235 C35.2835996,24.1894401 35.0435723,24.6032679 34.8384824,24.9795438 L34.8384824,5 C34.8384824,2.23857625 32.5999062,-5.07265313e-16 29.8384824,0 L13.1615176,0 C10.4000938,1.39544373e-15 8.16151758,2.23857625 8.16151758,5 L8.16151758,24.9794598 L8.16151758,24.9794598 C7.95642773,24.6031839 7.71640039,24.1893561 7.43396094,23.7313395 C6.56497461,22.3222582 5.70808203,21.1668837 5.67205273,21.1183265 L4.66113281,19.7584744 L3.65021289,21.1184106 C3.61418359,21.1669677 2.75729102,22.3223422 1.88830469,23.7314235 C0.195767578,26.4757424 0,27.6674087 0,28.3249464 C0,30.4591927 1.44150781,32.2617717 3.40136719,32.8129542 L3.40136719,35.4797329 L0,35.4797329 L0,38 L43,38 L43,35.4797329 L39.5986328,35.4797329 L39.5986328,32.8130382 Z M8.16151758,35.4797329 L5.92089844,35.4797329 L5.92089844,32.8130382 C6.80004688,32.5658 7.57438281,32.0669551 8.16151758,31.3988323 L8.16151758,35.4797329 Z M16.4889043,32.0703155 L13.969373,32.0703155 L13.969373,28.4859075 L16.4889043,28.4859075 L16.4889043,32.0703155 Z M16.4889043,24.509598 L13.969373,24.509598 L13.969373,20.9251901 L16.4889043,20.9251901 L16.4889043,24.509598 Z M16.4889043,16.9487966 L13.969373,16.9487966 L13.969373,13.3643886 L16.4889043,13.3643886 L16.4889043,16.9487966 Z M16.4889043,9.38799513 L13.969373,9.38799513 L13.969373,5.80358718 L16.4889043,5.80358718 L16.4889043,9.38799513 Z M22.7597656,32.0703155 L20.2402344,32.0703155 L20.2402344,28.4859075 L22.7597656,28.4859075 L22.7597656,32.0703155 Z M22.7597656,24.509598 L20.2402344,24.509598 L20.2402344,20.9251901 L22.7597656,20.9251901 L22.7597656,24.509598 Z M22.7597656,16.9487966 L20.2402344,16.9487966 L20.2402344,13.3643886 L22.7597656,13.3643886 L22.7597656,16.9487966 Z M22.7597656,9.38799513 L20.2402344,9.38799513 L20.2402344,5.80358718 L22.7597656,5.80358718 L22.7597656,9.38799513 Z M29.030627,32.0703155 L26.5110957,32.0703155 L26.5110957,28.4859075 L29.030627,28.4859075 L29.030627,32.0703155 Z M29.030627,24.509598 L26.5110957,24.509598 L26.5110957,20.9251901 L29.030627,20.9251901 L29.030627,24.509598 Z M29.030627,16.9487966 L26.5110957,16.9487966 L26.5110957,13.3643886 L29.030627,13.3643886 L29.030627,16.9487966 Z M29.030627,9.38799513 L26.5110957,9.38799513 L26.5110957,5.80358718 L29.030627,5.80358718 L29.030627,9.38799513 Z M37.0791016,35.4797329 L34.8384824,35.4797329 L34.8384824,31.3987483 C35.4256172,32.0668711 36.1999531,32.565716 37.0791016,32.8130382 L37.0791016,35.4797329 Z" id="Shape"></path>
            </g>
        </g>
    </g>
</svg>