<?xml version="1.0" encoding="utf-8"?>
<!-- Generator: Adobe Illustrator 24.0.3, SVG Export Plug-In . SVG Version: 6.00 Build 0)  -->
<svg version="1.1" id="Capa_1" xmlns="http://www.w3.org/2000/svg" xmlns:xlink="http://www.w3.org/1999/xlink" x="0px" y="0px"
	 viewBox="0 0 612 612" style="enable-background:new 0 0 612 612;" xml:space="preserve">
<style type="text/css">
	.st0{fill:#FFFFFF;}
</style>
<g>
	<g id="_x33__24_">
		<g>
			<path class="st0" d="M306,0C137,0,0,137,0,306s137,306,306,306s306-137,306-306S475,0,306,0z M469.2,246.3L322.8,392.8
				c-4.6,4.6-10.9,6-16.8,5c-5.9,1.1-12.2-0.4-16.8-5L142.7,246.3c-7.5-7.5-7.5-19.6,0-27s19.6-7.5,27,0L306,355.5l136.2-136.2
				c7.5-7.5,19.6-7.5,27,0C476.7,226.7,476.7,238.8,469.2,246.3z"/>
		</g>
	</g>
</g>
</svg>
