<?xml version="1.0" encoding="UTF-8"?>
<svg width="30px" height="30px" viewBox="0 0 30 30" version="1.1" xmlns="http://www.w3.org/2000/svg" xmlns:xlink="http://www.w3.org/1999/xlink">
    <title>Shape</title>
    <g id="Symbols" stroke="none" stroke-width="1" fill="none" fill-rule="evenodd">
        <g id="back" fill="#323643" fill-rule="nonzero">
            <path d="M15,0 C6.71572266,0 0,6.71572266 0,15 C0,23.2842773 6.71572266,30 15,30 C23.2842773,30 30,23.2842773 30,15 C30,6.71572266 23.2842773,0 15,0 Z M15,28.125 C7.75125,28.125 1.875,22.24875 1.875,15 C1.875,7.75125 7.75125,1.875 15,1.875 C22.24875,1.875 28.125,7.75125 28.125,15 C28.125,22.24875 22.24875,28.125 15,28.125 Z" id="Shape"></path>
            <path d="M17.146875,6.84375 L9.646875,14.34375 C9.28335938,14.7094336 9.28335938,15.2999414 9.646875,15.665625 L17.146875,23.165625 L18.46875,21.834375 L11.634375,15 L18.46875,8.165625 L17.146875,6.84375 Z" id="Path"></path>
        </g>
    </g>
</svg>