<svg xmlns="http://www.w3.org/2000/svg" width="48" height="48" viewBox="0 0 48 48">
    <g fill="none" fill-rule="evenodd">
        <g fill="#323643" fill-rule="nonzero">
            <g>
                <path d="M11.982 44.975c-.083.716-.336 1.665-.881 1.86-.313.11-.475.454-.364.766.088.246.319.399.565.399.067 0 .135-.011.202-.035 1.245-.445 1.586-2.026 1.679-2.907.117.003.234.009.352.009h20.93c.118 0 .235-.006.352-.01.093.882.434 2.463 1.68 2.908.066.024.134.035.2.035.247 0 .478-.153.566-.399.111-.312-.051-.655-.364-.767-.541-.193-.795-1.142-.88-1.86C42.753 44.202 48 38.468 48 31.529V8.316C48 3.73 44.27 0 39.686 0c-2.22 0-4.308.865-5.878 2.436l-.427.427-1.46-1.46c-1.787-1.788-4.695-1.789-6.483 0l-2.39 2.392c-.235.234-.235.614 0 .848l9.523 9.526c.112.112.265.176.424.176.159 0 .311-.064.424-.176l2.39-2.392c.867-.866 1.344-2.018 1.344-3.242 0-1.225-.477-2.377-1.343-3.243l-1.58-1.58.426-.428C36 1.941 37.786 1.2 39.686 1.2c3.923 0 7.114 3.192 7.114 7.116v15.688h-8.733c-.399-1.127-1.464-1.941-2.726-1.941h-6.767c-1.262 0-2.327.814-2.726 1.941H.6c-.331 0-.6.269-.6.6v6.924c0 6.94 5.248 12.673 11.982 13.447zm23.97-36.44c0 .904-.351 1.754-.99 2.393l-1.967 1.968-8.675-8.677 1.967-1.968c1.32-1.32 3.467-1.32 4.786 0l1.883 1.884.001.001 2.004 2.005c.64.64.992 1.49.992 2.394zm-9.08 16.431c0-.939.763-1.703 1.702-1.703h6.767c.939 0 1.703.764 1.703 1.703v11.872H26.87V24.966zM1.2 25.205h24.471v12.233c0 .331.269.6.6.6h11.373c.331 0 .6-.269.6-.6V25.205H46.8v6.323c0 6.803-5.534 12.338-12.335 12.338h-20.93C6.734 43.866 1.2 38.331 1.2 31.528v-6.323z"/>
            </g>
        </g>
    </g>
</svg>
