<svg xmlns="http://www.w3.org/2000/svg" width="73" height="34" viewBox="0 0 73 34">
    <g fill="none" fill-rule="evenodd">
        <g fill="#323643" fill-rule="nonzero">
            <g>
                <path d="M68.437 16.746h-.742V4.49C67.695 2.015 65.647 0 63.13 0H9.67C7.154 0 5.106 2.015 5.106 4.49v12.256h-.542C2.048 16.746 0 18.76 0 21.236v8.471c0 .304.25.55.56.55h8.75v1.617c0 1.173.97 2.126 2.162 2.126h5.105c1.192 0 2.16-.954 2.16-2.126v-1.616h35.325v1.616c0 1.173.969 2.126 2.16 2.126h5.106c1.193 0 2.161-.954 2.161-2.126v-1.616h8.952c.308 0 .559-.247.559-.55v-8.472c0-2.476-2.047-4.49-4.563-4.49zM1.118 29.157V26.72h70.764v2.437H1.118zM6.225 4.491c0-1.87 1.545-3.39 3.445-3.39H63.13c1.9 0 3.445 1.52 3.445 3.39v12.255H61.74v-.763c0-2.476-2.047-4.49-4.564-4.49h-9.477c-2.517 0-4.564 2.014-4.564 4.49v.763H29.667v-.764c0-2.475-2.048-4.49-4.565-4.49h-9.477c-2.516 0-4.563 2.015-4.563 4.49v.764H6.224V4.49zm38.027 12.255v-.763c0-1.87 1.545-3.39 3.445-3.39h9.477c1.9 0 3.446 1.52 3.446 3.39v.763H44.252zm-32.072 0v-.764c0-1.869 1.545-3.39 3.445-3.39h9.477c1.9 0 3.446 1.521 3.446 3.39v.764H12.18zm-7.616 1.1h63.873c1.9 0 3.445 1.52 3.445 3.39v4.383H1.118v-4.383c0-1.869 1.546-3.39 3.446-3.39zM17.62 31.874c0 .566-.467 1.026-1.042 1.026h-5.106c-.574 0-1.043-.46-1.043-1.026v-1.616h7.192v1.616zm44.752 0c0 .566-.468 1.026-1.043 1.026h-5.106c-.575 0-1.042-.46-1.042-1.026v-1.616h7.191v1.616z"/>
            </g>
        </g>
    </g>
</svg>
