<?xml version="1.0" encoding="UTF-8"?>
<svg width="38px" height="35px" viewBox="0 0 38 35" version="1.1" xmlns="http://www.w3.org/2000/svg" xmlns:xlink="http://www.w3.org/1999/xlink">
    <title>CE87D5DD-AA7E-407B-A51F-E295D1923730</title>
    <defs>
        <filter id="filter-1">
            <feColorMatrix in="SourceGraphic" type="matrix" values="0 0 0 0 0.196078 0 0 0 0 0.211765 0 0 0 0 0.262745 0 0 0 1.000000 0"></feColorMatrix>
        </filter>
    </defs>
    <g id="Symbols" stroke="none" stroke-width="1" fill="none" fill-rule="evenodd" opacity="0.4">
        <g id="noun_yoga_3689007" filter="url(#filter-1)">
            <g>
                <path d="M34.1257745,10.9435207 L29.4091856,14.185774 L24.8566197,10.8490221 C24.3051759,10.4450224 23.6231074,10.2223281 22.9365858,10.2223281 L22.3168609,10.2223281 C22.9986047,9.4530163 23.4152955,8.44951835 23.4152955,7.34964476 L23.4152955,6.81525171 C23.4152955,5.49039456 22.8129656,4.30362252 21.866911,3.50102563 C21.9066643,3.31092964 21.9301823,3.11424078 21.9301823,2.90967699 C21.9301823,1.30539889 20.6076077,0 18.9822215,0 C17.3568352,0 16.0342606,1.30539889 16.0342606,2.90967699 C16.0342606,3.11570585 16.0576394,3.31385987 16.0979958,3.50519199 C15.1548172,4.30774312 14.5543427,5.49259221 14.5543427,6.81525171 L14.5543427,7.34964476 C14.5543427,8.44951843 14.9710335,9.4530163 15.6526845,10.2223281 L15.3432859,10.2223281 C14.3940306,10.2223281 13.451455,10.5299979 12.6892305,11.0889312 L8.46990593,14.1813787 L3.86241832,10.918614 C2.85601473,10.2058457 1.46961225,10.35089 0.63688013,11.2526555 C0.173014161,11.7551828 -0.0548367984,12.4309574 0.0112177401,13.1074647 C0.0772722785,13.7836056 0.432779107,14.4037067 0.984965123,14.8088052 L6.80963697,19.0795547 C7.95186047,19.9161234 9.47111417,19.9827852 10.6964624,19.2392499 L13.4351269,17.4927661 L13.4351269,23.8652388 L7.12209705,26.0947916 C5.27925043,26.7441946 4.04128505,28.4795986 4.04128505,30.4131565 C4.04128505,31.2603472 4.28175319,32.0914219 4.73597068,32.8159109 C5.60655427,34.2077504 7.12803454,35 8.71037407,35 C9.28185689,35 9.86150376,34.8963446 10.4218538,34.6802432 L19.0133932,31.4079555 C19.0423384,31.4229727 19.0720259,31.4361586 19.1031977,31.4478793 L27.7548542,34.6502088 C29.9042234,35.431104 32.279217,34.5450884 33.3858156,32.7012674 C34.0686263,31.5573952 34.203704,30.1853345 33.7546818,28.936708 C33.3004643,27.6734306 32.3037092,26.6775328 31.0167595,26.2046737 L24.6302532,23.8720149 L24.6302532,17.4451048 L27.8016119,19.3381438 C28.3315323,19.6315289 28.914148,19.776207 29.4937949,19.776207 C30.2493397,19.776207 31.0004314,19.5308037 31.6238673,19.0495203 L37.0536965,14.8560546 C37.579906,14.449491 37.9101785,13.8645522 37.9843971,13.2092888 C38.0586157,12.5536592 37.8663896,11.9112154 37.4433438,11.4006301 C36.6328772,10.4212146 35.1752249,10.2219618 34.1257745,10.9435207 Z M18.9822215,1.50025639 C19.6865555,1.50025639 20.2695886,2.00704158 20.3856479,2.6699967 C19.9446506,2.52435721 19.474476,2.44231194 18.984448,2.44231194 C18.4927037,2.44231194 18.0209521,2.52513555 17.5786095,2.67182807 C17.6939266,2.00804885 18.2772844,1.50025639 18.9822215,1.50025639 Z M16.0743387,7.34964476 L16.0743387,6.81525171 C16.0743387,5.23111868 17.379843,3.94256841 18.9844481,3.94256841 C20.5897954,3.94256841 21.8952996,5.23111868 21.8952996,6.81525171 L21.8952996,7.34964476 C21.8952996,8.93377779 20.5897954,10.2223281 18.9844481,10.2223281 C17.379843,10.2223281 16.0743387,8.93377779 16.0743387,7.34964476 Z M32.3222637,29.4385027 C32.6198802,30.2673798 32.5308179,31.1790346 32.0773425,31.9379534 C31.335157,33.1741265 29.74688,33.7744489 28.2847746,33.2437186 L22.4311575,31.0772106 L23.0909605,31.044246 C23.3804129,31.0299613 23.637209,30.8537837 23.7515056,30.5900668 C23.86506,30.3267161 23.8175601,30.0219765 23.6275606,29.8051426 L22.9939198,29.0804246 L28.4695789,30.7614828 C28.5445396,30.784558 28.6209848,30.7955462 28.6952033,30.7955462 C29.0195383,30.7955462 29.3193813,30.5893343 29.4210607,30.2677461 C29.5457479,29.8721706 29.3216078,29.4516886 28.9208277,29.3286207 L19.9396409,26.5713135 C19.9173753,26.5644917 19.8954808,26.5692991 19.8731689,26.5645375 C18.9147291,26.261034 17.8652324,26.2491302 16.8877741,26.5951213 L16.0669169,26.8822798 C16.0667778,26.8823255 16.0667314,26.8824171 16.0665923,26.8824629 C16.0662212,26.8826002 16.0658037,26.8825086 16.0654326,26.882646 L9.0777561,29.341074 C8.68217123,29.4802579 8.47658586,29.9091642 8.61685891,30.2996118 C8.72818675,30.606549 9.02060782,30.7981101 9.33306791,30.7981101 C9.41767704,30.7981101 9.50377059,30.7838254 9.58837972,30.7541572 L16.5760562,28.2957292 C16.5762882,28.2956376 16.5764273,28.2954545 16.5766593,28.2953629 L17.3983978,28.0082045 C18.6007384,27.5818621 19.9819456,27.93788 20.8243261,28.8949527 L21.4611212,29.6234708 L19.2976505,29.7318878 C19.2174944,29.7359168 19.1380806,29.7523991 19.0623777,29.7809684 L9.87115239,33.2818109 C8.44467187,33.8326863 6.82819178,33.3056187 6.028858,32.027324 C5.71862448,31.5321222 5.56128112,30.9893048 5.56128112,30.4131565 C5.56128112,29.1121529 6.39401323,27.9444729 7.63346305,27.5075086 L14.3272341,25.1435792 L23.7322088,25.1435792 L30.4883235,27.611164 C31.3500007,27.928357 32.0187098,28.5942422 32.3222637,29.4385027 Z M36.1170583,13.6744561 L30.6872291,17.8679218 C30.0697307,18.3448099 29.2280923,18.4074427 28.5668051,18.042268 L24.6302531,15.6921197 L24.6302531,15.0633654 C24.6302531,14.64911 24.2903322,14.3132372 23.8702552,14.3132372 C23.4501782,14.3132372 23.1102572,14.64911 23.1102572,15.0633654 L23.1102572,23.6433229 L14.9551229,23.6433229 L14.9551229,15.0633654 C14.9551229,14.64911 14.615202,14.3132372 14.195125,14.3132372 C13.775048,14.3132372 13.435127,14.64911 13.435127,15.0633654 L13.435127,15.7064959 L9.88599591,17.9701121 C9.20689616,18.3814373 8.35560938,18.3437112 7.71658767,17.8752473 L1.89117361,13.6044979 C1.68039289,13.4495642 1.54976824,13.2217421 1.52453396,12.9627866 C1.49855745,12.7041975 1.58242444,12.455864 1.76054897,12.2632042 C2.07523562,11.9236686 2.596992,11.8690939 2.97624884,12.1375723 L8.03424303,15.7193612 C8.30365638,15.9094572 8.66510069,15.9054281 8.93006091,15.7120357 L13.5946968,12.2932385 C14.0971564,11.9251336 14.7183656,11.7225844 15.3432859,11.7225844 L22.9365858,11.7225844 C23.2987723,11.7225844 23.6594745,11.8401582 23.9504112,12.0536957 L28.9416087,15.7120357 C29.2050845,15.9043294 29.5613336,15.9094572 29.8292626,15.7252216 L34.9941315,12.1745659 C35.3978804,11.896198 35.9552617,11.9738481 36.2662374,12.3496447 C36.4287761,12.545601 36.5022524,12.7917368 36.4740494,13.0433667 C36.4451042,13.2946304 36.3189327,13.5187899 36.1170583,13.6744561 Z" id="Shape" fill="#000000" fill-rule="nonzero"></path>
            </g>
        </g>
    </g>
</svg>