<?xml version="1.0" encoding="UTF-8"?>
<svg width="43.9308331px" height="40.4626095px" viewBox="0 0 43.9308331 40.4626095" version="1.1" xmlns="http://www.w3.org/2000/svg" xmlns:xlink="http://www.w3.org/1999/xlink">
    <title>F85CB200-2B8E-4BE6-BCE1-5E1116EC8E35</title>
    <defs>
        <filter id="filter-1">
            <feColorMatrix in="SourceGraphic" type="matrix" values="0 0 0 0 1.000000 0 0 0 0 1.000000 0 0 0 0 1.000000 0 0 0 1.000000 0"></feColorMatrix>
        </filter>
    </defs>
    <g id="Symbols" stroke="none" stroke-width="1" fill="none" fill-rule="evenodd">
        <g id="noun_yoga_3689007" filter="url(#filter-1)">
            <g transform="translate(0.000000, 0.000000)">
                <path d="M39.4519397,12.6515258 L33.9992113,16.3998123 L28.7361056,12.5422784 C28.0985955,12.0752246 27.3100734,11.8177734 26.5164033,11.8177734 L25.7999551,11.8177734 C26.5881017,10.9283916 27.0698273,9.76827318 27.0698273,8.49673731 L27.0698273,7.87893909 C27.0698273,6.34730546 26.373489,4.97530849 25.2797794,4.04744665 C25.3257372,3.82768152 25.3529258,3.60029452 25.3529258,3.36380354 C25.3529258,1.50913845 23.823931,0 21.9448633,0 C20.0657955,0 18.5368007,1.50913845 18.5368007,3.36380354 C18.5368007,3.60198826 18.5638284,3.83106907 18.6104833,4.05226327 C17.5200986,4.98007222 16.8259053,6.34984611 16.8259053,7.87893909 L16.8259053,8.49673731 C16.8259053,9.76827327 17.3076309,10.9283916 18.0956703,11.8177734 L17.7379824,11.8177734 C16.6405726,11.8177734 15.5508849,12.1734626 14.6696965,12.8196312 L9.79184274,16.394731 L4.46524354,12.6227318 C3.30176597,11.7987186 1.69898133,11.9664006 0.736280914,13.0089087 C0.20001727,13.5898677 -0.0633954273,14.3711136 0.0129685439,15.1532064 C0.0893325151,15.9348758 0.500324914,16.6517588 1.13869312,17.1200829 L7.87244803,22.0573877 C9.19294356,23.0245236 10.9493141,23.1015896 12.3659081,22.2420073 L15.5320084,20.2229418 L15.5320084,27.5899954 L8.23367519,30.1675246 C6.10320711,30.9182829 4.67202682,32.9245393 4.67202682,35.1598764 C4.67202682,36.139292 4.95002592,37.1000763 5.47513521,37.9376397 C6.48159474,39.5467098 8.24053937,40.4626095 10.0698418,40.4626095 C10.7305186,40.4626095 11.4006336,40.3427761 12.04844,40.0929468 L21.9809001,36.3099382 C22.014363,36.3272992 22.0486838,36.3425431 22.0847208,36.3560931 L32.0866807,40.0582248 C34.5715118,40.9609978 37.3171815,39.9366977 38.596492,37.8051032 C39.385872,36.4827016 39.542032,34.8964972 39.0229288,33.4529919 C38.4978194,31.992549 37.3454962,30.8412169 35.8576864,30.2945566 L28.4744091,27.5978291 L28.4744091,20.1678418 L32.1407361,22.356336 C32.7533637,22.6955111 33.4269108,22.8627697 34.0970258,22.8627697 C34.9704919,22.8627697 35.83881,22.5790653 36.5595483,22.0226657 L42.8368357,17.1747067 C43.4451731,16.7046889 43.8269928,16.028456 43.912795,15.2709227 C43.9985973,14.512966 43.7763696,13.770253 43.2872971,13.1799784 C42.3503372,12.047701 40.6651825,11.8173499 39.4519397,12.6515258 Z M21.9448633,1.73440825 C22.7591259,1.73440825 23.4331557,2.3202897 23.5673289,3.08671526 C23.0575031,2.91834515 22.5139462,2.8234947 21.9474373,2.8234947 C21.3789443,2.8234947 20.8335642,2.91924496 20.3221832,3.08883245 C20.4554983,2.32145419 21.1299035,1.73440825 21.9448633,1.73440825 Z M18.583134,8.49673731 L18.583134,7.87893909 C18.583134,6.0475632 20.0923943,4.55790303 21.9474374,4.55790303 C23.8033385,4.55790303 25.3125988,6.0475632 25.3125988,7.87893909 L25.3125988,8.49673731 C25.3125988,10.3281132 23.8033385,11.8177734 21.9474374,11.8177734 C20.0923943,11.8177734 18.583134,10.3281132 18.583134,8.49673731 Z M37.3669467,34.033104 C37.7110135,34.9913476 37.6080509,36.0452886 37.0837996,36.9226553 C36.2257778,38.3517636 34.3896111,39.045781 32.6993082,38.4322172 L25.9320905,35.9275725 L26.6948719,35.8894629 C27.0295004,35.8729487 27.3263759,35.6692743 27.4585113,35.3643979 C27.5897886,35.0599449 27.5348752,34.7076432 27.3152217,34.456967 L26.5826856,33.619139 L32.9129558,35.5625675 C32.999616,35.5892442 33.0879923,35.6019475 33.1737944,35.6019475 C33.5487499,35.6019475 33.8953908,35.363551 34.0129397,34.9917711 C34.1570873,34.5344564 33.8979647,34.0483479 33.434633,33.9060722 L23.0517115,30.7184195 C23.0259708,30.710533 23.0006592,30.7160906 22.9748649,30.7105859 C21.866837,30.3597133 20.6535406,30.3459515 19.5235259,30.7459431 L18.5745539,31.0779197 C18.574393,31.0779726 18.5743394,31.0780785 18.5741785,31.0781314 C18.5737495,31.0782901 18.5732669,31.0781843 18.5728379,31.078343 L10.4945629,33.9204691 C10.0372373,34.0813761 9.79956523,34.5772238 9.96173134,35.0286103 C10.0904346,35.3834526 10.4284952,35.6049115 10.7897223,35.6049115 C10.8875368,35.6049115 10.9870674,35.5883973 11.0848818,35.5540987 L19.1631568,32.7119726 C19.163425,32.7118667 19.1635859,32.7116551 19.163854,32.7115492 L20.113845,32.3795726 C21.5038403,31.886689 23.1006189,32.2982722 24.0744736,33.4047196 L24.8106562,34.2469408 L22.3095227,34.372279 C22.2168563,34.3769368 22.1250481,34.3959916 22.0375298,34.4290199 L11.4117881,38.4762548 C9.76267029,39.1131078 7.89389879,38.5037783 6.96980934,37.0259744 C6.61115626,36.4534841 6.4292556,35.8259468 6.4292556,35.1598764 C6.4292556,33.6558193 7.39195601,32.3058941 8.82485241,31.8007308 L16.5633508,29.0678521 L27.4362028,29.0678521 L35.246775,31.9205641 C36.2429382,32.2872629 37.0160158,33.0570759 37.3669467,34.033104 Z M41.7540121,15.8086908 L35.4767247,20.6566498 C34.7628506,21.207968 33.7898539,21.2803762 33.0253565,20.858207 L28.474409,18.1412603 L28.474409,17.4143734 C28.474409,16.9354633 28.081435,16.5471693 27.5957947,16.5471693 C27.1101543,16.5471693 26.7171804,16.9354633 26.7171804,17.4143734 L26.7171804,27.333444 L17.2892371,27.333444 L17.2892371,17.4143734 C17.2892371,16.9354633 16.8962632,16.5471693 16.4106228,16.5471693 C15.9249825,16.5471693 15.5320085,16.9354633 15.5320085,17.4143734 L15.5320085,18.1578803 L11.4289483,20.7747894 C10.6438584,21.2503119 9.65970741,21.2066977 8.92095067,20.6651186 L2.1863377,15.7278139 C1.94265947,15.5486989 1.79164764,15.2853196 1.76247492,14.9859478 C1.73244414,14.6869995 1.82940064,14.3999075 2.03532586,14.1771783 C2.3991271,13.7846499 3.00231638,13.7215574 3.44076556,14.0319385 L9.28818395,18.1727535 C9.59964586,18.3925186 10.0175024,18.3878608 10.3238162,18.1642847 L15.7164831,14.2119003 C16.2973638,13.7863436 17.015528,13.5521815 17.7379824,13.5521815 L26.5164032,13.5521815 C26.9351178,13.5521815 27.3521164,13.6881056 27.688461,13.9349709 L33.4586574,18.1642847 C33.7632552,18.3865905 34.1751056,18.3925186 34.4848515,18.1795285 L40.455825,14.0747059 C40.9225889,13.7528918 41.5669632,13.8426611 41.9264743,14.27711 C42.1143811,14.5036501 42.1993253,14.7882015 42.1667204,15.0791044 C42.1332577,15.369584 41.987394,15.628729 41.7540121,15.8086908 Z" id="Shape" fill="#000000" fill-rule="nonzero"></path>
            </g>
        </g>
    </g>
</svg>