<svg xmlns="http://www.w3.org/2000/svg" width="27" height="27" viewBox="0 0 27 27">
    <g fill="none" fill-rule="evenodd">
        <g fill="#323643" fill-rule="nonzero">
            <path d="M15.51 13.5L26.584 2.426c.555-.555.555-1.455 0-2.01-.555-.555-1.455-.555-2.01 0L13.5 11.49 2.426.416C1.87-.139.97-.139.416.416c-.555.555-.555 1.455 0 2.01L11.49 13.5.416 24.574c-.555.555-.555 1.455 0 2.01.555.555 1.455.555 2.01 0L13.5 15.51l11.074 11.074c.555.555 1.455.555 2.01 0 .555-.555.555-1.455 0-2.01L15.51 13.5z"/>
        </g>
    </g>
</svg>
