<?xml version="1.0" encoding="UTF-8"?>
<svg width="36px" height="36px" viewBox="0 0 36 36" version="1.1" xmlns="http://www.w3.org/2000/svg" xmlns:xlink="http://www.w3.org/1999/xlink">
    <title>F3011C92-5967-4B81-B627-33C6ECCD0087</title>
    <defs>
        <filter id="filter-1">
            <feColorMatrix in="SourceGraphic" type="matrix" values="0 0 0 0 0.196078 0 0 0 0 0.211765 0 0 0 0 0.262745 0 0 0 1.000000 0"></feColorMatrix>
        </filter>
    </defs>
    <g id="Symbols" stroke="none" stroke-width="1" fill="none" fill-rule="evenodd" opacity="0.4">
        <g id="noun_Target_3848911" filter="url(#filter-1)">
            <g>
                <path d="M13.3224362,19.7663122 C13.2698806,21.3484801 14.5054169,22.673834 16.0820837,22.7265729 C17.6587505,22.7793118 18.9794961,21.5394647 19.0320517,19.9572967 C19.072582,19.4343473 19.5185118,19.0375203 20.0407504,19.0596693 C20.2932975,19.0744172 20.5295988,19.1894676 20.697444,19.3794002 C20.8652892,19.5693329 20.9508626,19.818514 20.9352569,20.0718875 C20.766723,22.6212592 18.6280992,24.5857014 16.0826282,24.5292908 C13.5371571,24.4728802 11.4870405,22.4156105 11.430826,19.8612581 C11.3746115,17.3069057 13.3322235,15.16082 15.8727311,14.9916981 C16.3982867,14.9600548 16.8498965,15.3619363 16.8814298,15.8893256 C16.9129632,16.4167149 16.512479,16.8699004 15.9869234,16.9015437 C14.4762087,16.9834383 13.2997887,18.2482861 13.3224362,19.7663122 L13.3224362,19.7663122 Z M21.4110582,11.764059 C21.5328233,11.5413174 21.5611179,11.2790666 21.4896812,11.0353345 C21.4182445,10.7916023 21.2529662,10.5864834 21.0304171,10.465364 C19.5349162,9.67251689 17.8686216,9.25940773 16.177244,9.26214755 C10.3961324,9.26214755 5.70961551,13.9650298 5.70961551,19.7663122 C5.70961551,25.5675946 10.3961324,30.2704631 16.177244,30.2704631 C21.9583555,30.2704631 26.6448724,25.5675946 26.6448724,19.7663122 C26.6322269,18.101355 26.2210061,16.463833 25.4458531,14.9916981 C25.1935864,14.5275955 24.6141625,14.3565821 24.1516736,14.609729 C23.6891847,14.8628758 23.5187659,15.4443214 23.7710326,15.908424 C24.3955983,17.0986703 24.7283443,18.4212038 24.7416672,19.7663122 C24.7416672,24.5128159 20.9072443,28.3606175 16.177244,28.3606175 C11.4472436,28.3606175 7.61282068,24.5128159 7.61282068,19.7663122 C7.61282068,15.0198084 11.4472436,11.1720069 16.177244,11.1720069 C17.5498886,11.1700237 18.9022587,11.5043789 20.1168787,12.1460281 C20.3388458,12.2682181 20.6001848,12.2966114 20.8430695,12.2249255 C21.0859541,12.1532396 21.2903599,11.9873846 21.4110582,11.764059 Z M30.2419302,13.8839876 C29.7480612,14.0634686 29.4925069,14.6105533 29.6709686,15.1062888 C30.1916155,16.6042225 30.4554577,18.1798835 30.4512827,19.7663122 C30.4512827,27.6771518 24.0605779,34.0901544 16.177244,34.0901544 C8.29391001,34.0901544 1.90320517,27.6771518 1.90320517,19.7663122 C1.90320517,11.8554726 8.29391001,5.44246997 16.177244,5.44246997 C17.7581566,5.43828048 19.3283391,5.70304319 20.8210646,6.22550668 C21.1433429,6.35293723 21.5091694,6.29456848 21.7761689,6.0731168 C22.0431684,5.85166513 22.1691622,5.50211394 22.1051151,5.16050421 C22.041068,4.81889448 21.7970976,4.53919135 21.4681543,4.43025179 C19.7677862,3.83297218 17.9787734,3.52945787 16.177244,3.53259983 C7.24279882,3.53259983 0,10.800694 0,19.7663122 C0,28.7319304 7.24279882,36 16.177244,36 C25.1116891,36 32.3545123,28.7319304 32.3545123,19.7663122 C32.3576434,17.958497 32.0551844,16.1632422 31.4599815,14.4569413 C31.2811246,13.9613492 30.735942,13.7049033 30.2419302,13.8839876 Z M35.6850969,6.93214956 L30.2990263,12.3370127 C30.1272043,12.5225319 29.8852769,12.6265769 29.6329045,12.6234895 L29.4235519,12.6234895 L25.6171416,11.7449605 L16.9004619,20.4729551 C16.7277778,20.6575936 16.4866783,20.7623323 16.2343401,20.7623323 C15.9820019,20.7623323 15.7409024,20.6575936 15.5682183,20.4729551 C15.3842217,20.2996684 15.2798472,20.0577277 15.2798472,19.8045091 C15.2798472,19.5512905 15.3842217,19.3093498 15.5682183,19.1360631 L24.2658659,10.3889701 L23.3903915,6.56927889 C23.3152722,6.2531913 23.4089313,5.92062578 23.6378082,5.69074991 L29.0238789,0.285886783 C29.2646049,0.0356525708 29.6237683,-0.0599681589 29.9564494,0.0376068518 C30.2903605,0.133517807 30.5456774,0.404365982 30.6225712,0.744249734 L31.2506289,3.45623052 L31.5932058,3.11245831 C31.8311882,2.87364557 32.1780551,2.78037857 32.5031451,2.8677901 C32.8282352,2.95520164 33.0821594,3.2100118 33.169267,3.53623607 C33.2563746,3.86246035 33.1634319,4.21053751 32.9254495,4.44935025 L32.5828725,4.79312246 L35.2854239,5.42337152 C35.6241259,5.50053359 35.8940323,5.75674132 35.9896098,6.09181749 C36.0366517,6.40562036 35.9220169,6.72196585 35.6850969,6.93214956 L35.6850969,6.93214956 Z M25.8074621,8.84199519 L29.6138725,5.02230394 L29.1190391,2.82598147 L25.3126288,6.64567272 L25.8074621,8.84199519 Z M33.134802,6.93214956 L30.9461161,6.4355897 L27.1397057,10.255281 L29.3283917,10.7709393 L33.134802,6.93214956 Z" id="Shape" fill="#000000" fill-rule="nonzero"></path>
            </g>
        </g>
    </g>
</svg>