<?xml version="1.0" encoding="UTF-8"?>
<svg width="41.618684px" height="41.618684px" viewBox="0 0 41.618684 41.618684" version="1.1" xmlns="http://www.w3.org/2000/svg" xmlns:xlink="http://www.w3.org/1999/xlink">
    <title>B0AA1DCB-4580-42CF-A6E1-39DDE95495B6</title>
    <defs>
        <filter id="filter-1">
            <feColorMatrix in="SourceGraphic" type="matrix" values="0 0 0 0 1.000000 0 0 0 0 1.000000 0 0 0 0 1.000000 0 0 0 1.000000 0"></feColorMatrix>
        </filter>
    </defs>
    <g id="Symbols" stroke="none" stroke-width="1" fill="none" fill-rule="evenodd">
        <g id="noun_Target_3848911" filter="url(#filter-1)">
            <g transform="translate(0.000000, -0.000000)">
                <path d="M15.4017295,22.8513306 C15.3409714,24.6804347 16.7693434,26.2126425 18.5920878,26.2736127 C20.4148321,26.3345828 21.9417126,24.9012271 22.0024707,23.072123 C22.0493267,22.4675544 22.5648548,22.0087929 23.1686017,22.0343987 C23.4605649,22.0514484 23.7337468,22.1844552 23.9277884,22.4040315 C24.12183,22.6236078 24.2207592,22.9116798 24.2027178,23.2045984 C24.0078801,26.1518622 21.5354715,28.4229039 18.5927172,28.357689 C15.6499629,28.2924741 13.2798753,25.9141169 13.2148871,22.9610951 C13.149899,20.0080733 15.4130443,17.5270383 18.3500606,17.3315207 C18.957642,17.2949387 19.4797366,17.7595436 19.5161915,18.369245 C19.5526464,18.9789463 19.0896569,19.5028626 18.4820754,19.5394447 C16.7355765,19.6341209 15.3755473,21.0963793 15.4017295,22.8513306 L15.4017295,22.8513306 Z M24.7527796,13.6001293 C24.8935491,13.3426234 24.9262598,13.0394419 24.8436737,12.7576694 C24.7610875,12.4758969 24.5700135,12.2387641 24.3127302,12.098741 C22.5838196,11.1821507 20.6574588,10.7045657 18.7021001,10.7077331 C12.0187041,10.7077331 6.60074122,16.1446156 6.60074122,22.8513306 C6.60074122,29.5580455 12.0187041,34.9949122 18.7021001,34.9949122 C25.3854961,34.9949122 30.803459,29.5580455 30.803459,22.8513306 C30.7888399,20.9265159 30.3134381,19.0334184 29.4173034,17.3315207 C29.1256643,16.7949835 28.455807,16.5972793 27.9211354,16.889936 C27.3864637,17.1825926 27.1894469,17.854787 27.4810859,18.3913242 C28.2031305,19.7673377 28.5878096,21.296285 28.603212,22.8513306 C28.603212,28.3386428 24.1703332,32.7869883 18.7021001,32.7869883 C13.2338671,32.7869883 8.80098829,28.3386428 8.80098829,22.8513306 C8.80098829,17.3640183 13.2338671,12.9156729 18.7021001,12.9156729 C20.2889797,12.9133802 21.8524203,13.2999197 23.2566116,14.0417141 C23.5132221,14.1829748 23.8153495,14.2157996 24.0961423,14.1329253 C24.3769351,14.050051 24.6132434,13.8583103 24.7527796,13.6001293 Z M34.961926,16.0509249 C34.3909767,16.2584182 34.0955368,16.890889 34.3018519,17.4639962 C34.9037585,19.1957192 35.2087797,21.0173008 35.2039532,22.8513306 C35.2039532,31.996851 27.8158219,39.4107601 18.7021001,39.4107601 C9.58837834,39.4107601 2.20024707,31.996851 2.20024707,22.8513306 C2.20024707,13.7058102 9.58837834,6.29190106 18.7021001,6.29190106 C20.5297531,6.2870577 22.3450011,6.59314313 24.070703,7.19714988 C24.4432808,7.34446909 24.8662035,7.27699046 25.1748748,7.02097581 C25.4835461,6.76496117 25.6292044,6.36085393 25.5551611,5.96592762 C25.4811179,5.5710013 25.19907,5.24764363 24.818787,5.12170138 C22.8530347,4.43120161 20.7848025,4.08031644 18.7021001,4.08394878 C8.37321544,4.08394878 0,12.4864075 0,22.8513306 C0,33.2162537 8.37321544,41.618684 18.7021001,41.618684 C29.0309848,41.618684 37.4042285,33.2162537 37.4042285,22.8513306 C37.4078482,20.7613615 37.058183,18.6859131 36.3700841,16.713302 C36.1633122,16.1403606 35.5330405,15.84389 34.961926,16.0509249 Z M41.2546326,8.01408173 L35.0279334,14.2625065 C34.8292944,14.4769805 34.5496082,14.5972643 34.2578469,14.5936951 L34.0158198,14.5936951 L29.6153256,13.5780501 L19.538194,23.6682624 C19.3385583,23.8817184 19.0598293,24.0028041 18.7681075,24.0028041 C18.4763858,24.0028041 18.1976568,23.8817184 17.9980211,23.6682624 C17.7853073,23.4679301 17.6646426,23.1882287 17.6646426,22.8954891 C17.6646426,22.6027495 17.7853073,22.323048 17.9980211,22.1227157 L28.0531502,12.0104241 L27.0410365,7.59457618 C26.954193,7.22915535 27.0624699,6.84468482 27.3270687,6.57893117 L33.5537679,0.330506436 C33.8320651,0.04121703 34.2472848,-0.0693276627 34.6318889,0.0434763245 C35.0179151,0.15435654 35.3130805,0.467477224 35.4019754,0.860408181 L36.1280569,3.99566017 L36.5241014,3.59823386 C36.7992268,3.32214852 37.2002308,3.21432493 37.5760591,3.31537917 C37.9518874,3.41643342 38.2454427,3.71101297 38.3461456,4.08815255 C38.4468485,4.46529213 38.3393998,4.86769528 38.0642744,5.14378062 L37.6682299,5.54120692 L40.7925807,6.26982182 C41.1841455,6.35902693 41.4961775,6.65522217 41.6066722,7.0425952 C41.6610561,7.40537472 41.5285298,7.77109369 41.2546326,8.01408173 L41.2546326,8.01408173 Z M29.8353503,10.2220057 L34.2358445,5.8061578 L33.6637802,3.26704527 L29.2632861,7.68289314 L29.8353503,10.2220057 Z M38.3063015,8.01408173 L35.7760174,7.44002151 L31.3755233,11.8558694 L33.9058074,12.4520088 L38.3063015,8.01408173 Z" id="Shape" fill="#000000" fill-rule="nonzero"></path>
            </g>
        </g>
    </g>
</svg>