<svg xmlns="http://www.w3.org/2000/svg" width="23" height="20.346" viewBox="0 0 23 20.346">
    <g fill="none" fill-rule="evenodd" opacity=".5">
        <g fill="#323643" fill-rule="nonzero">
            <g>
                <path stroke="#323643" stroke-opacity=".51" stroke-width=".2" d="M7.906 10.173c-2.774 0-5.031-2.282-5.031-5.086C2.875 2.282 5.132 0 7.906 0c2.775 0 5.032 2.282 5.032 5.087 0 2.804-2.257 5.086-5.032 5.086zm0-8.72c-1.981 0-3.593 1.63-3.593 3.634 0 2.003 1.612 3.633 3.593 3.633 1.982 0 3.594-1.63 3.594-3.633 0-2.004-1.612-3.634-3.594-3.634z"/>
                <path d="M17.969 13.08c-1.982 0-3.594-1.63-3.594-3.634 0-2.003 1.612-3.633 3.594-3.633 1.981 0 3.593 1.63 3.593 3.633 0 2.004-1.612 3.634-3.593 3.634zm0-5.814c-1.19 0-2.157.978-2.157 2.18 0 1.203.968 2.18 2.157 2.18s2.156-.977 2.156-2.18c0-1.202-.967-2.18-2.156-2.18z"/>
                <path stroke="#323643" stroke-opacity=".51" stroke-width=".2" d="M22.281 20.346H17.97c-.397 0-.719-.325-.719-.726 0-.402.322-.727.719-.727h3.521c-.334-1.657-1.786-2.907-3.521-2.907-.254 0-.514.03-.772.087-.386.088-.771-.162-.857-.554-.085-.392.16-.78.548-.865.36-.08.724-.121 1.08-.121 2.775 0 5.032 2.282 5.032 5.087 0 .4-.322.726-.719.726zM12.219 20.346H.719c-.397 0-.719-.325-.719-.726 0-4.408 3.547-7.994 7.906-7.994 3.14 0 5.984 1.883 7.244 4.796.16.368-.007.796-.37.957-.364.16-.788-.007-.947-.375-1.031-2.384-3.358-3.924-5.927-3.924-3.324 0-6.07 2.548-6.429 5.813h10.742c.397 0 .719.325.719.727 0 .4-.322.726-.72.726z"/>
            </g>
        </g>
    </g>
</svg>
