<svg xmlns="http://www.w3.org/2000/svg" width="18" height="17.608" viewBox="0 0 18 17.608">
    <g fill="none" fill-rule="evenodd">
        <g>
            <path stroke="#323643" stroke-width="2" d="M5.922 1c1.37 0 2.607.538 3.502 1.415.885.868 1.432 2.068 1.434 3.398-.033 2.157-1.006 3.99-2.266 5.86-.382.568-.781 1.141-1.185 1.721-.53.763-1.07 1.538-1.59 2.324-.495-.788-1.007-1.564-1.512-2.328-.374-.567-.744-1.127-1.099-1.68-1.232-1.921-2.19-3.804-2.192-5.868.026-1.367.573-2.575 1.451-3.442C3.351 1.526 4.571 1 5.922 1z"/>
            <path fill="#323643" d="M17.983 5.82c0 .06.005.12.017.177-.05 2.175-1.075 4.189-2.454 6.236-1.167 1.73-2.486 3.518-3.624 5.375-1.08-1.849-2.326-3.633-3.433-5.359-1.347-2.1-2.35-4.166-2.35-6.416 0-.048-.006-.098-.014-.146C6.198 2.526 8.806 0 12.047 0c3.289 0 5.936 2.596 5.936 5.82z"/>
        </g>
    </g>
</svg>
