<svg xmlns="http://www.w3.org/2000/svg" width="84" height="85" viewBox="0 0 84 85">
    <g fill="none" fill-rule="evenodd">
        <g>
            <g transform="translate(-587 -768) translate(587 768.912)">
                <circle cx="42" cy="42" r="41.4" fill="#FFF" stroke="#323643" stroke-opacity=".25" stroke-width="1.2"/>
                <path fill="#323643" fill-opacity=".5" fill-rule="nonzero" d="M39.597 54.629h4.107c.265 0 .441-.177.441-.442v-6.358c0-.265-.176-.442-.441-.442h-4.107c-.265 0-.441.177-.441.442v6.358c0 .22.22.442.441.442zm.442-6.359h3.223v5.475H40.04V48.27zM46.132 54.629h4.107c.265 0 .442-.177.442-.442v-6.358c0-.265-.177-.442-.442-.442h-4.107c-.264 0-.441.177-.441.442v6.358c0 .22.22.442.441.442zm.442-6.359h3.223v5.475h-3.223V48.27zM39.597 42.795h4.107c.265 0 .441-.177.441-.442v-6.358c0-.265-.176-.442-.441-.442h-4.107c-.265 0-.441.177-.441.442v6.358c0 .265.22.442.441.442zm.442-6.359h3.223v5.476H40.04v-5.476zM33.15 42.795h4.107c.265 0 .442-.177.442-.442v-6.358c0-.265-.177-.442-.442-.442h-4.106c-.265 0-.442.177-.442.442v6.358c0 .265.177.442.442.442zm.442-6.359h3.224v5.476h-3.224v-5.476zM46.132 42.795h4.107c.265 0 .442-.177.442-.442v-6.358c0-.265-.177-.442-.442-.442h-4.107c-.264 0-.441.177-.441.442v6.358c0 .265.22.442.441.442zm.442-6.359h3.223v5.476h-3.223v-5.476z"/>
                <path fill="#323643" fill-opacity=".5" fill-rule="nonzero" d="M29.662 31.005h.53v27.553c0 .265.177.442.442.442H53.02c.265 0 .441-.177.441-.442V31.005h.53c.265 0 .442-.176.442-.441v-2.65c0-.265-.177-.441-.442-.441H38.714V25.53c0-.265-.176-.442-.441-.442h-2.385c-.265 0-.441.177-.441.442v1.943h-.663V25.53c0-.265-.176-.442-.441-.442h-2.385c-.264 0-.441.177-.441.442v1.943h-1.855c-.265 0-.441.176-.441.441v2.65c0 .22.176.441.441.441zm7.154 27.068h-3.224V48.27h3.224v9.803zm15.72 0H37.698V47.829c0-.265-.177-.442-.442-.442h-4.106c-.265 0-.442.177-.442.442v10.244h-1.634V31.005H52.58v27.068h-.044zM36.33 25.927h1.501v1.502H36.33v-1.502zm-3.93 0h1.501v1.502H32.4v-1.502zm-2.296 2.385h23.402v1.766H30.104v-1.766z"/>
            </g>
        </g>
    </g>
</svg>
