<svg xmlns="http://www.w3.org/2000/svg" width="97" height="98" viewBox="0 0 97 98">
    <g fill="none" fill-rule="evenodd">
        <g>
            <g>
                <g>
                    <g transform="translate(-660 -385) translate(401 308) translate(98 77) translate(161)">
                        <path fill="#E3E4FE" fill-rule="nonzero" d="M89.327 86.261C93.748 85.013 97 80.934 97 76.104c0-1.488-.442-4.185-4.26-10.396-1.96-3.189-3.893-5.804-3.974-5.914l-2.28-3.077-2.281 3.077c-.081.11-2.014 2.725-3.975 5.914-.637 1.037-1.178 1.973-1.64 2.825V17c0-2.761-2.24-5-5-5H23.41c-2.76 0-5 2.239-5 5v51.532c-.462-.851-1.003-1.788-1.64-2.824-1.96-3.19-3.894-5.804-3.975-5.914l-2.28-3.077-2.28 3.077c-.082.11-2.015 2.725-3.975 5.914C.442 71.918 0 74.616 0 76.104c0 4.83 3.252 8.91 7.673 10.157v6.035H0V98h97v-5.704h-7.673v-6.035zM18 92h-5v-5.881c1.962-.545 3.69-1.646 5-3.119v9zm19-7h-6v-8h6v8zm0-18h-6v-8h6v8zm0-17h-6v-8h6v8zm0-17h-6v-8h6v8zm15 52h-6v-8h6v8zm0-18h-6v-8h6v8zm0-17h-6v-8h6v8zm0-17h-6v-8h6v8zm14 52h-6v-8h6v8zm0-18h-6v-8h6v8zm18 25h-5v-9c1.31 1.473 3.038 2.574 5 3.119V92z"/>
                        <circle cx="77" cy="20" r="20" fill="#FFF"/>
                        <g fill="#E3E4FE" fill-rule="nonzero">
                            <path d="M29.832 5.11c-5.9-5.891-15.14-6.794-22.07-2.158-6.93 4.637-9.62 13.523-6.427 21.224 3.194 7.702 11.383 12.076 19.56 10.448 8.178-1.629 14.067-8.806 14.067-17.144.013-4.644-1.835-9.099-5.13-12.37zm-1.37 23.37c-5.208 5.246-13.397 6.084-19.56 2.002C2.74 26.399.317 18.532 3.116 11.69 5.915 4.849 13.156.935 20.414 2.343c7.257 1.408 12.51 7.744 12.548 15.137.033 4.121-1.588 8.084-4.5 11z" transform="translate(60.538 2)"/>
                            <path d="M22.062 12.88c-.188-.19-.444-.296-.71-.296-.267 0-.522.107-.71.296l-3.18 3.19-3.18-3.19c-.254-.254-.624-.353-.97-.26-.347.093-.617.363-.71.71-.093.346.006.716.26.97l3.19 3.18-3.19 3.18c-.19.188-.296.443-.296.71 0 .266.106.522.296.71.189.187.444.291.71.29.266.001.521-.103.71-.29l3.18-3.19 3.18 3.19c.189.187.444.291.71.29.266.001.521-.103.71-.29.19-.188.296-.444.296-.71 0-.267-.107-.522-.296-.71l-3.19-3.18 3.19-3.18c.19-.188.296-.444.296-.71 0-.267-.107-.522-.296-.71z" transform="translate(60.538 2)"/>
                        </g>
                    </g>
                </g>
            </g>
        </g>
    </g>
</svg>
