<svg xmlns="http://www.w3.org/2000/svg" width="84" height="84" viewBox="0 0 84 84">
    <defs>
        <filter id="m5zhl509ea">
            <feColorMatrix in="SourceGraphic" values="0 0 0 0 0.196078 0 0 0 0 0.211765 0 0 0 0 0.262745 0 0 0 0.500000 0"/>
        </filter>
    </defs>
    <g fill="none" fill-rule="evenodd">
        <g>
            <circle cx="42" cy="42" r="41.4" fill="#FFF" stroke="#323643" stroke-opacity=".25" stroke-width="1.2"/>
            <g filter="url(#m5zhl509ea)">
                <g>
                    <g fill="#000" fill-rule="nonzero">
                        <path d="M7.596.13c-.19 0-.362.173-.362.363v9.042H.362c-.19 0-.362.173-.362.362v23.149c0 .19.172.362.362.362h34c.19 0 .361-.173.361-.362V9.896c0-.188-.172-.36-.361-.36h-6.873V.492c0-.19-.172-.362-.361-.362H7.596zm.361.724h18.809v31.83h-5.064v-6.872c0-.19-.172-.362-.362-.362h-7.957c-.19 0-.362.172-.362.362v6.872H7.957V.854zm1.809 1.447c-.19 0-.362.172-.362.362V6.28c0 .19.173.362.362.362h3.617c.19 0 .362-.173.362-.362V2.663c0-.19-.173-.362-.362-.362H9.766zm5.787 0c-.19 0-.362.172-.362.362V6.28c0 .19.173.362.362.362h3.617c.19 0 .362-.173.362-.362V2.663c0-.19-.172-.362-.362-.362h-3.617zm5.787 0c-.189 0-.361.172-.361.362V6.28c0 .19.172.362.361.362h3.617c.19 0 .362-.173.362-.362V2.663c0-.19-.172-.362-.362-.362H21.34zm-11.212.724h2.893v2.893h-2.893V3.025zm5.787 0h2.894v2.893h-2.894V3.025zm5.787 0h2.894v2.893h-2.894V3.025zM9.766 8.088c-.19 0-.362.173-.362.362v3.617c0 .19.173.362.362.362h3.617c.19 0 .362-.173.362-.362V8.45c0-.19-.173-.362-.362-.362H9.766zm5.787 0c-.19 0-.362.173-.362.362v3.617c0 .19.173.362.362.362h3.617c.19 0 .362-.173.362-.362V8.45c0-.19-.172-.362-.362-.362h-3.617zm5.787 0c-.189 0-.361.173-.361.362v3.617c0 .19.172.362.361.362h3.617c.19 0 .362-.173.362-.362V8.45c0-.19-.172-.362-.362-.362H21.34zm-11.212.724h2.893v2.893h-2.893V8.812zm5.787 0h2.894v2.893h-2.894V8.812zm5.787 0h2.894v2.893h-2.894V8.812zM.723 10.259h6.511v22.425H.724V10.26zm26.766 0H34v22.425h-6.51V10.26zM2.532 11.705c-.19 0-.362.173-.362.362v2.894c0 .19.173.361.362.361h2.894c.189 0 .361-.172.361-.361v-2.894c0-.19-.172-.362-.361-.362H2.532zm26.766 0c-.19 0-.362.173-.362.362v2.894c0 .19.172.361.362.361h2.893c.19 0 .362-.172.362-.361v-2.894c0-.19-.172-.362-.362-.362h-2.893zm-26.404.724h2.17v2.17h-2.17v-2.17zm26.766 0h2.17v2.17h-2.17v-2.17zM9.766 13.876c-.19 0-.362.172-.362.361v3.617c0 .19.173.362.362.362h3.617c.19 0 .362-.172.362-.362v-3.617c0-.19-.173-.361-.362-.361H9.766zm5.787 0c-.19 0-.362.172-.362.361v3.617c0 .19.173.362.362.362h3.617c.19 0 .362-.172.362-.362v-3.617c0-.19-.172-.361-.362-.361h-3.617zm5.787 0c-.189 0-.361.172-.361.361v3.617c0 .19.172.362.361.362h3.617c.19 0 .362-.172.362-.362v-3.617c0-.19-.172-.361-.362-.361H21.34zm-11.212.723h2.893v2.894h-2.893v-2.894zm5.787 0h2.894v2.894h-2.894v-2.894zm5.787 0h2.894v2.894h-2.894v-2.894zm-19.17 2.17c-.19 0-.362.173-.362.362v2.894c0 .189.173.361.362.361h2.894c.189 0 .361-.172.361-.361V17.13c0-.19-.172-.362-.361-.362H2.532zm26.766 0c-.19 0-.362.173-.362.362v2.894c0 .189.172.361.362.361h2.893c.19 0 .362-.172.362-.361V17.13c0-.19-.172-.362-.362-.362h-2.893zm-26.404.724h2.17v2.17h-2.17v-2.17zm26.766 0h2.17v2.17h-2.17v-2.17zm-19.894 2.17c-.19 0-.362.172-.362.362v3.617c0 .189.173.361.362.361h3.617c.19 0 .362-.172.362-.361v-3.617c0-.19-.173-.362-.362-.362H9.766zm5.787 0c-.19 0-.362.172-.362.362v3.617c0 .189.173.361.362.361h3.617c.19 0 .362-.172.362-.361v-3.617c0-.19-.172-.362-.362-.362h-3.617zm5.787 0c-.189 0-.361.172-.361.362v3.617c0 .189.172.361.361.361h3.617c.19 0 .362-.172.362-.361v-3.617c0-.19-.172-.362-.362-.362H21.34zm-11.212.723h2.893v2.894h-2.893v-2.894zm5.787 0h2.894v2.894h-2.894v-2.894zm5.787 0h2.894v2.894h-2.894v-2.894zm-19.17 1.447c-.19 0-.362.172-.362.362v2.893c0 .19.173.362.362.362h2.894c.189 0 .361-.172.361-.362v-2.893c0-.19-.172-.362-.361-.362H2.532zm26.766 0c-.19 0-.362.172-.362.362v2.893c0 .19.172.362.362.362h2.893c.19 0 .362-.172.362-.362v-2.893c0-.19-.172-.362-.362-.362h-2.893zm-26.404.723h2.17v2.17h-2.17v-2.17zm26.766 0h2.17v2.17h-2.17v-2.17zm-15.915 3.617H17v6.511h-3.255v-6.51zm3.978 0h3.256v6.511h-3.256v-6.51zm-15.191.724c-.19 0-.362.172-.362.362v2.893c0 .19.173.362.362.362h2.894c.189 0 .361-.172.361-.362V27.26c0-.19-.172-.362-.361-.362H2.532zm26.766 0c-.19 0-.362.172-.362.362v2.893c0 .19.172.362.362.362h2.893c.19 0 .362-.172.362-.362V27.26c0-.19-.172-.362-.362-.362h-2.893zm-26.404.723h2.17v2.17h-2.17v-2.17zm26.766 0h2.17v2.17h-2.17v-2.17z" transform="translate(25 25) translate(0 .23)"/>
                    </g>
                </g>
            </g>
        </g>
    </g>
</svg>
