<svg xmlns="http://www.w3.org/2000/svg" width="26.526" height="18" viewBox="0 0 26.526 18">
    <g fill="none" fill-rule="evenodd" opacity=".5">
        <g fill="#323643">
            <path d="M3.015 11.448c.138.026.167.042.209.057 2.378.951 4.75 1.922 7.136 2.854.913.35 2.039.022 2.608-.827l2.379-3.568c.142-.197.205-.234.324-.3.511-.288 1.27.028 1.393.64.048.243-.01.497-.14.71-.798 1.197-1.592 2.395-2.393 3.589-1.035 1.526-3.122 2.21-4.896 1.507l-6.946-2.778H.977s-.162-.004-.293-.047c-.448-.145-.74-.658-.628-1.122.087-.362.404-.656.773-.715.065-.01.082-.009.148-.011h1.895s.066.002.143.01zm20.745-.01c.729.053 1.186 1.068.616 1.624-.175.17-.416.264-.662.27h-1.671l-3.59 1.794s-.45.173-.798.023c-.63-.271-.772-1.312-.09-1.696l.041-.021 3.79-1.895c.122-.058.145-.06.205-.075.06-.014.083-.022.218-.025h1.941zM15.408.068c1.2.008 2.396.177 3.555.505l5.01 1.426c.394.13.671.493.688.911v5.685c-.019.451-.347.86-.791.934-.488.081-1.008-.28-1.09-.778-.012-.07-.01-.087-.014-.156v-4.97c-1.456-.414-2.911-.832-4.369-1.243-.97-.27-1.983-.412-2.997-.419-.739-.001-1.497-.077-2.18.086-.517.124-1.002.384-1.394.74-1.188 1.096-2.37 2.2-3.556 3.299-.294.273-.294.805.024 1.075.238.2.532.34.822.246l4.825-1.608.075-.021c.068-.014.085-.02.154-.025.645-.048 1.212.716.934 1.333-.085.19-.236.351-.42.45-.062.032-.08.036-.144.06-1.613.538-3.224 1.082-4.839 1.613-.822.264-1.755.095-2.434-.441-.487-.392-.883-.902-1.038-1.495-.235-.902.055-1.916.738-2.563 1.19-1.11 2.383-2.216 3.579-3.32.912-.83 2.127-1.313 3.375-1.324h1.487zm-7.75.003c.626.066 1.056.813.772 1.373-.104.206-.286.37-.5.454-.044.017-.056.02-.101.033l-5.905 1.57v5.094s-.016.274-.118.458c-.303.548-1.21.642-1.602.09-.113-.16-.169-.354-.174-.548V2.773c.004-.168.02-.215.05-.305.089-.26.296-.478.555-.578.043-.017.054-.02.099-.032L7.342.1c.188-.044.1-.04.316-.029z" transform="translate(.918 .3)"/>
        </g>
    </g>
</svg>
