<svg xmlns="http://www.w3.org/2000/svg" xmlns:xlink="http://www.w3.org/1999/xlink" width="56" height="58" viewBox="0 0 56 58">
  <defs>
    <path id="disabled-b" d="M28.6935235,13.2401955 C28.2727756,12.9831227 27.7543823,12.9831227 27.3336343,13.2401955 L13.7350748,21.8751316 C13.3116676,22.1270155 13.0472355,22.5987699 13.0415845,23.1128275 L13.0415845,43.2609825 C13.0415845,44.055771 13.6503934,44.7000799 14.4013906,44.7000799 L41.5985928,44.7000799 C42.34959,44.7000799 42.958482,44.055771 42.958482,43.2609825 L42.958482,23.1128275 C42.958482,22.6046625 42.7051025,22.1343152 42.2920831,21.8751316 L28.6935235,13.2401955 Z"/>
    <filter id="disabled-a" width="193.6%" height="188.5%" x="-46.8%" y="-31.6%" filterUnits="objectBoundingBox">
      <feOffset dy="4" in="SourceAlpha" result="shadowOffsetOuter1"/>
      <feGaussianBlur in="shadowOffsetOuter1" result="shadowBlurOuter1" stdDeviation="4"/>
      <feColorMatrix in="shadowBlurOuter1" values="0 0 0 0 0.0562383776   0 0 0 0 0.121895047   0 0 0 0 0.209437274  0 0 0 0.16 0"/>
    </filter>
    <linearGradient id="disabled-c" x1="100%" x2="0%" y1="50%" y2="50%">
      <stop offset="0%" stop-color="#A64EFE"/>
      <stop offset="100%" stop-color="#4346F7"/>
    </linearGradient>
  </defs>
  <g fill="none" fill-rule="evenodd">
    <use fill="#000" filter="url(#disabled-a)" xlink:href="#disabled-b"/>
    <use fill="#FFF" xlink:href="#disabled-b"/>
    <path fill="url(#disabled-c)" fill-rule="nonzero" d="M32.6311908,27.4890925 L27.7998587,27.4890925 L28.6098444,20.4649637 C28.627734,20.2714629 28.5264636,20.0892549 28.3648922,20.0242403 C28.2033208,19.9592256 28.0235429,20.0283426 27.9300465,20.19142 L22.0546303,31.8742678 C21.9846698,32.003416 21.9817055,32.1654044 22.0468809,32.2977382 C22.1120563,32.4300721 22.235183,32.5120644 22.3687591,32.5120829 L27.1278978,32.5120829 L26.4859945,39.5467809 C26.4730161,39.7395442 26.5773515,39.9175743 26.7390061,39.9785011 C26.9006607,40.0394279 27.0781011,39.9675976 27.1692961,39.8043138 L32.9476246,28.1227218 C33.0158407,27.9934019 33.0175311,27.8324425 32.9520502,27.7013139 C32.8865699,27.5701592 32.764011,27.4890969 32.6311908,27.4890925 Z" opacity=".15"/>
  </g>
</svg>
