<svg xmlns="http://www.w3.org/2000/svg" width="18" height="14" viewBox="0 0 18 14">
    <defs>
        <filter id="1xj5pr9lia">
            <feColorMatrix in="SourceGraphic" values="0 0 0 0 0.196078 0 0 0 0 0.211765 0 0 0 0 0.262745 0 0 0 1.000000 0"/>
        </filter>
    </defs>
    <g fill="none" fill-rule="evenodd">
        <g filter="url(#1xj5pr9lia)">
            <g fill="#000" fill-rule="nonzero">
                <path d="M15.063 1.863h-1.497c-.113 0-.227-.055-.284-.148l-.455-.682C12.411.387 11.691 0 10.914 0H7.067c-.776 0-1.496.387-1.913 1.033l-.455.682c-.057.093-.17.148-.284.148H2.918C1.308 1.863 0 3.136 0 4.703v6.475C-.019 12.728 1.29 14 2.9 14h12.182C16.692 14 18 12.727 18 11.16V4.684c-.019-1.55-1.326-2.822-2.937-2.822zm1.573 9.296c0 .83-.701 1.513-1.554 1.513H2.9c-.853 0-1.554-.683-1.554-1.513V4.685c0-.83.701-1.512 1.554-1.512h1.497c.587 0 1.118-.296 1.44-.775l.455-.683c.17-.258.454-.424.776-.424h3.847c.322 0 .606.148.777.424l.454.683c.322.48.853.775 1.44.775h1.497c.853 0 1.554.682 1.554 1.512v6.474z"/>
                <path d="M8.981 4.003c-2.046 0-3.713 1.623-3.713 3.615 0 1.992 1.667 3.615 3.713 3.615 2.046 0 3.714-1.623 3.714-3.615 0-1.992-1.668-3.615-3.714-3.615zm0 5.92c-1.307 0-2.368-1.032-2.368-2.305 0-1.254 1.06-2.287 2.368-2.287 1.308 0 2.369 1.033 2.369 2.305 0 1.255-1.061 2.288-2.369 2.288z"/>
            </g>
        </g>
    </g>
</svg>
