<svg xmlns="http://www.w3.org/2000/svg" xmlns:xlink="http://www.w3.org/1999/xlink" width="84" height="86" viewBox="0 0 84 86">
  <defs>
    <path id="enabled-b" d="M43.3408122,13.4503666 C42.5273662,12.9683551 41.5251391,12.9683551 40.7116931,13.4503666 L14.4211446,29.6408718 C13.6025573,30.113154 13.0913219,30.9976936 13.0803967,31.9615516 L13.0803967,69.7393423 C13.0803967,71.2295706 14.2574271,72.4376499 15.7093551,72.4376499 L68.2906127,72.4376499 C69.7425407,72.4376499 70.9197319,71.2295706 70.9197319,69.7393423 L70.9197319,31.9615516 C70.9197319,31.0087421 70.4298648,30.1268409 69.6313607,29.6408718 L43.3408122,13.4503666 Z"/>
    <filter id="enabled-a" width="148.4%" height="147.2%" x="-24.2%" y="-16.8%" filterUnits="objectBoundingBox">
      <feOffset dy="4" in="SourceAlpha" result="shadowOffsetOuter1"/>
      <feGaussianBlur in="shadowOffsetOuter1" result="shadowBlurOuter1" stdDeviation="4"/>
      <feColorMatrix in="shadowBlurOuter1" values="0 0 0 0 0.0562383776   0 0 0 0 0.121895047   0 0 0 0 0.209437274  0 0 0 0.16 0"/>
    </filter>
    <linearGradient id="enabled-c" x1="100%" x2="0%" y1="50%" y2="50%">
      <stop offset="0%" stop-color="#A64EFE"/>
      <stop offset="100%" stop-color="#4346F7"/>
    </linearGradient>
  </defs>
  <g fill="none" fill-rule="evenodd">
    <use fill="#000" filter="url(#enabled-a)" xlink:href="#enabled-b"/>
    <use fill="#FFF" xlink:href="#enabled-b"/>
    <path fill="url(#enabled-c)" fill-rule="nonzero" d="M53.2288534,39.7270943 L43.1269772,39.7270943 L44.8205837,24.9764238 C44.8579893,24.5700721 44.6462421,24.1874354 44.308411,24.0509046 C43.9705799,23.9143738 43.5946805,24.0595194 43.3991881,24.401982 L31.114227,48.9359623 C30.967946,49.2071737 30.9617478,49.5473492 31.0980237,49.8252502 C31.2342995,50.1031513 31.4917462,50.2753352 31.7710417,50.2753741 L41.7219682,50.2753741 L40.3798067,65.04824 C40.3526701,65.4530427 40.5708259,65.826906 40.908831,65.9548523 C41.2468361,66.0827986 41.6178477,65.931955 41.8085281,65.5890591 L53.8904878,41.0577158 C54.0331214,40.7861439 54.0366559,40.4481293 53.8997414,40.1727591 C53.7628279,39.8973344 53.5065685,39.7271036 53.2288534,39.7270943 Z"/>
  </g>
</svg>
