<svg xmlns="http://www.w3.org/2000/svg" width="43.432" height="42.258" viewBox="0 0 43.432 42.258">
    <defs>
        <filter id="qvhaltqeea">
            <feColorMatrix in="SourceGraphic" values="0 0 0 0 1.000000 0 0 0 0 1.000000 0 0 0 0 1.000000 0 0 0 1.000000 0"/>
        </filter>
    </defs>
    <g fill="none" fill-rule="evenodd">
        <g filter="url(#qvhaltqeea)">
            <g>
                <path fill="#000" fill-rule="nonzero" d="M27.145 34.166c0-.45-.181-.899-.543-1.259-.362-.36-.814-.54-1.267-.54h-3.619v-3.595h5.429v-1.799h-5.429v-1.798h5.429v-1.798h-5.429v-1.798h-1.81v1.798H7.24v-1.798h-1.81v1.798H0v1.798h5.429v1.798H0v1.799h5.429v3.596h-3.62c-.452 0-.904.18-1.266.54-.362.36-.543.809-.543 1.258v2.697c0 .54.362.9.905.9h2.714v2.697H0v1.798h25.335V40.46h-1.81v-2.697h2.715c.543 0 .905-.36.905-.9v-2.697zm-19.906-8.99h12.667v1.797H7.24v-1.798zm0 3.596h12.667v3.596H7.24v-3.596zm-1.81 8.99h1.81v2.698h-1.81v-2.697zm12.668 0v2.698H9.048v-2.697h9.049zm3.619 2.698h-1.81v-2.697h1.81v2.697zM1.81 35.964v-1.798h23.525v1.798H1.81zm28.954 4.496h12.668v1.798H27.145V40.46h1.81V22.837l-3.348-3.326 1.267-1.26 2.08 2.069v-8.632h1.81v5.935l2.986-2.968 1.267 1.26-4.253 4.225v3.237h4.524c3.53 0 6.334-2.787 6.334-6.294 0-2.967-2.08-5.574-4.976-6.114-.272-.09-.453-.18-.543-.45-.09-.18-.181-.449-.09-.719.09-.54.18-1.169.18-1.708 0-3.507-2.805-6.294-6.334-6.294-3.528 0-6.333 2.787-6.333 6.294 0 .54.09 1.169.271 1.708.09.27 0 .54-.09.72-.09.18-.362.36-.543.45-2.986.539-5.067 3.146-5.067 6.113 0 .81.18 1.618.452 2.338.181.45 0 .989-.543 1.169-.543.18-.995 0-1.176-.54-.362-.899-.543-1.888-.543-2.967 0-3.506 2.262-6.563 5.52-7.642-.091-.45-.091-.9-.091-1.349 0-4.496 3.62-8.092 8.143-8.092 4.525 0 8.144 3.596 8.144 8.092 0 .45 0 .9-.09 1.349 3.257 1.079 5.519 4.225 5.519 7.642 0 4.496-3.62 8.092-8.144 8.092h-4.524v5.934l1.177-1.169 1.266 1.26-2.443 2.427v6.833zM5.43 9.89V8.092c1.357 0 2.624.63 3.438 1.618 1.086-2.068 3.167-3.416 5.61-3.416v1.798c-2.533 0-4.524 1.978-4.524 4.496h-1.81c0-1.529-1.176-2.698-2.714-2.698z"/>
            </g>
        </g>
    </g>
</svg>
