<?xml version="1.0" encoding="UTF-8"?>
<svg width="37px" height="36px" viewBox="0 0 37 36" version="1.1" xmlns="http://www.w3.org/2000/svg" xmlns:xlink="http://www.w3.org/1999/xlink">
    <title>BDE7F109-F693-4F1A-ACC4-9F66B1AE6EDC</title>
    <defs>
        <filter id="filter-1">
            <feColorMatrix in="SourceGraphic" type="matrix" values="0 0 0 0 0.196078 0 0 0 0 0.211765 0 0 0 0 0.262745 0 0 0 1.000000 0"></feColorMatrix>
        </filter>
    </defs>
    <g id="Symbols" stroke="none" stroke-width="1" fill="none" fill-rule="evenodd" opacity="0.4">
        <g id="noun_park-zone_1291974" filter="url(#filter-1)">
            <g>
                <path d="M23.125,29.106383 C23.125,28.7234043 22.9708333,28.3404255 22.6625,28.0340426 C22.3541667,27.7276596 21.96875,27.5744681 21.5833333,27.5744681 L18.5,27.5744681 L18.5,24.5106383 L23.125,24.5106383 L23.125,22.9787234 L18.5,22.9787234 L18.5,21.4468085 L23.125,21.4468085 L23.125,19.9148936 L18.5,19.9148936 L18.5,18.3829787 L16.9583333,18.3829787 L16.9583333,19.9148936 L6.16666667,19.9148936 L6.16666667,18.3829787 L4.625,18.3829787 L4.625,19.9148936 L0,19.9148936 L0,21.4468085 L4.625,21.4468085 L4.625,22.9787234 L0,22.9787234 L0,24.5106383 L4.625,24.5106383 L4.625,27.5744681 L1.54166667,27.5744681 C1.15625,27.5744681 0.770833333,27.7276596 0.4625,28.0340426 C0.154166667,28.3404255 0,28.7234043 0,29.106383 L0,31.4042553 C0,31.8638298 0.308333333,32.1702128 0.770833333,32.1702128 L3.08333333,32.1702128 L3.08333333,34.4680851 L0,34.4680851 L0,36 L21.5833333,36 L21.5833333,34.4680851 L20.0416667,34.4680851 L20.0416667,32.1702128 L22.3541667,32.1702128 C22.8166667,32.1702128 23.125,31.8638298 23.125,31.4042553 L23.125,29.106383 Z M6.16666667,21.4468085 L16.9583333,21.4468085 L16.9583333,22.9787234 L6.16666667,22.9787234 L6.16666667,21.4468085 Z M6.16666667,24.5106383 L16.9583333,24.5106383 L16.9583333,27.5744681 L6.16666667,27.5744681 L6.16666667,24.5106383 Z M4.625,32.1702128 L6.16666667,32.1702128 L6.16666667,34.4680851 L4.625,34.4680851 L4.625,32.1702128 Z M15.4166667,32.1702128 L15.4166667,34.4680851 L7.70833333,34.4680851 L7.70833333,32.1702128 L15.4166667,32.1702128 Z M18.5,34.4680851 L16.9583333,34.4680851 L16.9583333,32.1702128 L18.5,32.1702128 L18.5,34.4680851 Z M1.54166667,30.6382979 L1.54166667,29.106383 L21.5833333,29.106383 L21.5833333,30.6382979 L1.54166667,30.6382979 Z M26.2083333,34.4680851 L37,34.4680851 L37,36 L23.125,36 L23.125,34.4680851 L24.6666667,34.4680851 L24.6666667,19.4553191 L21.8145833,16.6212766 L22.89375,15.5489362 L24.6666667,17.3106383 L24.6666667,9.95744681 L26.2083333,9.95744681 L26.2083333,15.012766 L28.7520833,12.4851064 L29.83125,13.5574468 L26.2083333,17.1574468 L26.2083333,19.9148936 L30.0625,19.9148936 C33.06875,19.9148936 35.4583333,17.5404255 35.4583333,14.5531915 C35.4583333,12.0255319 33.6854167,9.80425532 31.21875,9.34468085 C30.9875,9.26808511 30.8333333,9.19148936 30.75625,8.96170213 C30.6791667,8.80851064 30.6020833,8.5787234 30.6791667,8.34893617 C30.75625,7.8893617 30.8333333,7.35319149 30.8333333,6.89361702 C30.8333333,3.90638298 28.44375,1.53191489 25.4375,1.53191489 C22.43125,1.53191489 20.0416667,3.90638298 20.0416667,6.89361702 C20.0416667,7.35319149 20.11875,7.8893617 20.2729167,8.34893617 C20.35,8.5787234 20.2729167,8.80851064 20.1958333,8.96170213 C20.11875,9.11489362 19.8875,9.26808511 19.7333333,9.34468085 C17.1895833,9.80425532 15.4166667,12.0255319 15.4166667,14.5531915 C15.4166667,15.2425532 15.5708333,15.9319149 15.8020833,16.5446809 C15.95625,16.9276596 15.8020833,17.387234 15.3395833,17.5404255 C14.8770833,17.693617 14.4916667,17.5404255 14.3375,17.0808511 C14.0291667,16.3148936 13.875,15.4723404 13.875,14.5531915 C13.875,11.5659574 15.8020833,8.96170213 18.5770833,8.04255319 C18.5,7.65957447 18.5,7.27659574 18.5,6.89361702 C18.5,3.06382979 21.5833333,0 25.4375,0 C29.2916667,0 32.375,3.06382979 32.375,6.89361702 C32.375,7.27659574 32.375,7.65957447 32.2979167,8.04255319 C35.0729167,8.96170213 37,11.6425532 37,14.5531915 C37,18.3829787 33.9166667,21.4468085 30.0625,21.4468085 L26.2083333,21.4468085 L26.2083333,26.5021277 L27.2104167,25.506383 L28.2895833,26.5787234 L26.2083333,28.6468085 L26.2083333,34.4680851 Z M4.625,8.42553191 L4.625,6.89361702 C5.78125,6.89361702 6.86041667,7.42978723 7.55416667,8.27234043 C8.47916667,6.5106383 10.2520833,5.36170213 12.3333333,5.36170213 L12.3333333,6.89361702 C10.175,6.89361702 8.47916667,8.5787234 8.47916667,10.7234043 L6.9375,10.7234043 C6.9375,9.4212766 5.93541667,8.42553191 4.625,8.42553191 Z" id="Shape" fill="#000000" fill-rule="nonzero"></path>
            </g>
        </g>
    </g>
</svg>