<?xml version="1.0" encoding="UTF-8"?>
<svg width="47px" height="36px" viewBox="0 0 47 36" version="1.1" xmlns="http://www.w3.org/2000/svg" xmlns:xlink="http://www.w3.org/1999/xlink">
    <title>18A909AD-1E0A-431C-9962-E6300BAD93BB</title>
    <g id="Symbols" stroke="none" stroke-width="1" fill="none" fill-rule="evenodd" opacity="0.4">
        <g id="People" stroke="#323643" stroke-width="1.5">
            <g id="Group-13">
                <path d="M44.9012576,9.01548517 C40.3756523,12.2825618 35.399515,12.2816192 35.399515,12.2816192 C32.9586225,12.1534246 31.2069731,10.7743902 32.3660904,12.469198 C33.5247359,14.1635344 37.3389253,14.5443478 37.3389253,14.5443478 C37.3389253,14.5443478 37.5993375,15.4615046 37.0704932,23.4632972 C36.5416489,31.4655611 39.2363489,23.8196027 39.9038911,20.7104128 C40.5709614,17.6016942 41.9758663,27.044262 43.5864591,26.3198683 C45.1965801,25.5954747 42.7363454,13.6658378 42.7363454,13.6658378 C45.655132,11.1952643 49.426863,5.74840858 44.9012576,9.01548517 Z" id="Stroke-1"></path>
                <path d="M37.6529287,8.63783422 C39.0485123,9.61026199 40.2703113,8.31653083 40.2703113,8.31653083 C40.2703113,8.31653083 41.7972284,6.32056959 40.4334832,5.31028575 C39.0697379,4.30000191 37.5330925,6.08018355 37.5330925,6.08018355 C37.5330925,6.08018355 36.2573451,7.66493325 37.6529287,8.63783422 Z" id="Stroke-3"></path>
                <path d="M28.0053847,18.5639423 C25.6268893,19.1088145 22.5611617,19.3123322 19.9413169,17.3044456 C17.3214721,15.296559 17.0423977,16.2049877 17.0423977,16.2049877 C16.5778797,17.5704061 20.0835812,21.6042184 20.0835812,21.6042184 C18.3782277,25.4803045 17.7837174,28.8998636 17.6923592,33.1408938 C17.6005464,37.3823866 18.8586537,34.7523836 19.2136327,33.5100008 C19.5686117,32.2685432 21.1521543,30.1399336 21.1521543,30.1399336 C22.9352305,41.9111168 24.0837988,32.83793 24.4128702,29.6676801 C24.7423962,26.4969677 26.1014066,21.6967264 26.1014066,21.6967264 C26.1014066,21.6967264 31.040205,19.6291722 30.9997529,18.7873492 C30.9593007,17.9459887 30.3834257,18.0186075 28.0053847,18.5639423 Z" id="Stroke-5"></path>
                <path d="M24.1068727,14.7222344 C25.6969389,15.5968594 27.172283,14.1967776 27.6024905,13.406888 C28.033184,12.6169984 28.6432522,10.6047766 26.1913128,10.0832157 C23.1054859,9.42675997 23,12.8697436 23,12.8697436 C23,12.8697436 23.0636804,14.1490531 24.1068727,14.7222344 Z" id="Stroke-7"></path>
                <path d="M7.10687271,4.72223973 C8.69693886,5.596848 10.172283,4.196793 10.6024905,3.40691849 C11.033184,2.61704399 11.6432522,0.604860598 9.19131284,0.0833096754 C6.10548589,-0.573620478 6,2.87027133 6,2.87027133 C6,2.87027133 6.06368042,4.14906939 7.10687271,4.72223973 Z" id="Stroke-9"></path>
                <path d="M16.4615339,11.2602644 C18.0651294,9.05999967 15.9997582,11.2991149 11.4273377,11.170245 C6.85444989,11.0409013 8.5912499,10.8077983 8.5912499,10.8077983 C8.5912499,10.8077983 11.2576772,9.18981718 12.2840531,8.30573147 C13.310429,7.42164575 13.7249989,6.42432504 11.4904346,7.40553701 C11.4904346,7.40553701 8.67257476,8.13374695 6.59785592,8.0190906 C4.52360446,7.90490804 3.28924257,10.6007536 2.71809897,12.5167464 C0.98690758,18.3234745 -0.665763252,24.1519967 0.271809624,24.3576201 C1.20984988,24.5627696 2.59003568,21.4552036 3.50751103,19.8177973 C4.42545376,18.1794433 4.44181221,19.9509313 4.17213148,23.8696199 C4.02023159,26.0750963 4.86619715,27.8124716 6.34920748,22.4572622 C7.8326852,17.1025265 10.2621487,14.3029217 10.2621487,14.3029217 C10.2621487,14.3029217 14.8579384,13.4600554 16.4615339,11.2602644 Z" id="Stroke-11"></path>
            </g>
        </g>
    </g>
</svg>