<?xml version="1.0" encoding="UTF-8"?>
<svg width="55px" height="42px" viewBox="0 0 55 42" version="1.1" xmlns="http://www.w3.org/2000/svg" xmlns:xlink="http://www.w3.org/1999/xlink">
    <title>B0DCF332-DA08-45F5-AE7F-FE0160442C31</title>
    <g id="Symbols" stroke="none" stroke-width="1" fill="none" fill-rule="evenodd">
        <g id="People-selected" stroke="#FFFFFF" stroke-width="1.5">
            <g id="Group-13">
                <path d="M51.9092015,10.422573 C46.6772643,14.1995571 40.9244786,14.1984674 40.9244786,14.1984674 C38.1026248,14.0502649 36.0775875,12.4559984 37.4176136,14.4153225 C38.7570942,16.3741018 43.1665816,16.8143504 43.1665816,16.8143504 C43.1665816,16.8143504 43.4676375,17.874652 42.856254,27.1253209 C42.2448705,36.3765346 45.3601447,27.5372366 46.1318732,23.9427813 C46.9030562,20.3488709 48.527231,31.2651832 50.3891964,30.4277301 C52.2506163,29.5902771 49.4064016,15.7987274 49.4064016,15.7987274 C52.7807365,12.9425603 57.1411387,6.6455889 51.9092015,10.422573 Z" id="Stroke-1"></path>
                <path d="M43.5295929,9.98598037 C45.1429916,11.1101794 46.5554823,9.6145297 46.5554823,9.6145297 C46.5554823,9.6145297 48.3207122,7.30704969 46.7441211,6.13908624 C45.16753,4.9711228 43.3910532,7.02914551 43.3910532,7.02914551 C43.3910532,7.02914551 41.9161941,8.8612343 43.5295929,9.98598037 Z" id="Stroke-3"></path>
                <path d="M32.3763127,21.4613013 C29.6265946,22.0912143 26.082385,22.3264959 23.0536491,20.0052292 C20.0249131,17.6839626 19.7022823,18.734174 19.7022823,18.734174 C19.165265,20.3126995 23.2181172,24.9760872 23.2181172,24.9760872 C21.2466014,29.4571318 20.5593032,33.4103969 20.4536863,38.3133441 C20.3475439,43.216826 21.8020098,40.1763464 22.2123919,38.7400593 C22.6227741,37.3048417 24.4534674,34.8440104 24.4534674,34.8440104 C26.5148364,48.4523758 27.842667,37.9630954 28.2230981,34.2980502 C28.6040547,30.6324702 30.1751721,25.0830334 30.1751721,25.0830334 C30.1751721,25.0830334 35.8847912,22.6927865 35.8380255,21.7195763 C35.7912598,20.7469009 35.1255054,20.8308537 32.3763127,21.4613013 Z" id="Stroke-5"></path>
                <path d="M27.8693422,17.0200006 C29.7075772,18.0311323 31.4131851,16.4125334 31.9105369,15.4993621 C32.4084508,14.5861909 33.1137351,12.2599124 30.2791104,11.6569491 C26.7116644,10.8980374 26.5897148,14.8783832 26.5897148,14.8783832 C26.5897148,14.8783832 26.6633341,16.3573603 27.8693422,17.0200006 Z" id="Stroke-7"></path>
                <path d="M8.21607471,5.4592612 C10.0543097,6.47037357 11.7599176,4.85180561 12.2572695,3.93865179 C12.7551833,3.02549797 13.4604676,0.699263947 10.6258429,0.0963121961 C7.0583969,-0.66314804 6.93644734,3.31824765 6.93644734,3.31824765 C6.93644734,3.31824765 7.01006666,4.79663355 8.21607471,5.4592612 Z" id="Stroke-9"></path>
                <path d="M19.0307605,13.0177052 C20.8846364,10.4740351 18.4969134,13.0626193 13.2108544,12.913636 C7.92425512,12.764105 9.93212541,12.4946206 9.93212541,12.4946206 C9.93212541,12.4946206 13.0147142,10.6241138 14.2012813,9.60204482 C15.3878483,8.57997582 15.867122,7.42699872 13.2837991,8.56135291 C13.2837991,8.56135291 10.026143,9.40321789 7.62761336,9.27066661 C5.22962402,9.13866305 3.80260964,12.2552615 3.14232506,14.470292 C1.14093874,21.1833026 -0.769671956,27.9215089 0.31423219,28.1592248 C1.39867667,28.396393 2.99427435,24.803815 4.05494426,22.9108512 C5.1161545,21.0167919 5.13506609,23.064764 4.82329505,27.5950602 C4.64768745,30.1447554 5.62568671,32.1532908 7.34015722,25.9622694 C9.05516807,19.7717957 11.863809,16.5352439 11.863809,16.5352439 C11.863809,16.5352439 17.1768845,15.5608276 19.0307605,13.0177052 Z" id="Stroke-11"></path>
            </g>
        </g>
    </g>
</svg>