<?xml version="1.0" encoding="UTF-8"?>
<svg width="30px" height="30px" viewBox="0 0 30 30" version="1.1" xmlns="http://www.w3.org/2000/svg" xmlns:xlink="http://www.w3.org/1999/xlink">
    <title>map-selected copy 2</title>
    <defs>
        <filter id="filter-1">
            <feColorMatrix in="SourceGraphic" type="matrix" values="0 0 0 0 0.196078 0 0 0 0 0.211765 0 0 0 0 0.262745 0 0 0 1.000000 0"></feColorMatrix>
        </filter>
    </defs>
    <g id="Symbols" stroke="none" stroke-width="1" fill="none" fill-rule="evenodd" opacity="0.4">
        <g id="map-selected-copy-2" filter="url(#filter-1)">
            <g>
                <path d="M26.6,14.4657534 C26.7318182,15.0821918 26.8636364,15.8219178 26.8636364,16.4383562 C26.8636364,18.1643836 26.4681818,19.890411 25.6772727,21.369863 C23.0409091,22.7260274 21.8545455,21.9863014 20.6681818,21.1232877 C19.8772727,20.5068493 18.6909091,19.7671233 17.2409091,20.260274 C15.7909091,20.7534247 14.7363636,21.8630137 14.0772727,23.2191781 C13.55,24.4520548 13.4181818,26.0547945 13.6818182,27.5342466 C11.0454545,27.2876712 8.67272727,26.1780822 6.95909091,24.5753425 C7.88181818,22.7260274 7.88181818,20.8767123 6.69545455,19.2739726 C6.43181818,18.7808219 6.03636364,18.4109589 5.64090909,18.0410959 C4.98181818,17.4246575 5.24545455,16.3150685 6.03636364,15.9452055 C7.09090909,15.4520548 8.27727273,14.9589041 9.06818182,13.9726027 C10.65,11.7534247 8.80454545,8.54794521 8.40909091,7.93150685 C8.27727273,7.80821918 8.14545455,7.68493151 8.01363636,7.43835616 C9.33181818,6.57534247 10.7818182,5.95890411 12.3636364,5.5890411 C12.4954545,4.60273973 12.7590909,3.73972603 13.1545455,3 C6.03636364,3.8630137 0.5,9.53424658 0.5,16.4383562 C0.5,23.9589041 6.95909091,30 15,30 C23.0409091,30 29.5,23.9589041 29.5,16.4383562 C29.5,14.9589041 29.2363636,13.4794521 28.7090909,12 C28.05,12.8630137 27.3909091,13.7260274 26.6,14.4657534 Z" id="Shape" fill="#FFFFFF" fill-rule="nonzero"></path>
                <path d="M21,0 C17.75,0 14.5,2.375 14.5,6.25 C14.5,9.75 19.57,14.25 20.09,14.625 C20.35,14.875 20.61,15 21,15 C21.39,15 21.65,14.875 21.91,14.625 C22.43,14.25 27.5,9.75 27.5,6.25 C27.5,2.375 24.25,0 21,0 Z M21,9.16666667 C19.4678571,9.16666667 18.2142857,8.04166667 18.2142857,6.66666667 C18.2142857,5.29166667 19.4678571,4.16666667 21,4.16666667 C22.5321429,4.16666667 23.7857143,5.29166667 23.7857143,6.66666667 C23.7857143,8.04166667 22.5321429,9.16666667 21,9.16666667 Z" id="Shape" fill="#FFFFFF" fill-rule="nonzero"></path>
            </g>
        </g>
    </g>
</svg>