<svg xmlns="http://www.w3.org/2000/svg" width="64" height="60" viewBox="0 0 64 60">
    <g fill="none" fill-rule="evenodd" opacity=".98">
        <g stroke="#FF0061">
            <path d="M41.678 1.265c3.577-1.09 7.235-.986 10.51.124 3.316 1.123 6.238 3.277 8.28 6.264 1.896 2.771 3.032 6.259 3.032 10.301 0 10.868-8.165 25.646-31.5 41.443C8.664 43.598.5 28.82.5 17.954c0-4.042 1.136-7.53 3.031-10.301 2.043-2.987 4.965-5.141 8.28-6.264 3.276-1.11 6.934-1.214 10.51-.124 3.292 1.003 6.512 3.016 9.304 6.18.128.145.253.29.375.435.123-.145.248-.29.375-.435 2.792-3.164 6.012-5.177 9.303-6.18z"/>
        </g>
    </g>
</svg>
