<svg xmlns="http://www.w3.org/2000/svg" xmlns:xlink="http://www.w3.org/1999/xlink" width="67" height="67" viewBox="0 0 67 67">
    <defs>
        <filter id="gzrup2dvea" width="159.2%" height="159.2%" x="-29.6%" y="-21.1%" filterUnits="objectBoundingBox">
            <feOffset dy="4" in="SourceAlpha" result="shadowOffsetOuter1"/>
            <feGaussianBlur in="shadowOffsetOuter1" result="shadowBlurOuter1" stdDeviation="4"/>
            <feColorMatrix in="shadowBlurOuter1" values="0 0 0 0 0.0562383776 0 0 0 0 0.121895047 0 0 0 0 0.209437274 0 0 0 0.16 0"/>
        </filter>
        <filter id="ea6aplxbac">
            <feColorMatrix in="SourceGraphic" values="0 0 0 0 0.196078 0 0 0 0 0.211765 0 0 0 0 0.262745 0 0 0 1.000000 0"/>
        </filter>
        <circle id="qye7joa65b" cx="23.647" cy="23.647" r="23.647"/>
    </defs>
    <g fill="none" fill-rule="evenodd">
        <g>
            <g>
                <g>
                    <g>
                        <g transform="translate(-941 -816) translate(437 771) translate(504 45) translate(9.853 9.853)">
                            <use fill="#000" filter="url(#gzrup2dvea)" xlink:href="#qye7joa65b"/>
                            <use fill="#FFF" xlink:href="#qye7joa65b"/>
                        </g>
                        <g filter="url(#ea6aplxbac)" transform="translate(-941 -816) translate(437 771) translate(504 45) translate(9.853 9.853)">
                            <g>
                                <path fill="#000" fill-rule="nonzero" d="M24.097 10.296h-1.96c-.254-1.403-1.457-2.422-2.86-2.422-1.402 0-2.605 1.019-2.859 2.422H.535c-.295 0-.535.244-.535.545 0 .3.24.545.535.545h15.883c.254 1.403 1.457 2.422 2.86 2.422 1.402 0 2.605-1.019 2.859-2.422h1.96c.296 0 .535-.244.535-.545 0-.301-.24-.545-.535-.545zm-4.82 2.42c-1.017 0-1.842-.84-1.842-1.875 0-1.035.825-1.874 1.842-1.874 1.018 0 1.843.839 1.843 1.874 0 .497-.195.974-.54 1.325-.345.352-.814.55-1.303.55zm4.82 5.448h-8.921c-.255-1.403-1.457-2.422-2.86-2.422-1.402 0-2.605 1.019-2.86 2.422H.537c-.296 0-.536.244-.536.545 0 .301.24.545.535.545h8.922c.254 1.404 1.457 2.422 2.86 2.422 1.402 0 2.604-1.018 2.859-2.422h8.92c.297 0 .536-.244.536-.545 0-.3-.24-.545-.535-.545zm-11.78 2.425c-1.018 0-1.843-.84-1.843-1.874 0-1.036.825-1.875 1.842-1.875 1.018 0 1.842.84 1.842 1.875 0 .497-.194.974-.54 1.325-.345.352-.813.55-1.302.55zM.534 3.512h1.96c.255 1.404 1.457 2.422 2.86 2.422 1.402 0 2.605-1.018 2.86-2.422h15.882c.296 0 .535-.244.535-.545 0-.3-.24-.545-.535-.545H8.214C7.96 1.02 6.757 0 5.354 0 3.953 0 2.75 1.019 2.496 2.422H.535c-.295 0-.535.244-.535.545 0 .301.24.545.535.545zm4.82-2.42c1.017 0 1.842.84 1.842 1.875 0 1.035-.825 1.875-1.842 1.875-1.017 0-1.842-.84-1.842-1.875 0-.497.194-.974.54-1.325.345-.352.813-.55 1.302-.55z" transform="translate(11.824 12.809)"/>
                            </g>
                        </g>
                    </g>
                </g>
            </g>
        </g>
    </g>
</svg>
