<svg xmlns="http://www.w3.org/2000/svg" width="84" height="85" viewBox="0 0 84 85">
    <defs>
        <filter id="wllayvgh4a">
            <feColorMatrix in="SourceGraphic" values="0 0 0 0 0.196078 0 0 0 0 0.211765 0 0 0 0 0.262745 0 0 0 0.500000 0"/>
        </filter>
    </defs>
    <g fill="none" fill-rule="evenodd">
        <g>
            <g transform="translate(-947 -768) translate(947 768.912)">
                <circle cx="42" cy="42" r="41.4" fill="#FFF" stroke="#323643" stroke-opacity=".25" stroke-width="1.2"/>
                <g filter="url(#wllayvgh4a)">
                    <g fill="#000" fill-rule="nonzero">
                        <g>
                            <path d="M17.877 11.132h-4.442c-.329 0-.548-.22-.548-.548 0-.33.22-.549.548-.549h4.442c.33 0 .549.22.549.549 0 .329-.22.548-.549.548z" transform="translate(20 25) translate(0 7.677)"/>
                            <path d="M44.255 26.213H.713c-.165 0-.33-.11-.439-.22-.11-.164-.11-.328-.055-.493l6.087-15.08c.11-.22.275-.33.494-.33h2.194c.329 0 .548.22.548.549 0 .329-.22.548-.548.548H7.129l-5.594 13.93h41.897l-5.648-13.985h-1.865c-.329 0-.548-.22-.548-.548 0-.33.22-.549.548-.549h2.194c.22 0 .439.11.493.33l6.088 15.08c.054.165.054.384-.055.494-.055.164-.22.274-.384.274z" transform="translate(20 25) translate(0 7.677)"/>
                            <path d="M31.971 11.132h-4.936c-.329 0-.548-.22-.548-.548 0-.33.22-.549.548-.549h4.936c.329 0 .548.22.548.549 0 .329-.219.548-.548.548z" transform="translate(20 25) translate(0 7.677)"/>
                            <g>
                                <path d="M6.58 18.645c-.164 0-.383-.11-.438-.274-.22-.384-5.758-8.83-5.758-12.065C.384 2.906 3.18.11 6.58.11s6.196 2.796 6.196 6.196c0 3.236-5.483 11.681-5.758 12.065-.054.22-.274.274-.438.274zm0-17.384c-2.796 0-5.1 2.304-5.1 5.1 0 2.194 3.346 7.952 5.1 10.749 1.755-2.797 5.1-8.555 5.1-10.749 0-2.796-2.303-5.1-5.1-5.1z" transform="translate(20 25) translate(0 7.677) translate(15.903)"/>
                                <path d="M6.58 8.445c-1.315 0-2.357-1.042-2.357-2.358S5.265 3.73 6.58 3.73s2.358 1.042 2.358 2.358S7.897 8.445 6.58 8.445zm0-3.674c-.712 0-1.26.548-1.26 1.261 0 .713.548 1.262 1.26 1.262.714 0 1.262-.549 1.262-1.262S7.294 4.771 6.58 4.771z" transform="translate(20 25) translate(0 7.677) translate(15.903)"/>
                            </g>
                        </g>
                        <path d="M11.132 20.345c-.329 0-.548-.22-.548-.548v-6.745c0-.33.22-.549.548-.549.33 0 .549.22.549.549v6.745c0 .274-.275.548-.549.548z" transform="translate(20 25)"/>
                        <path d="M11.132 15.903c-2.358 0-4.277-1.92-4.277-4.277 0-2.358 1.92-4.278 4.277-4.278 2.358 0 4.278 1.92 4.278 4.278 0 2.358-1.92 4.277-4.278 4.277zm0-7.458c-1.755 0-3.18 1.426-3.18 3.18 0 1.756 1.425 3.181 3.18 3.181 1.755 0 3.18-1.425 3.18-3.18 0-1.755-1.425-3.18-3.18-3.18zM13.984 20.784H8.28c-.33 0-.549-.22-.549-.549 0-.329.22-.548.549-.548h5.703c.329 0 .548.22.548.548 0 .33-.22.549-.548.549zM33.89 20.345c-.329 0-.548-.22-.548-.548v-6.745c0-.33.22-.549.548-.549.33 0 .549.22.549.549v6.745c0 .274-.22.548-.549.548z" transform="translate(20 25)"/>
                        <path d="M33.89 15.903c-2.358 0-4.277-1.92-4.277-4.277 0-2.358 1.92-4.278 4.277-4.278 2.358 0 4.278 1.92 4.278 4.278 0 2.358-1.92 4.277-4.278 4.277zm0-7.458c-1.755 0-3.18 1.426-3.18 3.18 0 1.756 1.425 3.181 3.18 3.181 1.755 0 3.181-1.425 3.181-3.18 0-1.755-1.426-3.18-3.18-3.18zM36.742 20.784h-5.703c-.33 0-.549-.22-.549-.549 0-.329.22-.548.549-.548h5.703c.329 0 .548.22.548.548 0 .33-.219.549-.548.549zM30.49 5.703c-.548 0-1.096-.11-1.535-.329-1.755.165-3.18-.713-3.18-1.92 0-.767.602-1.425 1.59-1.754C27.748.932 28.79.439 29.997.439c1.535 0 2.797.822 2.797 1.92v.273c.329.33.493.713.493 1.097 0 1.152-1.261 1.974-2.797 1.974zm-1.425-1.426c.11 0 .164 0 .274.055.329.165.767.274 1.206.274.932 0 1.7-.438 1.7-.822 0-.165-.11-.33-.329-.494-.22-.164-.329-.493-.164-.713.054-.054.054-.11.054-.164 0-.384-.712-.823-1.7-.823-.877 0-1.59.384-1.7.768-.054.22-.219.384-.438.384-.658.164-1.042.493-1.042.768 0 .384.713.822 1.7.822.164 0 .274 0 .439-.055-.055 0-.055 0 0 0zM14.423 6.306c-.549 0-1.097-.11-1.536-.329-1.755.165-3.18-.712-3.18-1.919 0-.768.603-1.426 1.59-1.755.384-.768 1.426-1.261 2.632-1.261 1.536 0 2.797.823 2.797 1.92v.273c.329.33.493.713.493 1.097-.054 1.097-1.26 1.974-2.796 1.974zm-1.481-1.425c.11 0 .164 0 .274.054.33.165.768.275 1.207.275.932 0 1.7-.439 1.7-.823 0-.164-.11-.329-.33-.493-.219-.165-.328-.494-.164-.713.055-.055.055-.11.055-.165 0-.384-.713-.822-1.7-.822-.878 0-1.59.383-1.7.767-.055.22-.22.384-.439.384-.658.165-1.042.494-1.042.768 0 .384.713.822 1.7.822.165 0 .274 0 .439-.054-.055 0 0 0 0 0zM22.648 27.913c-3.18 0-6.36-.878-6.36-2.523 0-1.151 1.59-2.084 4.277-2.413.274-.054.548.165.603.494.055.274-.165.548-.494.603-2.303.274-3.345.987-3.345 1.316 0 .439 1.81 1.426 5.265 1.426 3.454 0 5.264-.987 5.264-1.426 0-.329-1.097-1.096-3.674-1.316-.274-.055-.549-.274-.494-.603.055-.274.275-.494.604-.494 2.248.22 4.66.988 4.66 2.413.056 1.645-3.125 2.523-6.306 2.523z" transform="translate(20 25)"/>
                    </g>
                </g>
            </g>
        </g>
    </g>
</svg>
