<?xml version="1.0" encoding="UTF-8"?>
<svg width="45px" height="14px" viewBox="0 0 45 14" version="1.1" xmlns="http://www.w3.org/2000/svg" xmlns:xlink="http://www.w3.org/1999/xlink">
    <title>Fill 1</title>
    <g id="Symbols" stroke="none" stroke-width="1" fill="none" fill-rule="evenodd">
        <g id="logo" fill="#FFFFFF">
            <path d="M44.5141484,-3.99680289e-14 C43.8736401,-3.99680289e-14 43.2712088,0.310648649 42.8927885,0.83772973 L42.8927885,0.83772973 C41.1526236,3.26162162 39.3285165,5.61866667 37.4252885,7.90508108 L37.4252885,7.90508108 C37.1518269,8.23363964 36.6249313,8.03587387 36.6249313,7.60477477 L36.6249313,7.60477477 L36.6249313,2.8198018 C36.6249313,0.316828829 33.6587637,-0.936864865 31.9237912,0.832936937 L31.9237912,0.832936937 L28.6003434,4.22383784 C25.9627747,6.91473874 21.6866621,6.91473874 19.0494643,4.22383784 L19.0494643,4.22383784 L15.3745467,0.474864865 C14.7595055,-0.152612613 13.7624588,-0.152612613 13.1474176,0.474864865 L13.1474176,0.474864865 L-2.84217094e-14,13.888 L0.462486264,13.888 C0.996428571,13.888 1.50861264,13.6716937 1.88604396,13.2863784 L1.88604396,13.2863784 L4.93615385,10.1748468 C7.76447802,7.28933333 12.3351923,7.24064865 15.2218681,10.0658739 L15.2218681,10.0658739 L18.6480495,13.4191892 C19.2808929,14.0383423 20.2825137,14.0276216 20.9023764,13.3953514 L20.9023764,13.3953514 L30.3494093,3.7572973 C30.7514423,3.34713514 31.4392995,3.63772973 31.4392995,4.21778378 L31.4392995,4.21778378 L31.4392995,12.4776577 C31.4392995,13.7395495 32.9443269,14.3610991 33.8050137,13.4541261 L33.8050137,13.4541261 C34.1870192,13.0514054 34.4969505,12.7224685 34.6275,12.5807027 L34.6275,12.5807027 C38.2727473,8.62147748 41.6672802,4.41895495 44.7855082,-3.99680289e-14 L44.7855082,-3.99680289e-14 L44.5141484,-3.99680289e-14 Z" id="Fill-1"></path>
        </g>
    </g>
</svg>