<svg xmlns="http://www.w3.org/2000/svg" xmlns:xlink="http://www.w3.org/1999/xlink" width="18" height="17" viewBox="0 0 18 17">
    <defs>
        <path id="xub2ra79ma" d="M0 0L12 0 12 17 0 17z"/>
    </defs>
    <g fill="none" fill-rule="evenodd">
        <g>
            <g transform="translate(6)">
                <mask id="gijj7ssgwb" fill="#fff">
                    <use xlink:href="#xub2ra79ma"/>
                </mask>
                <path fill="#323544" d="M6 17c-.21 0-.407-.11-.52-.292l-1.762-2.844c-.182-.292-.096-.68.191-.866.29-.183.668-.097.85.196L6 15.197l4.232-6.83v-.001c.354-.69.538-1.453.538-2.246 0-2.682-2.14-4.865-4.77-4.865-2.63 0-4.77 2.183-4.77 4.865 0 1.053.326 2.056.94 2.898.202.28.145.672-.127.88-.274.204-.66.147-.861-.13C.409 8.708 0 7.446 0 6.12 0 2.747 2.692 0 6 0c3.309 0 6 2.747 6 6.12 0 1.32-.405 2.575-1.17 3.633l-4.31 6.955C6.409 16.89 6.21 17 6 17" mask="url(#gijj7ssgwb)"/>
            </g>
            <path fill="#323544" d="M6 17c-.21 0-.407-.11-.52-.292L1.17 9.753C.405 8.695 0 7.439 0 6.12 0 2.747 2.692 0 6 0c.311 0 .618.025.917.072.336.052.567.372.516.714-.05.343-.368.581-.7.526-.24-.037-.483-.057-.733-.057-2.63 0-4.77 2.183-4.77 4.865 0 .793.184 1.558.537 2.246h.002v.002L6 15.198l4.231-6.831.003-.004c.352-.688.535-1.45.535-2.243 0-.866-.226-1.719-.655-2.462-.172-.299-.073-.683.22-.86.292-.176.67-.075.841.224.54.936.825 2.008.825 3.098 0 1.32-.405 2.576-1.17 3.633l-4.31 6.955C6.408 16.89 6.21 17 6 17"/>
        </g>
    </g>
</svg>
