<?xml version="1.0" encoding="UTF-8"?>
<svg width="37px" height="34px" viewBox="0 0 37 34" version="1.1" xmlns="http://www.w3.org/2000/svg" xmlns:xlink="http://www.w3.org/1999/xlink">
    <title>3240FEC2-9A98-47B3-845B-ABDE880EB81B</title>
    <defs>
        <filter id="filter-1">
            <feColorMatrix in="SourceGraphic" type="matrix" values="0 0 0 0 0.196078 0 0 0 0 0.211765 0 0 0 0 0.262745 0 0 0 1.000000 0"></feColorMatrix>
        </filter>
    </defs>
    <g id="Symbols" stroke="none" stroke-width="1" fill="none" fill-rule="evenodd" opacity="0.4">
        <g id="noun_mind_2277967-copy" filter="url(#filter-1)">
            <g>
                <path d="M16.9551555,29.2216216 L17,3.9972973 C17,1.83783784 15.0716885,0 12.7846214,0 C11.5738212,0 10.4527099,0.551351351 9.69035416,1.47027027 C7.89657604,1.56216216 6.28217573,2.71081081 5.60950894,4.45675676 C3.68119746,4.64054054 2.15648606,6.29459459 2.15648606,8.31621622 C2.15648606,8.72972973 2.24617496,9.14324324 2.38070832,9.55675676 C0.990530278,10.4297297 0.183330123,11.9459459 0.13848567,13.6 C0.13848567,14.7027027 0.542085747,15.8054054 1.259597,16.6783784 C-0.30995886,18.2864865 -0.444492219,20.8594595 1.03537473,22.5594595 C0.900841372,22.927027 0.855996919,23.3405405 0.855996919,23.7540541 C0.855996919,25.6837838 2.15648606,27.3378378 3.95026418,27.7972973 C4.3090198,29.6351351 5.8337312,31.0594595 7.67235378,31.2432432 C8.47955393,32.9432432 10.1387987,34 11.9774213,34 C14.6680884,34 16.9551555,31.7945946 16.9551555,29.2216216 Z M15.1613774,29.2216216 C15.1613774,30.7837838 13.6815105,32.1621622 11.9774213,32.1621622 C10.9459988,32.1621622 10.0042653,31.6108108 9.4661319,30.7378378 C11.3944434,29.772973 12.2016435,27.4297297 11.3047545,25.4081081 C11.0356878,24.8108108 10.5872432,24.2594595 10.0491098,23.8918919 C9.64550971,23.6162162 9.10737627,23.7081081 8.7934651,24.1216216 C8.52439838,24.5351351 8.61408729,25.0864865 9.01768737,25.4081081 C9.01768737,25.4081081 9.01768737,25.4081081 9.01768737,25.4081081 C9.60066525,25.8216216 9.91457643,26.4648649 9.91457643,27.1540541 C9.86973197,28.3945946 8.88315401,29.4054054 7.67235378,29.3594595 C7.62750932,29.3594595 7.58266487,29.3594595 7.53782042,29.3594595 C6.506398,29.0837838 5.7440423,28.1189189 5.7440423,27.0162162 C5.7440423,26.5567568 5.38528667,26.1432432 4.89199769,26.0972973 C3.68119746,26.0054054 2.69461949,24.9945946 2.69461949,23.7540541 C2.69461949,23.3864865 2.7843084,23.0648649 2.91884176,22.7432432 C3.09821957,22.3756757 3.00853066,21.9162162 2.69461949,21.6405405 C1.66319707,20.7675676 1.52866371,19.2513514 2.38070832,18.1945946 C2.47039723,18.1027027 2.56008613,17.9648649 2.69461949,17.872973 C2.64977504,17.9189189 2.73946394,17.9189189 2.82915285,17.9189189 C3.32244183,17.9189189 3.77088636,18.1027027 4.17448644,18.3783784 L4.62293097,18.8378378 C4.66777542,18.8837838 4.71261988,18.9756757 4.75746433,19.0675676 C4.93684214,19.4351351 5.0713755,19.8027027 5.0713755,20.2162162 C5.0713755,20.7216216 5.47497558,21.1351351 5.96826456,21.1351351 C6.46155354,21.1351351 6.86515362,20.7216216 6.86515362,20.2162162 C6.86515362,18.1027027 5.29559777,16.3108108 3.23275293,16.127027 C3.18790847,16.0810811 3.14306402,16.0351351 3.14306402,16.0351351 C2.38070832,15.4837838 1.93226379,14.6108108 1.93226379,13.6459459 C1.93226379,12.6810811 2.42555277,11.7621622 3.18790847,11.2108108 C3.45697519,11.1648649 3.68119746,11.1189189 3.95026418,11.1189189 C5.47497558,11.1189189 6.68577581,12.1297297 6.68577581,13.4162162 C6.68577581,13.9216216 7.08937589,14.3351351 7.58266487,14.3351351 C8.07595385,14.3351351 8.47955393,13.9216216 8.47955393,13.4162162 C8.47955393,11.2108108 6.5960869,9.41891892 4.17448644,9.28108108 C3.99510863,9.00540541 3.95026418,8.63783784 3.95026418,8.31621622 C3.95026418,7.16756757 4.89199769,6.24864865 6.01310901,6.29459459 C6.10279792,6.29459459 6.14764237,6.29459459 6.19248683,6.29459459 C6.64093136,6.34054054 7.04453143,6.01891892 7.13422034,5.55945946 C7.3584426,4.5027027 8.21048721,3.62972973 9.24190963,3.4 C9.37644299,3.44594595 9.51097635,3.44594595 9.60066525,3.44594595 C10.2284876,3.4 10.8114655,3.62972973 11.3047545,3.9972973 C11.6635101,4.31891892 12.246488,4.31891892 12.5603992,3.95135135 C12.8743103,3.58378378 12.8743103,2.98648649 12.5155547,2.66486486 L12.5155547,2.66486486 C12.2913324,2.43513514 12.0222657,2.25135135 11.753199,2.11351351 C12.0671102,1.92972973 12.4258658,1.83783784 12.7846214,1.83783784 C14.0402661,1.83783784 15.2062219,2.89459459 15.2062219,3.9972973 L15.1613774,29.2216216 Z" id="Shape" fill="#000000" fill-rule="nonzero"></path>
                <path d="M20,3.9972973 L20.0448445,29.2216216 C20.0448445,31.7945946 22.3319116,34 25.0225787,34 C26.8612013,34 28.5204461,32.9432432 29.3276462,31.2432432 C31.1662688,31.0594595 32.6909802,29.6351351 33.0497358,27.7972973 C34.8435139,27.3378378 36.1440031,25.6837838 36.1440031,23.7540541 C36.1440031,23.3405405 36.0991586,22.927027 35.9646253,22.5594595 C37.4444922,20.8594595 37.3099589,18.2405405 35.740403,16.6783784 C36.4579143,15.8054054 36.8615143,14.7486486 36.8615143,13.6 C36.8615143,11.9459459 36.0094697,10.4297297 34.6192917,9.55675676 C34.753825,9.14324324 34.8435139,8.72972973 34.8435139,8.31621622 C34.8435139,6.29459459 33.3188025,4.64054054 31.3904911,4.45675676 C30.7178243,2.71081081 29.103424,1.56216216 27.3096458,1.47027027 C26.5472901,0.505405405 25.4261788,0 24.2153786,0 C21.9283115,0 20,1.83783784 20,3.9972973 Z M24.2153786,1.83783784 C24.5741342,1.83783784 24.9328898,1.92972973 25.246801,2.11351351 C24.9777343,2.25135135 24.7086676,2.43513514 24.4844453,2.66486486 C24.1256897,2.98648649 24.0808452,3.58378378 24.4396008,3.95135135 C24.753512,4.31891892 25.3364899,4.36486486 25.6952455,3.9972973 C26.1885345,3.58378378 26.7715124,3.4 27.3993347,3.44594595 C27.5338681,3.44594595 27.6684015,3.44594595 27.7580904,3.4 C28.8343572,3.62972973 29.6415574,4.45675676 29.8657797,5.55945946 C29.9554686,6.01891892 30.3590686,6.34054054 30.8075132,6.29459459 C30.8523576,6.29459459 30.9420465,6.29459459 30.986891,6.29459459 C32.1080023,6.29459459 33.0048914,7.16756757 33.0497358,8.31621622 C33.0497358,8.63783784 32.9600469,8.95945946 32.8255136,9.28108108 C30.4487575,9.37297297 28.5204461,11.2108108 28.5204461,13.4162162 C28.5204461,13.9216216 28.9240461,14.3351351 29.4173351,14.3351351 C29.9106241,14.3351351 30.3142242,13.9216216 30.3142242,13.4162162 C30.3142242,12.1297297 31.5250244,11.1189189 33.0497358,11.1189189 C33.3188025,11.1189189 33.5430248,11.1648649 33.8120915,11.2108108 C34.6192917,11.7621622 35.0677362,12.6810811 35.0677362,13.6459459 C35.0677362,14.6108108 34.6192917,15.4837838 33.856936,16.0351351 C33.8120915,16.0810811 33.7672471,16.0810811 33.7672471,16.127027 C32.4667579,16.2648649 31.3456466,17 30.6729798,18.1486486 C30.3142242,18.7918919 30.1348464,19.4810811 30.1348464,20.2162162 C30.1348464,20.7216216 30.5384465,21.1351351 31.0317354,21.1351351 C31.5250244,21.1351351 31.9286245,20.7216216 31.9286245,20.2162162 C31.9286245,19.8027027 32.0183134,19.4351351 32.2425357,19.0675676 C32.2873801,18.9756757 32.3322246,18.9297297 32.377069,18.8378378 L32.8255136,18.3783784 C33.2291136,18.1027027 33.6775582,17.9189189 34.1708471,17.9189189 C34.2605361,17.9189189 34.350225,17.9189189 34.3950694,17.872973 C35.3816474,18.7459459 35.5161807,20.3081081 34.6641361,21.3189189 C34.5744472,21.4108108 34.4847583,21.5486486 34.350225,21.6405405 C34.0363138,21.9162162 33.9466249,22.3756757 34.1260027,22.7432432 C34.2605361,23.0648649 34.350225,23.3864865 34.350225,23.7540541 C34.3053805,24.9945946 33.363647,26.0054054 32.1528468,26.0972973 C31.7044022,26.1432432 31.3008022,26.5108108 31.3008022,27.0162162 C31.2559577,28.1189189 30.5384465,29.0837838 29.507024,29.3594595 C29.4621796,29.3594595 29.4173351,29.3594595 29.3724907,29.3594595 C28.1616904,29.4054054 27.130268,28.3945946 27.130268,27.1540541 C27.130268,26.4648649 27.4890237,25.7756757 28.0271571,25.4081081 C28.4307572,25.1324324 28.5204461,24.5351351 28.2513794,24.1216216 C27.9823126,23.7081081 27.3993347,23.6162162 26.9957347,23.8918919 C25.246801,25.1324324 24.7983565,27.6135135 26.0540012,29.4513514 C26.4576012,30.0027027 26.9508902,30.4621622 27.5338681,30.7378378 C26.9957347,31.6108108 26.0091567,32.1621622 25.0225787,32.1621622 C23.3184895,32.1621622 21.8386226,30.7837838 21.8386226,29.2216216 L21.7937781,3.9972973 C21.7937781,2.89459459 22.9597339,1.83783784 24.2153786,1.83783784 Z" id="Shape" fill="#000000" fill-rule="nonzero"></path>
                <path d="M13.9701656,7.0655117 C14.0986228,6.59092996 13.7988894,6.11634822 13.3278797,6.03006063 C12.85687,5.90062925 12.3858603,6.20263581 12.3002222,6.67721755 C12.0433078,7.62638102 11.1869265,8.27353794 10.2449071,8.27353794 C9.55980211,8.27353794 8.96033523,7.97153138 8.53214459,7.45380585 C8.23241115,7.0655117 7.71858239,7.0223679 7.33321082,7.28123067 C6.94783926,7.58323723 6.90502019,8.10096276 7.16193457,8.48925691 C8.44650647,10.1718649 10.8871931,10.5170152 12.5571365,9.17955762 C13.2422415,8.66183209 13.7560703,7.92838758 13.9701656,7.0655117 Z" id="Path" fill="#000000" fill-rule="nonzero"></path>
                <path d="M9.48378163,21.1782396 C8.75011993,20.8771694 7.88698851,20.9631894 7.19648337,21.3932897 C6.20388224,22.0384402 5.77231654,23.2427211 6.1175691,24.4039919 C6.24703882,24.8771023 6.76491767,25.0921524 7.19648337,24.9631223 C7.67120565,24.8340922 7.88698851,24.3179719 7.7575188,23.8878716 C7.7575188,23.8878716 7.7575188,23.8878716 7.7575188,23.8878716 C7.62804908,23.5007813 7.80067537,23.070681 8.10277136,22.8556308 C8.31855422,22.7266007 8.57749364,22.6835907 8.7932765,22.8126208 C9.22484221,22.9846609 9.74272106,22.7696107 9.91534734,22.3395104 C10.1311302,21.8664001 9.91534734,21.3932897 9.48378163,21.1782396 C9.48378163,21.1782396 9.48378163,21.1782396 9.48378163,21.1782396 Z" id="Path" fill="#000000" fill-rule="nonzero"></path>
                <path d="M11.8,11 C11.36,11 11,11.4090909 11,11.9090909 C11,12.4090909 11.36,12.8181818 11.8,12.8181818 C12.12,12.8181818 12.4,13.0909091 12.4,13.5 C12.4,13.9090909 12.16,14.1818182 11.8,14.1818182 C11.8,14.1818182 11.8,14.1818182 11.8,14.1818182 C11.36,14.1818182 11,14.5909091 11,15.0909091 C11,15.5909091 11.36,16 11.8,16 C13,16 14,14.9090909 14,13.5 C14,12.1363636 13.04,11 11.8,11 C11.8,11 11.8,11 11.8,11 Z" id="Path" fill="#000000" fill-rule="nonzero"></path>
                <path d="M13.2,19.8181818 C13.64,19.8181818 14,19.4090909 14,18.9090909 C14,18.4090909 13.64,18 13.2,18 C12,18 11,19.0909091 11,20.5 C11,21.9090909 11.96,23 13.2,23 C13.2,23 13.2,23 13.2,23 C13.64,23 14,22.5909091 14,22.0909091 C14,21.5909091 13.64,21.1818182 13.2,21.1818182 C12.88,21.1818182 12.6,20.9090909 12.6,20.5 C12.6,20.1363636 12.84,19.8181818 13.2,19.8181818 C13.2,19.8181818 13.2,19.8181818 13.2,19.8181818 Z" id="Path" fill="#000000" fill-rule="nonzero"></path>
                <path d="M26.7818084,10 C27.9799228,10 29.0924576,9.43711415 29.8198841,8.4845381 C30.1194127,8.0948479 30.0338331,7.57526097 29.6487249,7.27216859 C29.2636168,6.96907621 28.7501392,7.05567403 28.4506106,7.44536423 L28.4506106,7.44536423 C28.0655024,7.96495117 27.4236554,8.31134246 26.7390186,8.26804355 C25.7548533,8.26804355 24.8990573,7.61855988 24.6851083,6.66598383 C24.5567389,6.1896958 24.1288409,5.92990234 23.6581531,6.01650016 C23.1874653,6.14639689 22.9307266,6.57938601 23.0163061,7.05567403 C23.4869939,8.78763048 25.0274267,10 26.7818084,10 Z" id="Path" fill="#000000" fill-rule="nonzero"></path>
                <path d="M27.0605317,22.267115 C27.2342215,22.7018903 27.7552908,22.9192779 28.1895152,22.7453678 C28.4066274,22.6584127 28.667162,22.6584127 28.8842743,22.8323228 C29.2316538,23.0497104 29.3619211,23.4844857 29.2316538,23.8757834 C29.1013865,24.3540362 29.3184987,24.8322889 29.7961455,24.9627215 C30.2737924,25.0931541 30.7514393,24.8757665 30.8817066,24.3975137 C30.8817066,24.3975137 30.8817066,24.3975137 30.8817066,24.3975137 C31.2290861,23.2670981 30.7948617,22.0062499 29.7961455,21.3975645 C29.1013865,20.9627893 28.2763601,20.8758343 27.4947561,21.1801769 C27.1039541,21.3106095 26.8868419,21.8323398 27.0605317,22.267115 Z" id="Path" fill="#000000" fill-rule="nonzero"></path>
                <path d="M25.2,16 C25.64,16 26,15.5909091 26,15.0909091 C26,14.5909091 25.64,14.1818182 25.2,14.1818182 C24.88,14.1818182 24.6,13.9090909 24.6,13.5 C24.6,13.1363636 24.84,12.8181818 25.2,12.8181818 C25.2,12.8181818 25.2,12.8181818 25.2,12.8181818 C25.64,12.8181818 26,12.4090909 26,11.9090909 C26,11.4090909 25.64,11 25.2,11 C24,11 23,12.0909091 23,13.5 C23,14.8636364 23.96,16 25.2,16 C25.2,16 25.2,16 25.2,16 Z" id="Path" fill="#000000" fill-rule="nonzero"></path>
                <path d="M23.8,21.1818182 C23.36,21.1818182 23,21.5909091 23,22.0909091 C23,22.5909091 23.36,23 23.8,23 C25,23 26,21.9090909 26,20.5 C26,19.1363636 25.04,18 23.8,18 C23.8,18 23.8,18 23.8,18 C23.36,18 23,18.4090909 23,18.9090909 C23,19.4090909 23.36,19.8181818 23.8,19.8181818 C24.12,19.8181818 24.4,20.0909091 24.4,20.5 C24.4,20.8636364 24.16,21.1818182 23.8,21.1818182 C23.8,21.1818182 23.8,21.1818182 23.8,21.1818182 Z" id="Path" fill="#000000" fill-rule="nonzero"></path>
            </g>
        </g>
    </g>
</svg>