<?xml version="1.0" encoding="UTF-8"?>
<svg width="42.7747586px" height="39.3065349px" viewBox="0 0 42.7747586 39.3065349" version="1.1" xmlns="http://www.w3.org/2000/svg" xmlns:xlink="http://www.w3.org/1999/xlink">
    <title>19606B8D-98B2-44AE-AE1B-67B85B544690</title>
    <defs>
        <filter id="filter-1">
            <feColorMatrix in="SourceGraphic" type="matrix" values="0 0 0 0 1.000000 0 0 0 0 1.000000 0 0 0 0 1.000000 0 0 0 1.000000 0"></feColorMatrix>
        </filter>
    </defs>
    <g id="Symbols" stroke="none" stroke-width="1" fill="none" fill-rule="evenodd">
        <g id="noun_mind_2277967-copy" filter="url(#filter-1)">
            <g transform="translate(-0.000000, -0.000000)">
                <path d="M19.6014239,33.7823733 L19.6532675,4.6211737 C19.6532675,2.12467756 17.4239956,0 14.7799755,0 C13.3802002,0 12.0841119,0.637403269 11.2027719,1.69974205 C9.12903064,1.80597593 7.26266352,3.13389941 6.48501056,5.15234309 C4.25573872,5.36481085 2.49305866,7.27702065 2.49305866,9.61416597 C2.49305866,10.0922184 2.59674572,10.5702709 2.75227632,11.0483233 C1.14512685,12.0575452 0.211943291,13.8104042 0.16009976,15.722614 C0.16009976,16.9974205 0.62669154,18.272227 1.45618804,19.2814489 C-0.358335551,21.1405418 -0.513866144,24.1150903 1.19697038,26.0804171 C1.04143979,26.5053526 0.989596258,26.9834051 0.989596258,27.4614575 C0.989596258,29.6923689 2.49305866,31.6045788 4.56679991,32.1357481 C4.98154815,34.2604257 6.74422821,35.9070508 8.86981299,36.1195186 C9.80299655,38.0848453 11.7212072,39.3065349 13.846792,39.3065349 C16.9574038,39.3065349 19.6014239,36.7569218 19.6014239,33.7823733 Z M17.5276827,33.7823733 C17.5276827,35.5883492 15.8168462,37.1818574 13.846792,37.1818574 C12.6543908,37.1818574 11.5656766,36.5444541 10.9435542,35.5352322 C13.1728261,34.4197765 14.1060096,31.7108126 13.069139,29.3736673 C12.7580778,28.6831471 12.2396425,28.0457438 11.6175201,27.6208083 C11.1509284,27.3021067 10.528806,27.4083406 10.1659013,27.886393 C9.85484008,28.3644455 9.95852714,29.0018487 10.4251189,29.3736673 C10.4251189,29.3736673 10.4251189,29.3736673 10.4251189,29.3736673 C11.0990848,29.8517198 11.4619895,30.5953569 11.4619895,31.392111 C11.410146,32.8262684 10.2695883,33.994841 8.86981299,33.9417241 C8.81796946,33.9417241 8.76612593,33.9417241 8.71428239,33.9417241 C7.52188118,33.6230224 6.64054115,32.5075667 6.64054115,31.2327602 C6.64054115,30.7015908 6.2257929,30.2235383 5.65551406,30.1704214 C4.25573872,30.0641875 3.11518103,28.8956149 3.11518103,27.4614575 C3.11518103,27.036522 3.2188681,26.6647034 3.37439869,26.2928848 C3.58177281,25.8679493 3.47808575,25.3367799 3.11518103,25.0180783 C1.92277982,24.0088565 1.76724922,22.2559975 2.75227632,21.0343079 C2.85596338,20.928074 2.95965044,20.7687232 3.11518103,20.6624893 C3.0633375,20.7156062 3.16702456,20.7156062 3.27071163,20.7156062 C3.84099047,20.7156062 4.35942578,20.928074 4.82601756,21.2467756 L5.34445287,21.777945 C5.3962964,21.831062 5.44813993,21.9372958 5.49998347,22.0435297 C5.70735759,22.4684652 5.86288818,22.8934007 5.86288818,23.3714532 C5.86288818,23.9557395 6.32947996,24.433792 6.89975881,24.433792 C7.47003765,24.433792 7.93662943,23.9557395 7.93662943,23.3714532 C7.93662943,20.928074 6.12210584,18.8565134 3.73730341,18.6440456 C3.68545988,18.5909287 3.63361634,18.5378117 3.63361634,18.5378117 C2.75227632,17.9004085 2.233841,16.8911866 2.233841,15.7757309 C2.233841,14.6602752 2.80411985,13.5979364 3.68545988,12.9605331 C3.99652106,12.9074162 4.25573872,12.8542993 4.56679991,12.8542993 C6.32947996,12.8542993 7.7292553,14.0228719 7.7292553,15.5101462 C7.7292553,16.0944325 8.19584708,16.572485 8.76612593,16.572485 C9.33640477,16.572485 9.80299655,16.0944325 9.80299655,15.5101462 C9.80299655,12.9605331 7.62556824,10.8889725 4.82601756,10.7296217 C4.61864344,10.4109201 4.56679991,9.98598455 4.56679991,9.61416597 C4.56679991,8.2862425 5.65551406,7.22390372 6.95160234,7.27702065 C7.0552894,7.27702065 7.10713293,7.27702065 7.15897646,7.27702065 C7.67741177,7.33013759 8.14400355,6.95831902 8.24769061,6.42714963 C8.50690827,5.20546003 9.49193536,4.19623819 10.6843366,3.93065349 C10.8398672,3.98377043 10.9953978,3.98377043 11.0990848,3.98377043 C11.8248943,3.93065349 12.4988602,4.19623819 13.069139,4.6211737 C13.4838873,4.99299227 14.1578532,4.99299227 14.5207579,4.56805676 C14.8836626,4.14312125 14.8836626,3.45260104 14.4689143,3.08078247 L14.4689143,3.08078247 C14.2096967,2.81519777 13.8986355,2.60273001 13.5875743,2.4433792 C13.950479,2.23091144 14.3652273,2.12467756 14.7799755,2.12467756 C16.2315944,2.12467756 17.5795262,3.34636716 17.5795262,4.6211737 L17.5276827,33.7823733 Z" id="Shape" fill="#000000" fill-rule="nonzero"></path>
                <path d="M23.1214911,4.6211737 L23.1733347,33.7823733 C23.1733347,36.7569218 25.8173547,39.3065349 28.9279666,39.3065349 C31.0535514,39.3065349 32.971762,38.0848453 33.9049456,36.1195186 C36.0305304,35.9070508 37.7932104,34.2604257 38.2079587,32.1357481 C40.2816999,31.6045788 41.7851623,29.6923689 41.7851623,27.4614575 C41.7851623,26.9834051 41.7333188,26.5053526 41.5777882,26.0804171 C43.2886247,24.1150903 43.1330941,21.0874248 41.3185706,19.2814489 C42.148067,18.272227 42.6146588,17.0505374 42.6146588,15.722614 C42.6146588,13.8104042 41.6296317,12.0575452 40.0224823,11.0483233 C40.1780129,10.5702709 40.2816999,10.0922184 40.2816999,9.61416597 C40.2816999,7.27702065 38.5190199,5.36481085 36.289748,5.15234309 C35.5120951,3.13389941 33.6457279,1.80597593 31.5719867,1.69974205 C30.6906467,0.58428633 29.3945584,0 27.9947831,0 C25.350763,0 23.1214911,2.12467756 23.1214911,4.6211737 Z M27.9947831,2.12467756 C28.4095313,2.12467756 28.8242796,2.23091144 29.1871843,2.4433792 C28.8761231,2.60273001 28.5650619,2.81519777 28.3058442,3.08078247 C27.891096,3.45260104 27.8392525,4.14312125 28.2540007,4.56805676 C28.6169054,4.99299227 29.2908713,5.04610921 29.7056196,4.6211737 C30.2758984,4.14312125 30.9498643,3.93065349 31.6756738,3.98377043 C31.8312044,3.98377043 31.986735,3.98377043 32.090422,3.93065349 C33.3346668,4.19623819 34.2678503,5.15234309 34.527068,6.42714963 C34.630755,6.95831902 35.0973468,7.33013759 35.6157821,7.27702065 C35.6676257,7.27702065 35.7713127,7.27702065 35.8231563,7.27702065 C37.1192445,7.27702065 38.1561152,8.2862425 38.2079587,9.61416597 C38.2079587,9.98598455 38.1042716,10.3578031 37.948741,10.7296217 C35.2010339,10.8358556 32.971762,12.9605331 32.971762,15.5101462 C32.971762,16.0944325 33.4383538,16.572485 34.0086327,16.572485 C34.5789115,16.572485 35.0455033,16.0944325 35.0455033,15.5101462 C35.0455033,14.0228719 36.4452786,12.8542993 38.2079587,12.8542993 C38.5190199,12.8542993 38.7782375,12.9074162 39.0892987,12.9605331 C40.0224823,13.5979364 40.5409176,14.6602752 40.5409176,15.7757309 C40.5409176,16.8911866 40.0224823,17.9004085 39.1411422,18.5378117 C39.0892987,18.5909287 39.0374552,18.5909287 39.0374552,18.6440456 C37.5339928,18.8033964 36.2379045,19.6532675 35.4602515,20.9811909 C35.0455033,21.7248281 34.8381292,22.5215822 34.8381292,23.3714532 C34.8381292,23.9557395 35.3047209,24.433792 35.8749998,24.433792 C36.4452786,24.433792 36.9118704,23.9557395 36.9118704,23.3714532 C36.9118704,22.8934007 37.0155575,22.4684652 37.2747751,22.0435297 C37.3266187,21.9372958 37.3784622,21.8841789 37.4303057,21.777945 L37.948741,21.2467756 C38.4153328,20.928074 38.9337681,20.7156062 39.504047,20.7156062 C39.607734,20.7156062 39.7114211,20.7156062 39.7632646,20.6624893 C40.9038223,21.6717111 41.0593529,23.4776871 40.0743258,24.6462597 C39.9706387,24.7524936 39.8669517,24.9118444 39.7114211,25.0180783 C39.3485164,25.3367799 39.2448293,25.8679493 39.4522034,26.2928848 C39.607734,26.6647034 39.7114211,27.036522 39.7114211,27.4614575 C39.6595776,28.8956149 38.5708634,30.0641875 37.1710881,30.1704214 C36.6526528,30.2235383 36.186061,30.6484739 36.186061,31.2327602 C36.1342174,32.5075667 35.3047209,33.6230224 34.1123197,33.9417241 C34.0604762,33.9417241 34.0086327,33.9417241 33.9567891,33.9417241 C32.5570138,33.994841 31.3646126,32.8262684 31.3646126,31.392111 C31.3646126,30.5953569 31.7793608,29.7986028 32.4014832,29.3736673 C32.868075,29.0549657 32.971762,28.3644455 32.6607009,27.886393 C32.3496397,27.4083406 31.6756738,27.3021067 31.209082,27.6208083 C29.1871843,29.0549657 28.668749,31.9232804 30.1203678,34.047958 C30.5869596,34.6853612 31.1572385,35.2165306 31.8312044,35.5352322 C31.209082,36.5444541 30.0685243,37.1818574 28.9279666,37.1818574 C26.9579124,37.1818574 25.2470759,35.5883492 25.2470759,33.7823733 L25.1952324,4.6211737 C25.1952324,3.34636716 26.5431642,2.12467756 27.9947831,2.12467756 Z" id="Shape" fill="#000000" fill-rule="nonzero"></path>
                <path d="M16.150553,8.1682583 C16.2990591,7.61960643 15.9525449,7.07095456 15.4080226,6.97119967 C14.8635003,6.82156734 14.3189779,7.17070944 14.2199739,7.71936132 C13.9229617,8.81666506 12.9329211,9.5648267 11.8438765,9.5648267 C11.051844,9.5648267 10.3588156,9.2156846 9.86379528,8.61715529 C9.51728107,8.1682583 8.92325672,8.11838086 8.47773845,8.41764552 C8.03222019,8.76678762 7.98271816,9.36531693 8.27973033,9.81421392 C9.76479122,11.7594342 12.5864069,12.1584537 14.5169861,10.612253 C15.3090185,10.0137237 15.9030429,9.16580716 16.150553,8.1682583 Z" id="Path" fill="#000000" fill-rule="nonzero"></path>
                <path d="M10.9639586,24.4836239 C10.115791,24.1355643 9.11794674,24.2350099 8.31967133,24.7322379 C7.17215041,25.47808 6.67322828,26.8703185 7.07236599,28.2128341 C7.22204263,28.759785 7.82074919,29.008399 8.31967133,28.8592306 C8.86848567,28.7100622 9.11794674,28.1133885 8.9682701,27.6161605 C8.9682701,27.6161605 8.9682701,27.6161605 8.9682701,27.6161605 C8.81859346,27.1686553 9.01816232,26.6714273 9.36740781,26.4228132 C9.61686888,26.2736448 9.91622216,26.223922 10.1656832,26.3730904 C10.6646054,26.5719816 11.2633119,26.3233676 11.4628808,25.8261396 C11.7123418,25.2791888 11.4628808,24.7322379 10.9639586,24.4836239 C10.9639586,24.4836239 10.9639586,24.4836239 10.9639586,24.4836239 Z" id="Path" fill="#000000" fill-rule="nonzero"></path>
                <path d="M13.6416798,12.7168201 C13.133007,12.7168201 12.7168201,13.1897597 12.7168201,13.767797 C12.7168201,14.3458343 13.133007,14.8187739 13.6416798,14.8187739 C14.0116236,14.8187739 14.3353245,15.1340669 14.3353245,15.6070065 C14.3353245,16.0799461 14.0578666,16.3952392 13.6416798,16.3952392 C13.6416798,16.3952392 13.6416798,16.3952392 13.6416798,16.3952392 C13.133007,16.3952392 12.7168201,16.8681788 12.7168201,17.446216 C12.7168201,18.0242533 13.133007,18.4971929 13.6416798,18.4971929 C15.0289692,18.4971929 16.1850438,17.2360207 16.1850438,15.6070065 C16.1850438,14.0305412 15.0752122,12.7168201 13.6416798,12.7168201 C13.6416798,12.7168201 13.6416798,12.7168201 13.6416798,12.7168201 Z" id="Path" fill="#000000" fill-rule="nonzero"></path>
                <path d="M15.2601841,22.9112958 C15.768857,22.9112958 16.1850438,22.4383562 16.1850438,21.8603189 C16.1850438,21.2822816 15.768857,20.809342 15.2601841,20.809342 C13.8728947,20.809342 12.7168201,22.0705143 12.7168201,23.6995284 C12.7168201,25.3285426 13.8266517,26.5897148 15.2601841,26.5897148 C15.2601841,26.5897148 15.2601841,26.5897148 15.2601841,26.5897148 C15.768857,26.5897148 16.1850438,26.1167752 16.1850438,25.5387379 C16.1850438,24.9607007 15.768857,24.4877611 15.2601841,24.4877611 C14.8902403,24.4877611 14.5665394,24.172468 14.5665394,23.6995284 C14.5665394,23.2791377 14.8439973,22.9112958 15.2601841,22.9112958 C15.2601841,22.9112958 15.2601841,22.9112958 15.2601841,22.9112958 Z" id="Path" fill="#000000" fill-rule="nonzero"></path>
                <path d="M30.9617673,11.5607456 C32.3468768,11.5607456 33.63305,10.9100076 34.4740093,9.80875863 C34.8202867,9.3582477 34.7213503,8.75756646 34.2761365,8.40716907 C33.8309228,8.05677169 33.2373044,8.15688522 32.891027,8.60739615 L32.891027,8.60739615 C32.4458132,9.20807739 31.7037903,9.60853155 30.9122991,9.55847478 C29.7745306,9.55847478 28.7851666,8.80762323 28.5378256,7.7063743 C28.389421,7.15574983 27.8947391,6.85540921 27.3505889,6.95552275 C26.8064387,7.10569306 26.5096295,7.60626076 26.6085659,8.15688522 C27.1527161,10.159156 28.9335712,11.5607456 30.9617673,11.5607456 Z" id="Path" fill="#000000" fill-rule="nonzero"></path>
                <path d="M31.2839922,25.7424451 C31.4847905,26.2450777 32.0871855,26.496394 32.5891813,26.295341 C32.8401792,26.1948145 33.1413766,26.1948145 33.3923746,26.3958675 C33.7939712,26.6471838 33.9445699,27.1498164 33.7939712,27.6021857 C33.6433725,28.1550816 33.8943704,28.7079774 34.4465657,28.8587672 C34.9987611,29.009557 35.5509565,28.7582407 35.7015553,28.2053448 C35.7015553,28.2053448 35.7015553,28.2053448 35.7015553,28.2053448 C36.1031519,26.8985001 35.6011561,25.4408656 34.4465657,24.7371799 C33.6433725,24.2345473 32.6895804,24.1340208 31.785988,24.4858636 C31.3341917,24.6366534 31.0831938,25.2398125 31.2839922,25.7424451 Z" id="Path" fill="#000000" fill-rule="nonzero"></path>
                <path d="M29.1330788,18.4971929 C29.6417516,18.4971929 30.0579385,18.0242533 30.0579385,17.446216 C30.0579385,16.8681788 29.6417516,16.3952392 29.1330788,16.3952392 C28.763135,16.3952392 28.4394341,16.0799461 28.4394341,15.6070065 C28.4394341,15.1866158 28.716892,14.8187739 29.1330788,14.8187739 C29.1330788,14.8187739 29.1330788,14.8187739 29.1330788,14.8187739 C29.6417516,14.8187739 30.0579385,14.3458343 30.0579385,13.767797 C30.0579385,13.1897597 29.6417516,12.7168201 29.1330788,12.7168201 C27.7457894,12.7168201 26.5897148,13.9779924 26.5897148,15.6070065 C26.5897148,17.1834718 27.6995464,18.4971929 29.1330788,18.4971929 C29.1330788,18.4971929 29.1330788,18.4971929 29.1330788,18.4971929 Z" id="Path" fill="#000000" fill-rule="nonzero"></path>
                <path d="M27.5145744,24.4877611 C27.0059016,24.4877611 26.5897148,24.9607007 26.5897148,25.5387379 C26.5897148,26.1167752 27.0059016,26.5897148 27.5145744,26.5897148 C28.9018639,26.5897148 30.0579385,25.3285426 30.0579385,23.6995284 C30.0579385,22.1230631 28.9481069,20.809342 27.5145744,20.809342 C27.5145744,20.809342 27.5145744,20.809342 27.5145744,20.809342 C27.0059016,20.809342 26.5897148,21.2822816 26.5897148,21.8603189 C26.5897148,22.4383562 27.0059016,22.9112958 27.5145744,22.9112958 C27.8845183,22.9112958 28.2082192,23.2265888 28.2082192,23.6995284 C28.2082192,24.1199192 27.9307613,24.4877611 27.5145744,24.4877611 C27.5145744,24.4877611 27.5145744,24.4877611 27.5145744,24.4877611 Z" id="Path" fill="#000000" fill-rule="nonzero"></path>
            </g>
        </g>
    </g>
</svg>