<?xml version="1.0" encoding="UTF-8"?>
<svg width="41.618684px" height="42.7747586px" viewBox="0 0 41.618684 42.7747586" version="1.1" xmlns="http://www.w3.org/2000/svg" xmlns:xlink="http://www.w3.org/1999/xlink">
    <title>9AB32DC5-4E75-45AC-BBF0-99FC5CB93250</title>
    <defs>
        <filter id="filter-1">
            <feColorMatrix in="SourceGraphic" type="matrix" values="0 0 0 0 1.000000 0 0 0 0 1.000000 0 0 0 0 1.000000 0 0 0 1.000000 0"></feColorMatrix>
        </filter>
    </defs>
    <g id="Symbols" stroke="none" stroke-width="1" fill="none" fill-rule="evenodd">
        <g id="noun_Map-path_3627335" filter="url(#filter-1)">
            <g transform="translate(0.000000, 0.000000)" id="Group" fill="#000000" fill-rule="nonzero">
                <path d="M8.33823809,21.0174354 L7.73401794,20.5382417 C7.41982346,20.289061 0.0435038509,14.3806028 0.0435038509,8.23733961 C0.0435038509,3.70416726 3.76549998,0.0143758108 8.33823809,0.0143758108 C12.9109762,0.0143758108 16.6329723,3.70416726 16.6329723,8.23733961 C16.6329723,14.3470592 9.25665272,20.289061 8.94245824,20.5382417 L8.33823809,21.0174354 Z M8.33823809,1.93115059 C4.82892745,1.93115059 1.97700834,4.75839339 1.97700834,8.23733961 C1.97700834,12.540499 6.6415879,17.0401278 8.33823809,18.5304202 C10.0300545,17.0305439 14.6994678,12.5117474 14.6994678,8.23733961 C14.6994678,4.75839339 11.8475487,1.93115059 8.33823809,1.93115059 Z" id="Shape"></path>
                <path d="M8.33823809,11.1460453 C6.71892808,11.1460453 5.40414503,9.84263848 5.40414503,8.23733961 C5.40414503,6.63204073 6.71892808,5.32863388 8.33823809,5.32863388 C9.9575481,5.32863388 11.2723311,6.63204073 11.2723311,8.23733961 C11.2723311,9.84263848 9.9575481,11.1460453 8.33823809,11.1460453 Z M8.33823809,7.24540866 C7.78718931,7.24540866 7.33764952,7.6910588 7.33764952,8.23733961 C7.33764952,8.78362042 7.78718931,9.22927055 8.33823809,9.22927055 C8.88928687,9.22927055 9.33882666,8.78362042 9.33882666,8.23733961 C9.33882666,7.6910588 8.88928687,7.24540866 8.33823809,7.24540866 Z" id="Shape"></path>
                <path d="M30.0901635,41.1771142 L29.4859434,40.6979205 C29.3747669,40.6116656 26.7355333,38.5080053 24.0624633,35.3453269 C22.4818234,33.4716796 21.2202117,31.612408 20.3066309,29.8202236 C19.1416944,27.5296777 18.5519755,25.3301787 18.5519755,23.2888135 C18.5519755,16.9826245 23.7241,11.855252 30.0853298,11.855252 C33.1644357,11.855252 36.0598586,13.0436524 38.2398849,15.2048159 C40.4199113,17.3659795 41.618684,20.2363497 41.618684,23.2888135 C41.618684,25.3205948 41.0289652,27.51051 39.8640287,29.8010559 C38.9552816,31.5884483 37.6936699,33.4477199 36.1081963,35.3261592 C33.4447938,38.4984214 30.8055602,40.6068737 30.6943837,40.6979205 L30.0901635,41.1771142 Z M30.0901635,13.7720268 C24.797195,13.7720268 20.4903138,18.0416426 20.4903138,23.2888135 C20.4903138,29.9160623 27.895636,36.8020757 30.0901635,38.6948908 C32.2846911,36.7924919 39.6900133,29.8729349 39.6900133,23.2888135 C39.6900133,18.0416426 35.3831321,13.7720268 30.0901635,13.7720268 Z" id="Shape"></path>
                <path d="M30.0901635,27.055276 C27.9971449,27.055276 26.2908272,25.3637222 26.2908272,23.2888135 C26.2908272,21.2139049 27.9971449,19.5223511 30.0901635,19.5223511 C32.1831821,19.5223511 33.8894999,21.2139049 33.8894999,23.2888135 C33.8894999,25.3637222 32.1831821,27.055276 30.0901635,27.055276 Z M30.0901635,21.4391259 C29.0605724,21.4391259 28.2243317,22.268131 28.2243317,23.2888135 C28.2243317,24.3094961 29.0605724,25.1385012 30.0901635,25.1385012 C31.1197547,25.1385012 31.9559954,24.3094961 31.9559954,23.2888135 C31.9559954,22.268131 31.1197547,21.4391259 30.0901635,21.4391259 Z" id="Shape"></path>
                <g transform="translate(1.691816, 19.023990)">
                    <path d="M10.7986225,2.05094901 C10.4844281,1.95990221 10.1847349,1.91677478 9.87537416,1.91677478 L9.87537416,0 C10.363584,0 10.8566277,0.0718790542 11.3400038,0.210845226 L10.7986225,2.05094901 Z" id="Path"></path>
                    <path d="M20.5096488,22.0764535 L18.1507734,22.0764535 L18.1507734,20.1596787 L20.5096488,20.1596787 L20.5096488,22.0764535 Z M15.7967316,22.0764535 L13.4378562,22.0764535 L13.4378562,20.1596787 L15.7967316,20.1596787 L15.7967316,22.0764535 Z M11.0789807,22.0764535 L8.72010523,22.0764535 L8.72010523,20.1596787 L11.0789807,20.1596787 L11.0789807,22.0764535 Z M6.26938829,22.038118 C5.35580742,21.9470712 4.48089664,21.6787227 3.66882476,21.2474484 L4.58723939,19.5606866 C5.1721245,19.8721625 5.80534722,20.06384 6.4675725,20.1309271 L6.26938829,22.038118 Z M1.57097239,19.5415189 C0.986087287,18.8371041 0.551048778,18.0416426 0.28035815,17.1695101 L2.12685493,16.6040615 C2.32020538,17.2318053 2.63439986,17.8116296 3.05977085,18.3195749 L1.57097239,19.5415189 Z M1.92383696,14.663327 L0,14.4908173 C0.0821739406,13.5803493 0.338363285,12.7130087 0.763734271,11.9031714 L2.4797195,12.7896797 C2.17035878,13.374296 1.9818421,14.0068317 1.92383696,14.663327 Z M3.70749485,11.2706357 L2.46038446,9.80909492 C3.16127983,9.21968668 3.96368419,8.77882848 4.83376121,8.50089614 L5.42831384,10.3266241 C4.79509112,10.5230935 4.21503978,10.8393614 3.70749485,11.2706357 Z M9.81253526,10.0774434 L7.45365979,10.0774434 L7.45365979,8.16066862 L9.81253526,8.16066862 L9.81253526,10.0774434 Z M12.5677792,9.31552542 L11.5430218,7.6910588 C12.0602342,7.36999902 12.4662702,6.91476501 12.7272933,6.37327614 L14.4771148,7.19269735 C14.0565776,8.06482988 13.3943523,8.79799623 12.5677792,9.31552542 Z M12.9979839,4.62901109 C12.9206437,4.03960284 12.6692881,3.47894622 12.2729197,3.01412834 L13.7472169,1.77780861 C14.3804396,2.52055883 14.7864755,3.42144298 14.9121533,4.37503843 L12.9979839,4.62901109 Z" id="Shape"></path>
                    <rect id="Rectangle" x="22.8878593" y="20.1596787" width="1.2084403" height="1.91677478"></rect>
                </g>
            </g>
        </g>
    </g>
</svg>