<?xml version="1.0" encoding="UTF-8"?>
<svg width="36px" height="37px" viewBox="0 0 36 37" version="1.1" xmlns="http://www.w3.org/2000/svg" xmlns:xlink="http://www.w3.org/1999/xlink">
    <title>5D64D0D4-E930-4A2E-9D56-8D5A892267DB</title>
    <defs>
        <filter id="filter-1">
            <feColorMatrix in="SourceGraphic" type="matrix" values="0 0 0 0 0.196078 0 0 0 0 0.211765 0 0 0 0 0.262745 0 0 0 1.000000 0"></feColorMatrix>
        </filter>
    </defs>
    <g id="Symbols" stroke="none" stroke-width="1" fill="none" fill-rule="evenodd" opacity="0.4">
        <g id="noun_Map-path_3627335" filter="url(#filter-1)">
            <g id="Group" fill="#000000" fill-rule="nonzero">
                <path d="M7.21254355,18.18 L6.68989547,17.7654993 C6.41811847,17.549959 0.037630662,12.4391655 0.037630662,7.12526676 C0.037630662,3.20409029 3.25714286,0.0124350205 7.21254355,0.0124350205 C11.1679443,0.0124350205 14.3874564,3.20409029 14.3874564,7.12526676 C14.3874564,12.4101505 8.00696864,17.549959 7.73519164,17.7654993 L7.21254355,18.18 Z M7.21254355,1.67043776 C4.17700348,1.67043776 1.71010453,4.11599179 1.71010453,7.12526676 C1.71010453,10.8474829 5.74494774,14.7396443 7.21254355,16.0287415 C8.67595819,14.7313543 12.7149826,10.8226129 12.7149826,7.12526676 C12.7149826,4.11599179 10.2480836,1.67043776 7.21254355,1.67043776 Z" id="Shape"></path>
                <path d="M7.21254355,9.64128591 C5.81184669,9.64128591 4.67456446,8.51384405 4.67456446,7.12526676 C4.67456446,5.73668947 5.81184669,4.60924761 7.21254355,4.60924761 C8.61324042,4.60924761 9.75052265,5.73668947 9.75052265,7.12526676 C9.75052265,8.51384405 8.61324042,9.64128591 7.21254355,9.64128591 Z M7.21254355,6.26725034 C6.7358885,6.26725034 6.34703833,6.65273598 6.34703833,7.12526676 C6.34703833,7.59779754 6.7358885,7.98328317 7.21254355,7.98328317 C7.68919861,7.98328317 8.07804878,7.59779754 8.07804878,7.12526676 C8.07804878,6.65273598 7.68919861,6.26725034 7.21254355,6.26725034 Z" id="Shape"></path>
                <path d="M26.0278746,35.6180438 L25.5052265,35.2035431 C25.4090592,35.128933 23.1261324,33.309275 20.8139373,30.5735705 C19.4466899,28.9528728 18.3554007,27.3446101 17.5651568,25.7943776 C16.5574913,23.8130643 16.0473868,21.9105062 16.0473868,20.1447332 C16.0473868,14.6899042 20.5212544,10.2547469 26.0236934,10.2547469 C28.687108,10.2547469 31.1916376,11.2827086 33.0773519,13.1521067 C34.9630662,15.0215048 36,17.5043639 36,20.1447332 C36,21.9022161 35.4898955,23.7964843 34.48223,25.7777975 C33.6961672,27.3238851 32.604878,28.9321477 31.2334495,30.5569904 C28.9296167,33.300985 26.6466899,35.124788 26.5505226,35.2035431 L26.0278746,35.6180438 Z M26.0278746,11.9127497 C21.4494774,11.9127497 17.7240418,15.6059508 17.7240418,20.1447332 C17.7240418,25.8772777 24.1296167,31.8336525 26.0278746,33.4709302 C27.9261324,31.8253625 34.3317073,25.8399726 34.3317073,20.1447332 C34.3317073,15.6059508 30.6062718,11.9127497 26.0278746,11.9127497 Z" id="Shape"></path>
                <path d="M26.0278746,23.4027086 C24.2174216,23.4027086 22.7414634,21.9395212 22.7414634,20.1447332 C22.7414634,18.3499453 24.2174216,16.8867579 26.0278746,16.8867579 C27.8383275,16.8867579 29.3142857,18.3499453 29.3142857,20.1447332 C29.3142857,21.9395212 27.8383275,23.4027086 26.0278746,23.4027086 Z M26.0278746,18.5447606 C25.1372822,18.5447606 24.4139373,19.2618468 24.4139373,20.1447332 C24.4139373,21.0276197 25.1372822,21.7447059 26.0278746,21.7447059 C26.9184669,21.7447059 27.6418118,21.0276197 27.6418118,20.1447332 C27.6418118,19.2618468 26.9184669,18.5447606 26.0278746,18.5447606 Z" id="Shape"></path>
                <g transform="translate(1.463415, 16.455677)">
                    <path d="M9.34076655,1.77406293 C9.06898955,1.6953078 8.8097561,1.65800274 8.54216028,1.65800274 L8.54216028,0 C8.96445993,0 9.39094077,0.0621751026 9.80905923,0.182380301 L9.34076655,1.77406293 Z" id="Path"></path>
                    <path d="M17.7407666,19.0960465 L15.7003484,19.0960465 L15.7003484,17.4380438 L17.7407666,17.4380438 L17.7407666,19.0960465 Z M13.6641115,19.0960465 L11.6236934,19.0960465 L11.6236934,17.4380438 L13.6641115,17.4380438 L13.6641115,19.0960465 Z M9.58327526,19.0960465 L7.54285714,19.0960465 L7.54285714,17.4380438 L9.58327526,17.4380438 L9.58327526,19.0960465 Z M5.42299652,19.0628865 C4.63275261,18.9841313 3.87595819,18.7520109 3.17351916,18.3789603 L3.96794425,16.9199179 C4.4738676,17.1893434 5.02160279,17.3551436 5.59442509,17.4131737 L5.42299652,19.0628865 Z M1.35888502,16.9033379 C0.852961672,16.2940219 0.476655052,15.6059508 0.242508711,14.8515595 L1.83972125,14.3624487 C2.00696864,14.9054446 2.27874564,15.4069904 2.6466899,15.8463611 L1.35888502,16.9033379 Z M1.6641115,12.6837209 L0,12.5345007 C0.0710801394,11.7469494 0.292682927,10.9967031 0.660627178,10.296197 L2.14494774,11.0630233 C1.87735192,11.5687141 1.71428571,12.115855 1.6641115,12.6837209 Z M3.20696864,9.74905609 L2.128223,8.484829 C2.73449477,7.97499316 3.42857143,7.59365253 4.18118467,7.35324213 L4.69547038,8.93248974 C4.14773519,9.10243502 3.64599303,9.37600547 3.20696864,9.74905609 Z M8.48780488,8.71694938 L6.44738676,8.71694938 L6.44738676,7.05894665 L8.48780488,7.05894665 L8.48780488,8.71694938 Z M10.8710801,8.0578933 L9.98466899,6.65273598 C10.4320557,6.37502052 10.7832753,5.98124487 11.0090592,5.5128591 L12.5226481,6.22165527 C12.158885,6.97604651 11.5860627,7.61023256 10.8710801,8.0578933 Z M11.2432056,4.00407661 C11.1763066,3.49424077 10.958885,3.00927497 10.6160279,2.6072093 L11.8912892,1.53779754 C12.4390244,2.1802736 12.7902439,2.95953488 12.8989547,3.78439124 L11.2432056,4.00407661 Z" id="Shape"></path>
                    <rect id="Rectangle" x="19.7979094" y="17.4380438" width="1.04529617" height="1.65800274"></rect>
                </g>
            </g>
        </g>
    </g>
</svg>