<?xml version="1.0" encoding="UTF-8"?>
<svg width="76px" height="106px" viewBox="0 0 76 106" version="1.1" xmlns="http://www.w3.org/2000/svg" xmlns:xlink="http://www.w3.org/1999/xlink">
    <title>Icon/N.Matcher</title>
    <defs>
        <path d="M67.9171665,37.4230406 C67.9171665,37.7153919 67.9420166,38.0077432 68,38.2919736 C67.7514996,48.9140699 62.7483576,58.7484419 56.013996,68.7452314 C50.3150528,77.1990557 43.8706084,85.9289896 38.3124821,95 C33.0359897,85.969594 26.9560126,77.2559018 21.5469866,68.82644 C14.9700086,58.5697828 10.0662668,48.475543 10.0662668,37.4880076 C10.0662668,37.2525024 10.0414167,37.0088763 10,36.7733711 C10.3561839,21.3355996 23.0959726,9 38.9254499,9 C54.9868609,9 67.9171665,21.6766761 67.9171665,37.4230406 Z" id="path-1"></path>
        <filter x="-24.1%" y="-11.6%" width="148.3%" height="132.6%" filterUnits="objectBoundingBox" id="filter-2">
            <feOffset dx="0" dy="4" in="SourceAlpha" result="shadowOffsetOuter1"></feOffset>
            <feGaussianBlur stdDeviation="4" in="shadowOffsetOuter1" result="shadowBlurOuter1"></feGaussianBlur>
            <feColorMatrix values="0 0 0 0 0.0562383776   0 0 0 0 0.121895047   0 0 0 0 0.209437274  0 0 0 0.16 0" type="matrix" in="shadowBlurOuter1"></feColorMatrix>
        </filter>
        <linearGradient x1="100%" y1="50%" x2="0%" y2="50%" id="linearGradient-3">
            <stop stop-color="#A64EFE" offset="0%"></stop>
            <stop stop-color="#4346F7" offset="100%"></stop>
        </linearGradient>
    </defs>
    <g id="Icon/N.Matcher" stroke="none" stroke-width="1" fill="none" fill-rule="evenodd">
        <g id="Fill-1">
            <use fill="black" fill-opacity="1" filter="url(#filter-2)" xlink:href="#path-1"></use>
            <use fill="#FFFFFF" fill-rule="evenodd" xlink:href="#path-1"></use>
        </g>
        <path d="M50.2288534,36.7270943 L40.1269772,36.7270943 L41.8205837,21.9764238 C41.8579893,21.5700721 41.6462421,21.1874354 41.308411,21.0509046 C40.9705799,20.9143738 40.5946805,21.0595194 40.3991881,21.401982 L28.114227,45.9359623 C27.967946,46.2071737 27.9617478,46.5473492 28.0980237,46.8252502 C28.2342995,47.1031513 28.4917462,47.2753352 28.7710417,47.2753741 L38.7219682,47.2753741 L37.3798067,62.04824 C37.3526701,62.4530427 37.5708259,62.826906 37.908831,62.9548523 C38.2468361,63.0827986 38.6178477,62.931955 38.8085281,62.5890591 L50.8904878,38.0577158 C51.0331214,37.7861439 51.0366559,37.4481293 50.8997414,37.1727591 C50.7628279,36.8973344 50.5065685,36.7271036 50.2288534,36.7270943 Z" id="Path-Copy-4" fill="url(#linearGradient-3)" fill-rule="nonzero"></path>
    </g>
</svg>