<svg xmlns="http://www.w3.org/2000/svg" width="14" height="14" viewBox="0 0 14 14">
    <g fill="none" fill-rule="evenodd">
        <g>
            <g transform="translate(-350.000000, -451.000000) translate(350.000000, 451.000000)">
                <circle cx="7" cy="7" r="7" fill="#D82A59"/>
                <g fill="#FFF" fill-rule="nonzero">
                    <path d="M1 9c-.296 0-.556-.112-.74-.3C.11 8.515 0 8.29 0 7.99c0-.261.111-.523.296-.71.37-.373 1.037-.373 1.408 0 .185.187.296.449.296.71 0 .3-.111.524-.296.71-.185.225-.445.3-.704.3zM1 6c-.556 0-1-.367-1-.827V.827C0 .367.444 0 1 0s1 .367 1 .827v4.346C2 5.633 1.556 6 1 6z" transform="translate(6.000000, 3.000000)"/>
                </g>
            </g>
        </g>
    </g>
</svg>
