<svg xmlns="http://www.w3.org/2000/svg" width="41" height="48" viewBox="0 0 41 48">
    <g fill="none" fill-rule="evenodd">
        <g fill="#323643" fill-rule="nonzero">
            <g>
                <g>
                    <path d="M0 48h41V18.54L20.5 0 0 18.54V48zm1.192-28.92L20.5 1.62l19.308 17.46V46.8H1.192V19.08z"/>
                </g>
                <path d="M24.278 24c1.562 0 2.833 1.154 2.833 2.571 0 .473.422.858.945.858.522 0 .944-.385.944-.858 0-2.363-2.119-4.285-4.722-4.285h-2.834v-3.429c0-.473-.422-.857-.944-.857s-.944.384-.944.857v3.429h-2.834c-1.327 0-2.602.512-3.494 1.403-.893.891-1.333 2.094-1.205 3.3.228 2.17 2.363 3.868 4.862 3.868h2.67V36h-2.833c-1.562 0-2.833-1.154-2.833-2.571 0-.473-.422-.858-.945-.858-.522 0-.944.385-.944.858 0 2.363 2.119 4.285 4.722 4.285h2.834v3.429c0 .473.422.857.944.857s.944-.384.944-.857v-3.429h2.671c2.499 0 4.634-1.699 4.862-3.867.128-1.206-.312-2.41-1.205-3.3-.892-.892-2.167-1.404-3.494-1.404h-2.834V24h2.834zm-4.722 5.143h-2.671c-1.536 0-2.846-1.018-2.983-2.316-.077-.737.18-1.443.723-1.985.536-.535 1.3-.842 2.097-.842h2.834v5.143zm4.722 1.714c.797 0 1.56.307 2.098.843.542.542.8 1.247.723 1.984C26.96 34.983 25.65 36 24.115 36h-2.67v-5.143h2.833z"/>
            </g>
        </g>
    </g>
</svg>
