<svg xmlns="http://www.w3.org/2000/svg" width="41.25" height="48" viewBox="0 0 41.25 48">
    <g fill="none" fill-rule="evenodd">
        <g fill="#323643" fill-rule="nonzero">
            <g>
                <g>
                    <path d="M0 48h41.25V18.54L20.625 0 0 18.54V48zm1.2-28.92L20.624 1.62l19.426 17.46V46.8H1.199V19.08z"/>
                </g>
                <g>
                    <path d="M15.613 1.875H.877c-.485 0-.877.42-.877.938 0 .517.392.937.877.937H21.75L15.613 0v1.875zM20.873 7.5H0l6.137 3.75V9.375h14.736c.485 0 .877-.42.877-.938 0-.517-.392-.937-.877-.937z" transform="translate(9.75 25.5)"/>
                </g>
            </g>
        </g>
    </g>
</svg>
