<?xml version="1.0" encoding="UTF-8"?>
<svg width="15px" height="17px" viewBox="0 0 15 17" version="1.1" xmlns="http://www.w3.org/2000/svg" xmlns:xlink="http://www.w3.org/1999/xlink">
    <title>AF528ECD-F73D-4782-AB66-D5F40086A58B</title>
    <g id="Page-1" stroke="none" stroke-width="1" fill="none" fill-rule="evenodd">
        <g id="Userarea-Account-settings-2" transform="translate(-78.000000, -388.000000)" fill="#000000" fill-rule="nonzero">
            <g id="noun_password_3019482" transform="translate(78.000000, 388.000000)">
                <path d="M12.5740319,7.0122825 L11.8735763,7.0122825 L11.8735763,4.45445241 C11.8735763,2.00102354 9.90888383,0 7.5,0 C5.09111617,0 3.12642369,2.00102354 3.12642369,4.45445241 L3.12642369,7.0122825 L2.42596811,7.0122825 C1.09339408,7.0122825 0,8.1258956 0,9.48311157 L0,14.5291709 C0,15.8863869 1.09339408,17 2.42596811,17 L12.5740319,17 C13.9066059,17 15,15.8863869 15,14.5291709 L15,9.48311157 C15,8.1258956 13.9236902,7.0122825 12.5740319,7.0122825 Z M4.15148064,4.45445241 C4.15148064,2.5752303 5.65489749,1.04401228 7.5,1.04401228 C9.34510251,1.04401228 10.8314351,2.5752303 10.8314351,4.4370522 L10.8314351,6.99488229 L4.15148064,6.99488229 L4.15148064,4.45445241 Z M13.9578588,14.5291709 C13.9578588,15.3121801 13.3257403,15.9385875 12.5740319,15.9385875 L2.40888383,15.9385875 C1.64009112,15.9385875 1.02505695,15.2947799 1.02505695,14.5291709 L1.02505695,9.48311157 C1.02505695,8.70010235 1.6571754,8.07369498 2.40888383,8.07369498 L12.5569476,8.07369498 C13.3257403,8.07369498 13.9407745,8.71750256 13.9407745,9.48311157 L13.9578588,14.5291709 Z" id="Shape"></path>
            </g>
        </g>
    </g>
</svg>