<svg xmlns="http://www.w3.org/2000/svg" width="14" height="12" viewBox="0 0 14 12">
  <defs>
    <linearGradient id="restart-a" x1="100%" x2="0%" y1="50%" y2="50%">
      <stop offset="0%" stop-color="#A64EFE"/>
      <stop offset="100%" stop-color="#4346F7"/>
    </linearGradient>
  </defs>
  <path fill="url(#restart-a)" d="M13.8999976,2.28626255 C13.7831539,2.15705922 13.5833789,2.1237745 13.3834277,2.20554187 L11.7079778,2.89087217 C10.5997903,1.15906189 8.59538994,0 6.31163047,0 C2.83137904,0 0,2.69158252 0,6 C0,9.30841748 2.83137904,12 6.31163047,12 C6.79811959,12 7.19247263,11.6251178 7.19247263,11.1626485 C7.19247263,10.7001793 6.79811959,10.3252971 6.31163047,10.3252971 C3.80277178,10.3252552 1.76168432,8.38494442 1.76168432,6 C1.76168432,3.61505558 3.80277178,1.67470291 6.31163047,1.67470291 C7.86979621,1.67470291 9.24734526,2.42329512 10.0677176,3.56184189 L8.47026631,4.2152691 C8.29916272,4.28527169 8.19218444,4.4090741 8.17668162,4.55494072 C8.16122284,4.70076548 8.24010225,4.84240348 8.39306049,4.94342993 L12.5111297,7.66394295 C12.6048954,7.72586509 12.707029,7.7586474 12.8064761,7.7586474 C12.8065201,7.7586474 12.8065201,7.7586474 12.8065201,7.7586474 C13.0279639,7.7586474 13.2020183,7.60080665 13.2395422,7.36597143 L13.9927943,2.65285502 C14.0159164,2.50820256 13.9829729,2.37803627 13.8999976,2.28626255 Z" transform="matrix(-1 0 0 1 14 0)"/>
</svg>
