<svg xmlns="http://www.w3.org/2000/svg" width="84" height="85" viewBox="0 0 84 85">
    <g fill="none" fill-rule="evenodd">
        <g>
            <g transform="translate(-466 -768) translate(466 768.912)">
                <circle cx="42" cy="42" r="41.4" fill="#FFF" stroke="#323643" stroke-opacity=".25" stroke-width="1.2"/>
                <g fill="#323643" fill-opacity=".5" fill-rule="nonzero">
                    <path d="M.523 12.391c.108 0 .215-.052.323-.105l1.503-1.049v22.239c0 .314.215.524.537.524h27.228c.322 0 .537-.21.537-.524V11.237l1.503 1.05c.215.157.591.104.752-.106.161-.21.108-.577-.107-.734l-5.532-3.934V1.954c0-.315-.214-.525-.537-.525h-2.792c-.322 0-.537.21-.537.525v2.884L16.74.118c-.214-.157-.429-.157-.644 0L.201 11.447c-.215.157-.268.524-.107.734.107.105.268.21.43.21zm18.582 20.56h-5.263V21.307h5.263v11.644zm5.37-30.473h1.665V6.78l-1.665-1.206V2.478zm-8.002-1.363l13.05 9.335v22.501h-9.344V20.783c0-.315-.215-.525-.537-.525h-6.337c-.323 0-.537.21-.537.525V32.95H3.37v-22.5l13.103-9.336z" transform="translate(25 25)"/>
                    <path d="M23.476 30h3.048c.286 0 .476-.212.476-.53v-5.616-.053C26.952 22.795 26.095 22 25 22s-1.952.795-2 1.748v5.723c0 .264.238.529.476.529zm.476-6.093c0-.477.477-.847 1.048-.847.571 0 1.048.37 1.048.794v5.086h-2.096v-5.033zM7.476 30h3.048c.286 0 .476-.213.476-.533v-5.654-.053c-.048-1.013-.905-1.76-2-1.76s-1.952.8-2 1.76v5.707c0 .266.19.533.476.533zm.476-6.133c0-.48.477-.854 1.048-.854.571 0 1.048.374 1.048.8v5.12H7.952v-5.066zM13.5 15h6c.3 0 .5-.194.5-.485v-1.797-.097C19.95 11.117 18.4 10 16.5 10s-3.4 1.165-3.5 2.621v1.894c0 .29.2.485.5.485zm5.5-2.282v1.311h-2v-3.01c1.1.146 1.95.874 2 1.7zm-5 .098v-.049c0-.825.85-1.553 2-1.699v2.961h-2v-1.213z" transform="translate(25 25)"/>
                </g>
            </g>
        </g>
    </g>
</svg>
