<svg xmlns="http://www.w3.org/2000/svg" width="15" height="11" viewBox="0 0 15 11">
    <g fill="none" fill-rule="evenodd" opacity=".767">
        <g fill="#000" fill-rule="nonzero">
            <g>
                <g>
                    <path d="M4 11c.114-.006.205-.047.261-.1l3.62-3.415c.16-.157.153-.392.016-.536-.138-.144-.394-.151-.54-.015L4.382 9.738V.379C4.38.17 4.21 0 3.999 0c-.21 0-.38.17-.38.38v9.358L.64 6.934C.496 6.798.244 6.81.102 6.95c-.147.144-.13.4.015.536l3.62 3.414c.093.09.172.095.262.101z"/>
                </g>
                <g>
                    <path d="M4 11c.114-.006.205-.047.261-.1l3.62-3.415c.16-.157.153-.392.016-.536-.138-.144-.394-.151-.54-.015L4.382 9.738V.379C4.38.17 4.21 0 3.999 0c-.21 0-.38.17-.38.38v9.358L.64 6.934C.496 6.798.244 6.81.102 6.95c-.147.144-.13.4.015.536l3.62 3.414c.093.09.172.095.262.101z" transform="rotate(180 7.5 5.5)"/>
                </g>
            </g>
        </g>
    </g>
</svg>
