<?xml version="1.0" encoding="UTF-8"?>
<svg width="35px" height="41.7452531px" viewBox="0 0 35 41.7452531" version="1.1" xmlns="http://www.w3.org/2000/svg" xmlns:xlink="http://www.w3.org/1999/xlink">
    <title>7D744F91-110D-46BD-B6EE-14C38499BE71</title>
    <g id="Symbols" stroke="none" stroke-width="1" fill="none" fill-rule="evenodd" opacity="0.4">
        <g id="Territory" fill="#323643" fill-rule="nonzero">
            <g id="noun_map-location_3778278" transform="translate(0.000000, 15.745253)">
                <path d="M34.4141,5.09 L28.4141,2.3615 C28.0876142,2.20476511 27.7019007,2.23680109 27.4057458,2.44525028 C27.1095909,2.65369947 26.9492832,3.00598155 26.9866603,3.36620613 C27.0240374,3.72643072 27.2532573,4.0382952 27.5859,4.1815 L33,6.6436 L33,23.4468 L24,19.356 L24,10 C24,9.44771525 23.5522847,9 23,9 C22.4477153,9 22,9.44771525 22,10 L22,19.356 L13,23.4468 L13,11 C13,10.4477153 12.5522847,10 12,10 C11.4477153,10 11,10.4477153 11,11 L11,23.4473 L2,19.356 L2,2.5527 L6.5864,4.6372 C6.91342971,4.79739582 7.30169005,4.76715267 7.59996913,4.55824906 C7.89824822,4.34934546 8.05938642,3.99481025 8.02062685,3.63272072 C7.98186728,3.27063119 7.74933806,2.95823578 7.4136,2.8172 L1.4136,0.0901 C1.10417164,-0.0504661002 0.744531666,-0.0242539168 0.458755305,0.159693388 C0.172978944,0.343640694 0,0.660140171 0,1 L0,20 C0,20.3921176 0.229309564,20.7480043 0.5864,20.91 L11.5864,25.91 C11.6014,25.9168 11.6176,25.914 11.6328,25.92 C11.748579,25.9695534 11.8727055,25.9966997 11.9986,26 C12.1270736,25.9968735 12.2514945,25.9697222 12.3675,25.92 C12.3824,25.914 12.3989,25.9167 12.4136,25.91 L23,21.0981 L33.5864,25.91 C33.8958445,26.0505734 34.2555046,26.0243507 34.5412867,25.8403795 C34.8270688,25.6564083 35,25.3398776 35,25 L35,6 C35,5.6080585 34.7708575,5.25230297 34.4141,5.09 Z" id="Path"></path>
            </g>
            <path d="M18.0278746,25.3632969 L17.5052265,24.9487962 C17.4090592,24.874186 15.1261324,23.054528 12.8139373,20.3188235 C11.4466899,18.6981259 10.3554007,17.0898632 9.56515679,15.5396306 C8.55749129,13.5583174 8.04738676,11.6557592 8.04738676,9.88998632 C8.04738676,4.43515732 12.5212544,1.59872116e-14 18.0236934,1.59872116e-14 C20.687108,1.59872116e-14 23.1916376,1.0279617 25.0773519,2.89735978 C26.9630662,4.76675787 28,7.24961696 28,9.88998632 C28,11.6474692 27.4898955,13.5417373 26.48223,15.5230506 C25.6961672,17.0691382 24.604878,18.6774008 23.2334495,20.3022435 C20.9296167,23.046238 18.6466899,24.870041 18.5505226,24.9487962 L18.0278746,25.3632969 Z M18.0278746,1.65800274 C13.4494774,1.65800274 9.72404181,5.35120383 9.72404181,9.88998632 C9.72404181,15.6225308 16.1296167,21.5789056 18.0278746,23.2161833 C19.9261324,21.5706156 26.3317073,15.5852257 26.3317073,9.88998632 C26.3317073,5.35120383 22.6062718,1.65800274 18.0278746,1.65800274 Z" id="Shape"></path>
            <path d="M18.0278746,13.1479617 C16.2174216,13.1479617 14.7414634,11.6847743 14.7414634,9.88998632 C14.7414634,8.09519836 16.2174216,6.63201094 18.0278746,6.63201094 C19.8383275,6.63201094 21.3142857,8.09519836 21.3142857,9.88998632 C21.3142857,11.6847743 19.8383275,13.1479617 18.0278746,13.1479617 Z M18.0278746,8.29001368 C17.1372822,8.29001368 16.4139373,9.00709986 16.4139373,9.88998632 C16.4139373,10.7728728 17.1372822,11.489959 18.0278746,11.489959 C18.9184669,11.489959 19.6418118,10.7728728 19.6418118,9.88998632 C19.6418118,9.00709986 18.9184669,8.29001368 18.0278746,8.29001368 Z" id="Shape"></path>
        </g>
    </g>
</svg>