<?xml version="1.0" encoding="UTF-8"?>
<svg width="41.5324675px" height="49.8416824px" viewBox="0 0 41.5324675 49.8416824" version="1.1" xmlns="http://www.w3.org/2000/svg" xmlns:xlink="http://www.w3.org/1999/xlink">
    <title>62DCE3D0-4561-4F51-AA2A-DD03A31FA960</title>
    <g id="Symbols" stroke="none" stroke-width="1" fill="none" fill-rule="evenodd">
        <g id="Territory-selected" fill="#FFFFFF" fill-rule="nonzero">
            <g id="noun_map-location_3778278" transform="translate(-0.000000, 18.439085)">
                <path d="M40.3019572,5.96084052 L33.2754261,2.76552552 C32.8930823,2.58197509 32.4413776,2.61949206 32.094554,2.86360451 C31.7477304,3.10771696 31.5599959,3.52027046 31.6037678,3.94212533 C31.6475397,4.3639802 31.9159765,4.72920111 32.3055306,4.89690661 L38.6459209,7.78024364 L38.6459209,27.4582781 L28.1061243,22.6675892 L28.1061243,11.7108851 C28.1061243,11.0641108 27.5818101,10.5397966 26.9350358,10.5397966 C26.2882614,10.5397966 25.7639473,11.0641108 25.7639473,11.7108851 L25.7639473,22.6675892 L15.2241507,27.4582781 L15.2241507,12.8819736 C15.2241507,12.2351993 14.6998365,11.7108851 14.0530621,11.7108851 C13.4062878,11.7108851 12.8819736,12.2351993 12.8819736,12.8819736 L12.8819736,27.4588637 L2.34217702,22.6675892 L2.34217702,2.98943764 L7.71325737,5.43057165 C8.09623811,5.61817513 8.55092533,5.58275773 8.90023654,5.33811311 C9.24954776,5.0934685 9.43825485,4.67827639 9.39286397,4.2542375 C9.34747308,3.83019861 9.07516077,3.46435593 8.68198179,3.29919056 L1.65545072,0.105515075 C1.29308272,-0.0591002702 0.87191248,-0.0284034833 0.537243067,0.187015093 C0.202573654,0.402433668 0,0.77308257 0,1.17108851 L0,23.4217702 C0,23.8809746 0.268541796,24.2977494 0.686726303,24.4874608 L13.5686999,30.3429033 C13.5862663,30.3508667 13.6052379,30.3475877 13.6230384,30.3546142 C13.7586259,30.4126456 13.903989,30.4444363 14.0514226,30.4483013 C14.2018766,30.4446399 14.3475845,30.4128433 14.4834372,30.3546142 C14.5008864,30.3475877 14.5202093,30.3507496 14.5374243,30.3429033 L26.9350358,24.7077425 L39.3326472,30.3429033 C39.6950341,30.5075273 40.1162279,30.4768181 40.450904,30.2613716 C40.7855801,30.045925 40.9880979,29.6752395 40.9880979,29.2772128 L40.9880979,7.02653107 C40.9880979,6.56753288 40.7197517,6.15091167 40.3019572,5.96084052 Z" id="Path"></path>
            </g>
            <path d="M21.1122368,29.7026656 L20.5001696,29.2172486 C20.3875493,29.1298735 17.7140399,26.9988929 15.0062547,23.7951408 C13.405087,21.8971604 12.1270908,20.0137425 11.2016452,18.1982829 C10.0215797,15.8779897 9.42420218,13.6499257 9.42420218,11.5820494 C9.42420218,5.19396178 14.6634971,5.32907052e-14 21.1073403,5.32907052e-14 C24.2264345,5.32907052e-14 27.1594604,1.20383413 29.3677987,3.39306475 C31.5761371,5.58229538 32.7904783,8.48994314 32.7904783,11.5820494 C32.7904783,13.6402174 32.1931008,15.858573 31.0130353,18.1788662 C30.0924863,19.9894716 28.81449,21.8728895 27.2084258,23.7757241 C24.5104337,26.9891846 21.8369243,29.1250193 21.724304,29.2172486 L21.1122368,29.7026656 Z M21.1122368,1.94166796 C15.7505284,1.94166796 11.3877137,6.26673333 11.3877137,11.5820494 C11.3877137,18.2953663 18.8892088,25.2708085 21.1122368,27.1882056 C23.3352647,25.2611001 30.8367599,18.2516788 30.8367599,11.5820494 C30.8367599,6.26673333 26.4739452,1.94166796 21.1122368,1.94166796 Z" id="Shape"></path>
            <path d="M21.1122368,15.3974269 C18.9920361,15.3974269 17.2635585,13.6839049 17.2635585,11.5820494 C17.2635585,9.4801938 18.9920361,7.76667183 21.1122368,7.76667183 C23.2324375,7.76667183 24.9609151,9.4801938 24.9609151,11.5820494 C24.9609151,13.6839049 23.2324375,15.3974269 21.1122368,15.3974269 Z M21.1122368,9.70833978 C20.0692743,9.70833978 19.2221734,10.5481112 19.2221734,11.5820494 C19.2221734,12.6159875 20.0692743,13.4557589 21.1122368,13.4557589 C22.1551992,13.4557589 23.0023002,12.6159875 23.0023002,11.5820494 C23.0023002,10.5481112 22.1551992,9.70833978 21.1122368,9.70833978 Z" id="Shape"></path>
        </g>
    </g>
</svg>