<svg xmlns="http://www.w3.org/2000/svg" width="8" height="14" viewBox="0 0 8 14">
  <path fill="#FFF" fill-rule="evenodd" d="M7.73177511,5.24236477 L4.21807903,5.24236477 L4.80715956,0.325474592 C4.82017019,0.19002402 4.746519,0.0624784552 4.62901252,0.0169681868 C4.51150604,-0.0285420816 4.38075845,0.0198398155 4.31276106,0.133994013 L0.0397311205,8.31198744 C-0.0111492304,8.40239123 -0.0133051196,8.51578305 0.0340951872,8.60841675 C0.081495494,8.70105044 0.171042169,8.75844508 0.268188421,8.75845803 L3.72938023,8.75845803 L3.26254145,13.6827467 C3.25310264,13.8176809 3.32898293,13.942302 3.44654991,13.9849508 C3.5641169,14.0275995 3.69316441,13.9773183 3.75948804,13.8630197 L7.96190879,5.68590528 C8.0115205,5.59538131 8.01274989,5.48270976 7.96512744,5.39091971 C7.91750535,5.29911147 7.82837164,5.24236786 7.73177511,5.24236477 Z" opacity=".5"/>
</svg>
