<svg xmlns="http://www.w3.org/2000/svg" width="84" height="85" viewBox="0 0 84 85">
    <defs>
        <filter id="jxq48ot2va">
            <feColorMatrix in="SourceGraphic" values="0 0 0 0 0.196078 0 0 0 0 0.211765 0 0 0 0 0.262745 0 0 0 0.500000 0"/>
        </filter>
    </defs>
    <g fill="none" fill-rule="evenodd">
        <g>
            <g transform="translate(-707 -768) translate(707 768.912)">
                <circle cx="42" cy="42" r="41.4" fill="#FFF" stroke="#323643" stroke-opacity=".25" stroke-width="1.2"/>
                <g filter="url(#jxq48ot2va)">
                    <g fill="#000" fill-rule="nonzero">
                        <path d="M7.153 8.072h-3.69c-.235 0-.425.19-.425.425v4.097c0 .234.19.425.425.425h3.69c.234 0 .425-.19.425-.425V8.497c0-.235-.19-.425-.425-.425zm-.425 4.097h-2.84V8.922h2.84v3.247zM10.272 13.019h3.69c.235 0 .425-.19.425-.425V8.497c0-.235-.19-.425-.425-.425h-3.69c-.234 0-.425.19-.425.425v4.097c0 .234.19.425.425.425zm.425-4.097h2.84v3.247h-2.84V8.922zM7.153 15.846h-3.69c-.235 0-.425.19-.425.425v4.096c0 .235.19.425.425.425h3.69c.234 0 .425-.19.425-.425v-4.096c0-.235-.19-.425-.425-.425zm-.425 4.096h-2.84v-3.246h2.84v3.246zM14.387 20.367v-4.096c0-.235-.19-.425-.425-.425h-3.69c-.234 0-.425.19-.425.425v4.096c0 .235.19.425.425.425h3.69c.235 0 .425-.19.425-.425zm-.85-.425h-2.84v-3.246h2.84v3.246z" transform="translate(25 25)"/>
                        <path d="M33.769 4.297L25.482.047c-.122-.063-.267-.063-.389 0L17 4.197 8.907.047c-.122-.063-.267-.063-.389 0L.231 4.297C.089 4.37 0 4.516 0 4.675v28.9c0 .235.19.425.425.425h5.81c.234 0 .425-.19.425-.425v-4.897c0-1.132.92-2.053 2.053-2.053 1.132 0 2.052.92 2.052 2.053v4.897c0 .235.19.425.425.425h11.62c.234 0 .425-.19.425-.425v-4.897c0-1.132.92-2.053 2.053-2.053 1.132 0 2.052.92 2.052 2.053v4.897c0 .235.19.425.425.425h5.81c.235 0 .425-.19.425-.425v-28.9c0-.16-.09-.305-.231-.378zM8.713 25.775c-1.601 0-2.903 1.302-2.903 2.903v4.472H.85V4.935L8.713.903l7.862 4.032V33.15h-4.96v-4.472c0-1.601-1.302-2.903-2.902-2.903zM33.15 33.15h-4.96v-4.472c0-1.601-1.302-2.903-2.902-2.903-1.601 0-2.903 1.302-2.903 2.903v4.472h-4.96V4.935L25.288.903l7.862 4.032V33.15z" transform="translate(25 25)"/>
                        <path d="M23.728 8.072h-3.69c-.235 0-.425.19-.425.425v4.097c0 .234.19.425.425.425h3.69c.234 0 .425-.19.425-.425V8.497c0-.235-.19-.425-.425-.425zm-.425 4.097h-2.84V8.922h2.84v3.247zM26.847 13.019h3.69c.235 0 .425-.19.425-.425V8.497c0-.235-.19-.425-.425-.425h-3.69c-.234 0-.425.19-.425.425v4.097c0 .234.19.425.425.425zm.425-4.097h2.84v3.247h-2.84V8.922zM23.728 15.846h-3.69c-.235 0-.425.19-.425.425v4.096c0 .235.19.425.425.425h3.69c.234 0 .425-.19.425-.425v-4.096c0-.235-.19-.425-.425-.425zm-.425 4.096h-2.84v-3.246h2.84v3.246zM26.847 20.792h3.69c.235 0 .425-.19.425-.425v-4.096c0-.235-.19-.425-.425-.425h-3.69c-.234 0-.425.19-.425.425v4.096c0 .235.19.425.425.425zm.425-4.096h2.84v3.246h-2.84v-3.246z" transform="translate(25 25)"/>
                    </g>
                </g>
            </g>
        </g>
    </g>
</svg>
