<?xml version="1.0" encoding="UTF-8"?>
<svg width="34px" height="35px" viewBox="0 0 34 35" version="1.1" xmlns="http://www.w3.org/2000/svg" xmlns:xlink="http://www.w3.org/1999/xlink">
    <title>map-selected</title>
    <g id="Symbols" stroke="none" stroke-width="1" fill="none" fill-rule="evenodd">
        <g id="whiteGlobe" fill="#FFFFFF" fill-rule="nonzero">
            <g id="map-selected">
                <path d="M30.6,16.5890411 C30.7545455,17.3196347 30.9090909,18.196347 30.9090909,18.9269406 C30.9090909,20.9726027 30.4454545,23.0182648 29.5181818,24.7716895 C26.4272727,26.3789954 25.0363636,25.5022831 23.6454545,24.4794521 C22.7181818,23.7488584 21.3272727,22.8721461 19.6272727,23.456621 C17.9272727,24.0410959 16.6909091,25.3561644 15.9181818,26.9634703 C15.3,28.4246575 15.1454545,30.3242009 15.4545455,32.0776256 C12.3636364,31.7853881 9.58181818,30.4703196 7.57272727,28.5707763 C8.65454545,26.3789954 8.65454545,24.1872146 7.26363636,22.2876712 C6.95454545,21.7031963 6.49090909,21.2648402 6.02727273,20.826484 C5.25454545,20.0958904 5.56363636,18.7808219 6.49090909,18.3424658 C7.72727273,17.7579909 9.11818182,17.173516 10.0454545,16.0045662 C11.9,13.3744292 9.73636364,9.57534247 9.27272727,8.84474886 C9.11818182,8.69863014 8.96363636,8.55251142 8.80909091,8.26027397 C10.3545455,7.23744292 12.0545455,6.50684932 13.9090909,6.06849315 C14.0636364,4.89954338 14.3727273,3.87671233 14.8363636,3 C6.49090909,4.02283105 0,10.7442922 0,18.9269406 C0,27.8401826 7.57272727,35 17,35 C26.4272727,35 34,27.8401826 34,18.9269406 C34,17.173516 33.6909091,15.4200913 33.0727273,13.6666667 C32.3,14.6894977 31.5272727,15.7123288 30.6,16.5890411 Z" id="Shape"></path>
                <path d="M24.4375,0 C20.71875,0 17,2.85 17,7.5 C17,11.7 22.80125,17.1 23.39625,17.55 C23.69375,17.85 23.99125,18 24.4375,18 C24.88375,18 25.18125,17.85 25.47875,17.55 C26.07375,17.1 31.875,11.7 31.875,7.5 C31.875,2.85 28.15625,0 24.4375,0 Z M24.4375,11 C22.684375,11 21.25,9.65 21.25,8 C21.25,6.35 22.684375,5 24.4375,5 C26.190625,5 27.625,6.35 27.625,8 C27.625,9.65 26.190625,11 24.4375,11 Z" id="Shape"></path>
            </g>
        </g>
    </g>
</svg>