<?xml version="1.0" encoding="UTF-8"?>
<svg width="14px" height="14px" viewBox="0 0 14 14" version="1.1" xmlns="http://www.w3.org/2000/svg" xmlns:xlink="http://www.w3.org/1999/xlink">
    <title>Shape</title>
    <g id="Symbols" stroke="none" stroke-width="1" fill="none" fill-rule="evenodd" opacity="0.5">
        <g id="Components/Switch/On-Copy-4" transform="translate(-141.000000, -10.000000)" fill="#FFFFFF" fill-rule="nonzero">
            <g id="Group" transform="translate(141.000000, 8.000000)">
                <g id="search-(2)" transform="translate(0.000000, 2.000000)">
                    <path d="M13.7871392,12.7517818 L10.3358997,9.28631113 C11.223274,8.26787909 11.7094716,6.98648317 11.7094716,5.65249447 C11.7094716,2.53575817 9.08298623,0 5.85473581,0 C2.6264854,0 -8.8817842e-16,2.53575817 -8.8817842e-16,5.65249447 C-8.8817842e-16,8.76923077 2.6264854,11.3049889 5.85473581,11.3049889 C7.06666613,11.3049889 8.2215764,10.9520767 9.20899032,10.2821332 L12.6864488,13.7739002 C12.831799,13.9196363 13.0272963,14 13.236794,14 C13.4350914,14 13.6232066,13.9270091 13.7660112,13.7942984 C14.0694393,13.5124109 14.0791123,13.0449742 13.7871392,12.7517818 Z M5.85473581,1.47456377 C8.24092249,1.47456377 10.1821492,3.34873433 10.1821492,5.65249447 C10.1821492,7.95625461 8.24092249,9.83042517 5.85473581,9.83042517 C3.46854914,9.83042517 1.52732239,7.95625461 1.52732239,5.65249447 C1.52732239,3.34873433 3.46854914,1.47456377 5.85473581,1.47456377 Z" id="Shape"></path>
                </g>
            </g>
        </g>
    </g>
</svg>